<svg xmlns="http://www.w3.org/2000/svg" xmlns:xlink="http://www.w3.org/1999/xlink" width="149.893" height="130.214" viewBox="0 0 149.893 130.214">
  <g id="Group_294" data-name="Group 294" clip-path="url(#clip-path)">
    <path id="Path_2398" data-name="Path 2398" d="M118.9,70.606a17.3,17.3,0,0,1,8.185-12.977c3.9-2.419,17.158-2.52,16.748-2.689-7.83-3.234-18.705-8.332-25.673-13.149a7.422,7.422,0,0,0-4-1.739,7.272,7.272,0,0,0-2.254.492C103.537,43.317,94.447,45.631,86,43.077a13.257,13.257,0,0,1-2.765-1.429.66.66,0,0,1-.17-.981A11.289,11.289,0,0,0,85.624,34L93.492,22.51c.378-.552-11.962,1.613-11.962,1.613a.85.85,0,0,1-.706-.153,12.652,12.652,0,0,0-6.71-2.536.814.814,0,0,1-.628-.38s-7.53-10.371-7.642-9.711l-2.6,15.381a11.245,11.245,0,0,0-1.768,5.219.659.659,0,0,1-.8.587,13.361,13.361,0,0,1-3-.9C49.822,27.607,44.89,19.626,40.79,11.816A7.253,7.253,0,0,0,39.511,9.9a7.419,7.419,0,0,0-4.084-1.524C27.068,7,15.7,3.114,7.825,0,7.411-.16,16.571,6.172,18.006,13.569c1.012,5.211.24,10.95-3.125,15.023-.227.275,7.45-1.146,13.227,4.767a11.322,11.322,0,0,1,1.81,12.978c-.176.312,4.2-1.7,8.6-1.533,5.66.215,11.257,3.722,11.223,9.843-.018,3.134-3.342,8.118-3.974,7.846,0,0,10.845,4.648,10.709,15.08l-.005.011.005-.007c6.932-7.8,17.783-3.97,17.783-3.97a11.484,11.484,0,0,1,2.806-9.071c3.911-4.114,8.89-2.676,12.925.63,3.949,3.234,5.676,8.112,5.766,7.766a11.484,11.484,0,0,1,10.318-8.08c4.683-.257,12.8,6.109,12.826,5.755" transform="translate(6.051 0)" fill="#1f1424"/>
    <path id="Path_2399" data-name="Path 2399" d="M83.714,65.918c1,1.164,3.95,5.619,4.943,6.8-.66.041-10.27-7.7-12.3,3.333-1.736-3.241-4.721-7.321-8.806-6.094-5.113,1.533-5.008,4.673-6.52,6.739-1.961-10.245-12.547-.976-14.041,4.962-.875,3.48-2.46,6-2.918,7.361-1.97-3.775-5.715-13.908-9.926-11.562a17.593,17.593,0,0,0-4.38,4.391c-.761-13.057-13.734-2.014-14.427.978C7.049,72.035,1.826,88.1,1.888,88.309-1.681,83.5.057,70.285,5.033,65.123c5.274-5.475,9.929-10.378,18.643-9.745,5.044.366,8.905,8.123,11.571,9.715,2.788,1.665,5.4-1.091,5.72-3.406.24-1.769.334-6.11.6-7.422.224.431,3.313,4.293,4.928,3.7,4.021-2.781,2.9-4.039,3.791-4.786.807.367,1.39,9.257,1.413,11.026,6.82-3.812,16.283-16.677,32.017,1.714" transform="translate(0 41.196)" fill="#1f1424" fill-rule="evenodd"/>
  </g>
</svg>
