<svg xmlns="http://www.w3.org/2000/svg" width="198.222" height="130.145" viewBox="0 0 198.222 130.145">
  <path id="Path_2397" data-name="Path 2397" d="M50.7,32.9a29.5,29.5,0,0,0,.657,6.7,38.384,38.384,0,0,0-14.178-2.139C16.955,38.163.314,53.762,0,72.308c-.223,13.507,8.281,24.843,20.726,29.744a38.211,38.211,0,0,0,15.327,2.577,41.067,41.067,0,0,0,17.476-4.634,21.715,21.715,0,0,0,6.536,9.982,24.81,24.81,0,0,0,17.261,5.909A27.4,27.4,0,0,0,88.6,113.03c5.24,10.539,16.752,17.557,30.237,17.093,17.038-.586,31.321-12.915,33.9-28.388a19.071,19.071,0,0,0,15.814,7.336c11.271-.387,20.563-10.081,20.754-21.652A20.331,20.331,0,0,0,185.571,75.2c7.7-5.1,12.526-11.936,12.649-19.305.247-14.778-18.506-26.108-41.883-25.3A66.437,66.437,0,0,0,143.7,32.232c-1.614-12.177-10.829-21.18-22.122-20.792a21.069,21.069,0,0,0-8.439,2.116C107.27,5.035,96.908-.389,85.008.022a36.56,36.56,0,0,0-7.513,1.052C62.395,4.8,50.946,17.806,50.7,32.9" transform="translate(0 0)" fill="#efcd9e"/>
</svg>
