<svg xmlns="http://www.w3.org/2000/svg" xmlns:xlink="http://www.w3.org/1999/xlink" width="175.981" height="181.718" viewBox="0 0 175.981 181.718">
  <g id="Group_284" data-name="Group 284" clip-path="url(#clip-path)">
    <path id="Path_2393" data-name="Path 2393" d="M32.172.36c-15.6,3.428-29.646,11.1-31.8,28.787-4.89,40.107,39.877,82.721,43.593,106.521.573,3.11,6.57,16.724,9.723,30.184,2.672,11.385,6.287,19.8,10.877,13.962.138-.175.859-16.561,7.76-10.962,2.479,2.011,9.39,16.994,15.469,3.7,1.885-4.124.987-4.4,6.029-6.277,14.2,1.926,5.7,13.774,19.568,6.838,4.337-15.945-7.987-14.841.413-9.512,2.344,1.485,16.673,10.176,15.219-2.031-.929-7.775-.781-7.74.859-11.621,11.242,3,6.317,11.936,18.641,11,4.64-7.311-4.61-26.4,5.887-21.2,20.329,10.066,25.415-1.5,18.907-9.132-9.765-11.435-27.7-23.907-35.375-35.152C125.483,77.2,96.062,48.62,82.265,29.553,73.777,17.82,47.406-2.988,32.172.36" transform="translate(0 -0.001)" fill="#d6e0e4" fill-rule="evenodd"/>
    <path id="Path_2394" data-name="Path 2394" d="M15.46,44.3h0c2.2,2.276,5,4.68,8.118,4.114,4.67-.849,5.586-7.276,4.314-11.848C26.259,30.7,17.824,14.779,9.2,18.908c-10.461,5.01,1.991,20.97,6.26,25.387" transform="translate(7.699 27.42)" fill="#1f1424"/>
    <path id="Path_2395" data-name="Path 2395" d="M29.974,35.142h0c2.2,2.276,5,4.68,8.118,4.114,4.67-.849,5.586-7.276,4.314-11.848C40.773,21.551,32.338,5.626,23.714,9.755c-10.461,5.01,1.991,20.97,6.26,25.387" transform="translate(29.526 13.655)" fill="#1f1424"/>
    <path id="Path_2396" data-name="Path 2396" d="M38.939,40.545a12.942,12.942,0,0,1-10.8,4.883,17.041,17.041,0,0,1-11.1-5.556,27.028,27.028,0,0,0,3.425-1.014,15.589,15.589,0,0,0,4.913,2.584q-.192-2.359-.383-4.722a29.287,29.287,0,0,0,4.642-3.348,32.7,32.7,0,0,0,7.254,1.705q-1.119-3.707-2.236-7.414a27.412,27.412,0,0,0,2.011-3.541,24.39,24.39,0,0,1,3.218,5.283,12,12,0,0,1,.936,6.973,9.84,9.84,0,0,1-1.878,4.166" transform="translate(25.622 36.276)" fill="#1f1424"/>
  </g>
</svg>
