<svg id="Group_150" data-name="Group 150" xmlns="http://www.w3.org/2000/svg" xmlns:xlink="http://www.w3.org/1999/xlink" width="44.168" height="31.931" viewBox="0 0 44.168 31.931">
  <defs>
    <clipPath id="clip-path">
      <rect id="Rectangle_85" data-name="Rectangle 85" width="44.168" height="31.931" fill="#fff"/>
    </clipPath>
  </defs>
  <g id="Group_149" data-name="Group 149" clip-path="url(#clip-path)">
    <path id="Path_2285" data-name="Path 2285" d="M103.816,76.224a4.775,4.775,0,1,1-4.775-4.775,4.774,4.774,0,0,1,4.775,4.775" transform="translate(-76.906 -58.291)" fill="#fff"/>
    <path id="Path_2286" data-name="Path 2286" d="M101.232,73.6a5.366,5.366,0,1,1-5.366-5.367,5.366,5.366,0,0,1,5.366,5.367" transform="translate(-73.833 -55.67)" fill="#fff"/>
    <path id="Path_2287" data-name="Path 2287" d="M87.146,57.549a7.335,7.335,0,1,0,7.335,7.335,7.343,7.343,0,0,0-7.335-7.335" transform="translate(-65.113 -46.951)" fill="#fff"/>
    <path id="Path_2288" data-name="Path 2288" d="M40.483,6.9H32.395S29.45.979,27.586.006c-.023-.012-.077,0-.1,0h-10.8c-.025,0-.08-.012-.1,0-1.863.973-4.808,6.9-4.808,6.9H10.092a1.7,1.7,0,0,0,.055-.41A1.49,1.49,0,0,0,8.739,4.934H5.387A1.49,1.49,0,0,0,3.979,6.495a1.7,1.7,0,0,0,.055.41H3.685A3.685,3.685,0,0,0,0,10.59V28.247a3.685,3.685,0,0,0,3.685,3.685h36.8a3.685,3.685,0,0,0,3.685-3.685V10.59A3.685,3.685,0,0,0,40.483,6.9M22.033,28.741A10.807,10.807,0,1,1,32.84,17.934,10.819,10.819,0,0,1,22.033,28.741M40.048,12.793a1.777,1.777,0,1,1,1.776-1.777,1.777,1.777,0,0,1-1.776,1.777" transform="translate(0 0)" fill="#fff"/>
  </g>
</svg>
