<?xml version="1.0" encoding="UTF-8"?>
<svg id="Layer_1" xmlns="http://www.w3.org/2000/svg" width="1214" height="813" version="1.1" xmlns:xlink="http://www.w3.org/1999/xlink" viewBox="0 0 1214 813">
  <!-- Generator: Adobe Illustrator 29.2.1, SVG Export Plug-In . SVG Version: 2.1.0 Build 116)  -->
  <defs>
    <style>
      .st0 {
        fill: #ed6927;
      }

      .st1 {
        fill-rule: evenodd;
      }

      .st1, .st2 {
        fill: #1f1424;
      }

      .st3 {
        fill: #fff;
      }

      .st4 {
        fill: #5f4f98;
      }

      .st5 {
        fill: #9eb04c;
      }
    </style>
  </defs>
  <path id="Path_2354" class="st2" d="M19.4,516.2c.8,2,1.8,4.5,2.2,5.7.4-.3.8-.8,1.4-1.3,2.8-2.5,7.4-6.7,8.8-8.7.1-.2.4-.3.6-.2.3.2.4.5.3.8-.3,1-1.5,4.7-2.4,7.9-.4,1.5-.8,2.9-1.1,3.8.9.3,2.6.9,4.3,1.5,2.1.8,4.2,1.5,4.7,1.8h0s0,.2.2.3c0,.3,0,.7-.3.9,0,0-4.2,1.8-7,3-1,.4-1.8.7-2.3.9,0,2.2.2,4.3.9,6.4.6,2.4,1.1,4.4.2,5.4h0c-.1.2-.4.2-.6,0h0l-.6-.5-.5-.5c-.1.2-.4.2-.5,0-.7-.6-1.2-1.3-1.5-2.1-2.5-2.4-4-3.4-5.3-3.5-1.4,0-2.8,1.1-5.3,3.1-1,.8-2.2,1.8-3.6,2.8-.1,0-.3,0-.4,0-.3,0-.5-.4-.4-.7.6-2.7,1.5-5.3,2.7-7.8.5-1.1,1-2.2,1.3-3.3-.4,0-.7,0-1-.2-3.3-.7-7.2-1.4-9.6-4.4,0,0,0,0,0-.2h0s-.2,0-.2,0l-.5-.5c0,0-.2-.3-.2-.4,0-.3,0-.6.5-.7,1.4-.2,2.8-.3,4.2-.3h0c2.5-.6,5.8-1,7.1-1.2l.3-2.4c0-.2-.2-.3-.2-.5-.7-1.4-1.1-2.1.2-8.9h0v-.2c0-.3.4-.4.6-.3h0c.3.2.5.5.8.8h.4c.7,1,1.3,2.2,1.7,3.4M17.7,515.5c-.2,1.4-.4,3.1-.6,4.8v1.1c.5,1.8.9,3.7,1,5.6,0,.3-.1.6-.4.7,1,.2,1.8.4,2.3.5h.2l-.2,1.1c.1,0,.2-.2.3-.3h0c0-.3.2-.6.5-.7h2.2c.3-.5.7-.8,1.2-.9h.1c.1,0,.3,0,.3.2s.1.3.1.5h1.3c0,0,.1-.2.2-.3.1-.2.4-.3.6,0h0s0,0,.1.2c1.1,0,1.9,0,2.5,0h6.3c-.8-.3-1.7-.6-2.7-1-2.2-.8-4.5-1.6-4.7-1.6-.3,0-.5-.4-.4-.7h0c.2-.9.6-2.6,1.2-4.6.5-1.8,1.1-3.7,1.6-5.3-2.1,2.2-5.2,5-7.3,6.9-1.1,1-1.9,1.7-1.9,1.7,0,.2-.2.3-.4.3h-.1c-.1.2-.4.3-.6.2-.3,0-.5-.3-.5-.6h0c-.3-2.1-.9-4.2-1.7-6.1-.2-.6-.5-1.2-.7-1.7M16.1,519.6l.7-5.6c0,0-.2-.2-.2-.3-.7,3.7-.7,5.1-.5,6M16.6,524.1c0,.5-.1.7-.1.7,0,.3-.3.5-.5.5-.4,0-1.5.2-2.7.4,1.3.2,2.5.4,3.7.6-.1-.9-.2-1.6-.3-2.2M8.3,526.6c-.3,0-.7,0-1,.2.7.2,1.4.5,2.2.8v-.5c.3,0,.6,0,.9,0,0-.2.1-.4.3-.5h.3-2.7M6.9,528c1.7,1.2,3.6,1.9,5.6,2.3-1.8-.8-3.8-1.7-5.6-2.3M16.4,532c0,.3-.1.6-.2.9l.5-.8h-.2M13.4,539.5c-.3.8-.6,1.7-.8,2.6,1-.7,1.8-1.4,2.5-2h0c-.2,0-.3-.4-.3-.6,0-.7,1.1-2.3,2.4-4.2.8-1.3,1.7-2.7,2.4-3.8-.4.5-.9,1-1.3,1.6-.2.3-.4.7-.6,1.1-1.1,1.8-2.3,3.5-3.7,5.2,0,0-.2.2-.3.2h-.2M17,538.6c.7-.6,1.5-1.1,2.3-1.5-.2,0-.3-.3-.3-.6v-.3h0c-.7.8-1.3,1.7-2,2.4M20.4,536.7h.7c1.1,0,2.1.5,2.9,1.2,0-.2.1-.5.2-.8-.2-.4-.4-.8-.5-1.1h0c0,.4-.3.7-.6.6h0c-.3,0-.5-.4-.4-.7,0-.5.2-.9.4-1.4v-.2h-.1c-.7.9-1.6,1.8-2.5,2.5M27.1,540.5c.2.2.4.4.6.5,0-.2,0-.4-.1-.6-.5-.8-.8-1.6-.9-2.5h0c-.1.2-.3.5-.5.7.2.5.4.9.7,1.3.1.2.2.4.3.6M29.1,542.4l.4.4v-.6h-.1s-.2,0-.3.2M29.1,540.4c0-.3-.2-.7-.2-1-.4-1.5-.7-3-.9-4.5-.1.3-.3.7-.4,1.1v1.4c.2.5.4,1,.5,1.5l.2.4.2.5c.2.2.4.4.6.6M27.9,532.7c0-.3,0-.5.1-.8,0-.3.3-.5.6-.5h0s1-.4,2.3-1c.7-.3,1.5-.6,2.3-.9-2,0-4,.4-6,.9v.4c-.2.8-.7,2.1-1.1,3.5.1.3.3.6.4.8,0-.4.2-.8.3-1.2.2-.7.6-1.2,1-1.3h.1ZM17,530.8h.3v-.2h.1c.2-.4.4-.6.5-.8h-.3c-1.1-.3-2.7-.6-4.1-1,.4.2.7.4,1.1.6,1.1.6,2,1.1,2.5,1.3M19.9,529.5c-.2,0-.4,0-.6,0h0c0,.2,0,.3-.2.4,0,0-.1.3-.2.4v.2c.3-.4.6-.7.9-1M21.5,529.7c-.5,1.4-1.2,2.8-2.1,4.1l.7-1c.3-.5.5-1.1.8-1.6s.6-1,.9-1.5h-.4.1ZM22,532c-.3.5-.7.9-1,1.4-.3.7-.6,1.4-.8,2.1,1.2-1.2,2.4-2.5,3.4-3.9-.2-.2-.3-.5-.3-.7,0-.3.2-.5.4-.6l.6-.2c.2,0,.3,0,.5-.2l.3-.4h-1.2c-.5.7-1.1,1.6-1.8,2.5M24.5,534.6l-.2.2c0,.2.2.4.3.6,0-.2.1-.4.2-.6-.1,0-.2-.2-.3-.3M25.6,535.9c-.1.4-.2.7-.3,1,0,.2.2.4.3.6.2-.2.3-.5.5-.8-.1-.3-.3-.5-.4-.8"/>
  <path id="Path_2355" class="st2" d="M17.4,523.8c-.1-.3,0-.7.2-.9,0,0,.2,0,.3,0v-.4c-.2-.7-.4-1.5-.6-2.3-.2-.5-.4-1-.5-1.5,0-.3-.2-.7-.3-1h0l1-.6c.3,1,.6,1.8.8,2.5h0c.3.3.4.6.3.9,0,0,0,.2-.1.2.1.5.2.9.3,1.3.3,1.5.7,3,1.1,4.4.1.3,0,.6-.2.8s-.5,0-.6,0h0c0,0-1.6-3.4-1.6-3.4h0Z"/>
  <path id="Path_2356" class="st2" d="M18.5,525.2c.3-.3.5-.6.7-.9.5-1.4,1.1-2.8,1.9-4.1.1-.2.4-.3.6-.3.6-.9,1.6-1.3,2.7-1,.2,0,.4.3.4.6s0,.7-.2,1h.1c1.2-1.6,2-2.3,2.4-2.2.5-.7.9-1.4,1.3-2.2h0c0-.3.2-.5.5-.5,1.5-2.2,2.9-3.9,3.6-4.2h.2c.3,0,.5.3.5.6h0c0,1.5-1.3,3.8-2.8,5.8h.1c.2,0,.4.2.4.4v1c-.3,1-.8,1.9-1.4,2.7.2,0,.3.2.5.3.2.2.3.5.2.7-.2.6-.4,1.3-.7,1.9h0c.3,0,.6.2.9.3.1,0,.2.3.2.5v.8c0,0,0,.3-.1.4h.5c.1,0,.3,0,.4.2.3.2.4.5.3.8,0,0,0,.2-.1.3.5,0,1.1-.2,1.6-.3,1.3-.2,2.6-.6,3.9-1,.2-.2.5-.2.6,0h0c0,.2,0,.3,0,.5v.7c0,.3-.2.6-.5.7h-.2c-.6.5-1.3.9-2,1.2l-.4.3c-2.3,1.6-5.4,3.7-8.1,3.1h-.2c-.3-.2-.3-.6-.2-.9,0,0,.1-.2.2-.3-.5.2-1,.2-1.5,0-.3,0-.5-.4-.4-.7.2-1.1.5-2.1.9-3.1v-.2h-.3c-.2,0-.4-.3-.4-.5v-.8c-.2,0-.4.3-.7.4h-.1c-1.3,1.9-2.4,2.2-3.1,1.7-.7-.7-1-1.7-.9-2.6h0c-.2,0-.3,0-.4,0,0,0-.2,0-.2-.2-.2.2-.3.4-.5.6-.1.2-.3.2-.5,0-.3-.2-.4-.5-.3-.8h0c0-.2.1-.4.2-.6,0,0,0,0,.1,0h0M21.1,524.7c.2,0,.3-.2.5-.4.3-.9.8-1.7,1.3-2.4h0c0-.3.1-.4.2-.6.1-.4.3-.8.3-1.1-1,0-1.8,1.4-2.2,3-.1.5-.2,1-.3,1.6M22.1,526.3c0,.2,0,.5-.1.7.3,0,.8-.4,1.2-1.1,0-.2.1-.4.2-.6-.6.6-1,1-1.3,1h0ZM28.9,517.6c-.3.5-.6,1-.9,1.6.5-.6,1.1-1.3,1.6-2,.8-1.1,1.5-2.2,2.1-3.5-1,1.2-1.9,2.5-2.7,3.9M28,523.9s-.1,0-.2.2h0c-.3.7-.6,1.4-.8,2.1.1,0,.2-.3.3-.4.2-.2.4-.4.6-.5.4-.7.7-1.4,1-2.1-.2,0-.4,0-.5.2s-.3.3-.4.5M27.8,522.4c.7-.9,1.4-1.9,1.9-3-.7.7-1.3,1.4-1.8,2.3-.3.5-.6,1-.8,1.6.2-.3.4-.6.7-.9M28,527.1c-.3.3-.6.6-.9.8-.2.3-.3.6-.5.9h0c0,.5,0,.9.2,1s.4,0,.8-.5c0,0,0-.2.1-.3h0c.2-.5.6-.9,1-1.2.2-.3.5-.7.7-1.2,0,0,0-.2.1-.3h-.2c-.2,0-.5,0-.7,0-.2.3-.4.5-.6.8M26.1,530.8s-.2-.2-.2-.3c0,.2-.1.4-.1.5.2,0,.4,0,.6,0,0,0-.1,0-.2,0M29.9,528.5s.2-.2.2-.3c-.2,0-.5.2-.7.4h.4M30.3,529.7c-.3.3-.7.7-1,.9.7-.3,1.6-.5,2.4-.7,1.1-.3,2.1-.6,3-1l.4-.3c-.6,0-1.2.3-1.9.4-1,.2-2,.4-2.9.6M30.3,531.6c-.6.2-1.2.4-1.7.6.6,0,1.1-.3,1.7-.6"/>
  <path id="Path_2357" class="st0" d="M111.8,706.1l-10.6-10.5,5.1-14.6-14.6,7.7-15.6-9.2,6.1,16.6-12.8,9.7,17.7,1,4.9,13.1,5.5-14.1,14.2.2h0Z"/>
  <path id="Path_2360" class="st2" d="M320.4,280.7c.5-4.7,3.2-9,7.2-11.4,3.4-2.1,15.1-2.2,14.7-2.4-6.9-2.9-16.5-7.3-22.6-11.6-1-.9-2.2-1.4-3.5-1.5-.7,0-1.3.2-2,.4-7.4,2.4-15.4,4.5-22.8,2.2-.9-.3-1.7-.7-2.4-1.3-.3-.2-.4-.5-.2-.8h0c1.4-1.7,2.2-3.7,2.3-5.9l6.9-10.1c.3-.5-10.5,1.4-10.5,1.4-.2,0-.4,0-.6-.1-1.7-1.3-3.8-2.1-5.9-2.2-.2,0-.4-.1-.6-.3,0,0-6.6-9.1-6.7-8.6l-2.3,13.5c-.9,1.4-1.4,3-1.6,4.6,0,.3-.3.6-.6.5h0c-.9-.2-1.8-.4-2.6-.8-6.9-3.5-11.3-10.6-14.9-17.5-.3-.6-.7-1.2-1.1-1.7-1-.8-2.3-1.3-3.6-1.3-7.4-1.2-17.4-4.6-24.3-7.4-.4-.1,7.7,5.4,9,11.9.9,4.6.2,9.6-2.8,13.2-.2.2,6.6-1,11.6,4.2,2.9,3.1,3.5,7.7,1.6,11.4-.2.3,3.7-1.5,7.6-1.4,5,.2,9.9,3.3,9.9,8.7s-2.9,7.1-3.5,6.9c0,0,9.6,4.1,9.4,13.3h0c6.1-6.9,15.7-3.5,15.7-3.5-.4-2.9.5-5.8,2.5-8,3.4-3.6,7.8-2.4,11.4.6,3.5,2.8,5,7.1,5.1,6.8,1.2-4,4.9-6.9,9.1-7.1,4.1-.2,11.3,5.4,11.3,5.1"/>
  <path id="Path_2363" class="st0" d="M1135.4,575.1c1.1,2.3,2.4,5.2,3,6.6.5-.4,1.1-.9,1.8-1.4,3.6-2.8,9.6-7.6,11.3-9.9.2-.3.5-.4.8-.3.4.2.5.6.4.9-.4,1.2-1.9,5.4-3.1,9.1-.6,1.8-1.1,3.4-1.3,4.4,1.1.3,3.4,1.1,5.7,1.8,2.7.9,5.5,1.8,6.2,2.1h0c0,0,.2.2.2.3.2.4,0,.8-.3,1,0,0-5.4,2-9.2,3.3-1.2.4-2.3.8-3,1-.3,2.2.5,5,1.2,7.4.8,2.8,1.4,5.1.4,6.2-.2.3-.6.3-.9,0l-.7-.6-.6-.5c-.2.2-.5.2-.7,0-.8-.6-1.5-1.5-2-2.4-3.3-2.7-5.2-4-7-4.1-1.8,0-3.6,1.2-6.9,3.6-1.3.9-2.9,2-4.7,3.2,0,0-.3.2-.5,0-.4,0-.6-.5-.5-.9h0c.8-3.1,1.9-6.2,3.5-9,.7-1.2,1.2-2.5,1.7-3.8-.5,0-.9-.2-1.3-.2-4.4-.8-9.4-1.8-12.6-5.2,0,0,0,0,0-.2h0c0,0-.2,0-.3,0l-.7-.5h0c-.2,0-.2-.3-.3-.5,0-.4.2-.8.6-.8,1.8-.3,3.7-.4,5.5-.3h0c3.3-.6,7.5-1.1,9.3-1.3l.4-2.8c0-.2-.2-.4-.3-.5-1-1.6-1.5-2.5,0-10.2h0v-.2c.2-.3.6-.5.9-.3h0c.4.3.7.6,1,.9.2,0,.4,0,.5,0,.9,1.2,1.7,2.5,2.3,3.9M1133.1,574.3c-.2,1.6-.5,3.6-.7,5.5l-.2,1.3c.9,2,1.4,4.2,1.5,6.4,0,.4-.2.7-.5.8,1.3.2,2.4.5,3.1.6h.3l-.3,1.3c0,0,.3-.2.4-.3h0c0-.4.3-.7.7-.8h2.8c.4-.5,1-.8,1.6-1h.2c.2,0,.3,0,.4.3s.2.3,0,.5h1.7c0,0,0-.2.2-.3.2-.3.6-.3.9,0h0s0,.2.2.2c1.5,0,2.5,0,3.3,0h8.2c-1-.3-2.3-.8-3.5-1.2-2.9-1-5.9-1.9-6.2-1.9s-.6-.4-.6-.8h0c.2-1,.8-3,1.5-5.3.7-2,1.4-4.3,2-6.1-2.7,2.5-6.7,5.7-9.4,7.8-1.5,1.2-2.5,2-2.5,2,0,.2-.3.3-.5.4h-.2c-.2.2-.5.3-.7.3-.4,0-.7-.3-.7-.7-.4-2.5-1.2-4.8-2.3-7.1-.3-.7-.7-1.3-1-1.9M1131.1,579l.9-6.5c0,0-.2-.3-.3-.4-.8,4.3-.9,5.9-.6,6.9M1131.8,584.2c0,.5,0,.8,0,.9,0,.3-.4.6-.7.6-.6,0-1.9.2-3.5.4,1.7.2,3.3.5,4.8.8,0-1-.3-1.9-.5-2.6M1121.1,586.9c-.4,0-.9.2-1.3.2.9.3,1.9.6,2.8,1v-.6c.4,0,.8,0,1.1.2,0-.2.2-.5.4-.6h.4c-.5,0-.9,0-1.4,0-.7,0-1.4,0-2.1,0M1119.2,588.5c2.2,1.4,4.7,2.3,7.3,2.7-2.3-1-5-2-7.3-2.7M1131.7,593.3c0,.3-.2.7-.3,1l.6-.9h-.3M1127.9,601.9c-.4,1-.8,1.9-1,2.9,1.2-.8,2.3-1.6,3.3-2.3h0c-.3,0-.4-.4-.4-.7,0-.8,1.4-2.7,3-4.8,1.1-1.5,2.2-3.1,3.1-4.4-.5.5-1.1,1.1-1.7,1.8-.2.4-.5.8-.8,1.2-1.4,2.1-3,4.1-4.8,5.9h0c0,0-.2.2-.4.2,0,0-.2,0-.3,0M1132.5,600.9c.9-.7,1.9-1.2,2.9-1.7-.3,0-.4-.4-.4-.7v-.3h0c-.9.9-1.7,1.9-2.6,2.7M1136.9,598.8h.9c1.4,0,2.7.6,3.8,1.4,0-.3.2-.6.3-.9-.2-.5-.5-.9-.7-1.3h0c0,.5-.4.8-.8.7-.4,0-.6-.4-.6-.8h0c0-.7.3-1.2.5-1.7v-.2h0c-1,1.1-2.1,2.1-3.2,2.9M1145.7,603.3l.8.6c0-.2,0-.5-.2-.8-.6-.9-1.1-1.8-1.2-2.9h0c-.2.3-.4.5-.6.8.3.5.6,1,.9,1.5,0,.2.3.5.4.7M1148.4,605.5l.6.5v-.7h0s-.2,0-.4.2M1148.4,603.1c0-.4-.2-.8-.3-1.2-.5-1.7-.9-3.4-1.2-5.2-.2.4-.3.8-.5,1.2v1.6c.3.6.5,1.1.7,1.7l.2.5.3.6c.2.3.5.5.8.7M1146.7,594.2c0-.3,0-.6,0-.9,0-.4.4-.6.8-.6h0s1.3-.5,3-1.1c.9-.3,2-.7,3-1.1-2.6,0-5.2.4-7.8,1v.4c-.3.9-.8,2.4-1.4,4,.2.3.4.6.5,1,0-.5.2-.9.4-1.3.2-.7.7-1.2,1.3-1.5h0ZM1132.5,592h.4v-.2h0c.3-.4.5-.7.6-.9h-.4c-1.4-.3-3.5-.7-5.4-1.2.5.2.9.5,1.4.7,1.4.7,2.6,1.3,3.2,1.5M1136.2,590.5c-.3,0-.5,0-.8,0v.2c0,0,0,.3-.2.4,0,0-.2.3-.3.5,0,0,0,.2,0,.2.4-.4.8-.8,1.2-1.1M1138.3,590.7c-.7,1.7-1.6,3.3-2.7,4.7.3-.4.6-.8,1-1.1.3-.6.7-1.2,1.1-1.8s.8-1.2,1.2-1.7h-.6ZM1139,593.4c-.4.5-.9,1.1-1.4,1.6-.4.8-.8,1.6-1.1,2.4,1.6-1.4,3.1-2.9,4.4-4.5-.2-.4-.4-.6-.3-.8,0-.3.2-.6.6-.7l.8-.3.6-.2.4-.5h-1.6c-.6.8-1.4,1.8-2.4,2.9M1142.3,596.4l-.2.3c0,.2.2.5.4.7,0-.2.2-.5.3-.7,0,0-.3-.2-.4-.3M1143.8,597.9c0,.4-.3.8-.4,1.2,0,.2.2.5.4.7.2-.3.4-.6.6-1-.2-.3-.4-.6-.5-.9"/>
  <path id="Path_2364" class="st0" d="M1132.9,583.9c-.2-.3,0-.8.2-1,0,0,.2,0,.4,0v-.5c-.3-.9-.5-1.7-.8-2.7-.3-.6-.5-1.1-.6-1.8,0-.4-.2-.8-.4-1.1h0l1.3-.6c.4,1.1.8,2.1,1,2.9h0c.4.3.5.7.4,1,0,0,0,.2,0,.3,0,.5.3,1,.4,1.5.4,1.7.9,3.5,1.6,5.1,0,.3,0,.7-.3,1-.3.2-.7,0-.9-.2h0l-2.1-3.8h-.2Z"/>
  <path id="Path_2365" class="st0" d="M1134.3,585.5c.4-.3.7-.7,1-1.1.6-1.7,1.4-3.2,2.5-4.7.2-.3.5-.4.8-.3.8-1.1,2.2-1.5,3.5-1.1.3,0,.5.4.5.7s0,.8-.2,1.2h.2c1.6-1.9,2.6-2.6,3.1-2.6.6-.8,1.1-1.6,1.6-2.5h0c0-.4.3-.6.7-.6,1.9-2.5,3.7-4.5,4.6-4.8h.2c.4,0,.7.3.6.7h0c0,1.7-1.6,4.3-3.5,6.7h.2c.3,0,.5.3.5.5v1.1c-.4,1.1-1.1,2.2-1.8,3.2.2,0,.4.2.6.3.3.2.4.5.3.9-.3.7-.6,1.4-.9,2.1h0c.4,0,.8.2,1.1.4.2,0,.3.3.3.5v.9c0,.2,0,.3,0,.5h.6c.2,0,.4,0,.6.2.3.2.5.5.4.9,0,0,0,.3-.2.4.7,0,1.4-.2,2.1-.4,1.7-.3,3.4-.6,5.1-1.1.3-.2.7-.2.9,0h0c0,0,0,.3,0,.4v.8c0,.4-.2.8-.6.8h-.2c-.8.6-1.7,1.1-2.6,1.4l-.5.3c-3,1.8-7,4.2-10.5,3.5h-.2c-.3-.2-.4-.7-.2-1,0,0,.2-.3.3-.4-.6.2-1.3.2-1.9,0-.4,0-.6-.4-.5-.8.2-1.2.6-2.4,1.2-3.5v-.3h-.4c-.3,0-.5-.3-.5-.6v-.9c-.3.2-.6.3-.9.4h0c-1.7,2.1-3.1,2.5-4,1.9-.8-.8-1.3-1.9-1.2-3h0c-.2,0-.4,0-.6-.2,0,0-.2,0-.3-.2-.2.2-.4.4-.6.7h0c-.2.2-.4.2-.7.2-.4,0-.5-.6-.4-.9h0c0-.3.2-.5.3-.7h0s0,0,.2-.2h0M1137.8,585c.2,0,.4-.3.6-.4.4-1,1-1.9,1.7-2.7h0c0-.3.2-.5.2-.7.2-.5.3-1,.4-1.3-1.3,0-2.3,1.6-2.8,3.4-.2.6-.3,1.2-.4,1.8M1139.1,586.8c0,.3,0,.5,0,.8.7-.2,1.2-.6,1.6-1.2,0-.2.2-.4.3-.7-.7.7-1.3,1.1-1.7,1.1h-.1ZM1147.8,576.8c-.3.6-.7,1.2-1.2,1.8.7-.7,1.4-1.5,2-2.3,1-1.2,1.9-2.6,2.6-4-1.2,1.4-2.4,2.9-3.5,4.4M1146.7,584.2s-.2.2-.2.3h0c-.4.8-.8,1.6-1,2.4,0-.2.3-.3.4-.4.2-.2.5-.4.8-.6.5-.8.9-1.6,1.3-2.4-.2,0-.5,0-.7.2s-.3.4-.5.6M1146.4,582.4c.9-1,1.8-2.2,2.4-3.4-.9.7-1.7,1.6-2.3,2.6-.4.6-.7,1.2-1.1,1.8.3-.4.6-.7.9-1M1146.7,587.8c-.3.4-.7.7-1.2.9-.2.3-.4.6-.6,1h0c0,.6,0,1,.3,1.1s.5,0,1-.5c0,0,0-.2,0-.4.3-.5.8-1,1.3-1.4.3-.4.6-.8.9-1.4,0,0,0-.2,0-.3h0s-.2,0-.3,0c-.3,0-.6,0-.9.2-.2.3-.5.6-.8.9M1144.4,592.1c0,0-.2-.2-.3-.3,0,.2,0,.4-.2.6.3,0,.5,0,.8,0,0,0-.2,0-.3,0M1149.2,589.5c0,0,.2-.2.3-.3-.3,0-.6.2-.9.4h.6M1149.7,590.8c-.4.4-.9.7-1.4,1.1,1-.3,2-.6,3.1-.8,1.4-.3,2.8-.7,3.9-1.1.2,0,.3-.2.5-.3-.8.2-1.6.3-2.4.5-1.3.2-2.6.5-3.8.6M1149.9,593c-.8.2-1.5.4-2.2.6.7,0,1.5-.4,2.2-.6"/>
  <path id="Path_2366" class="st1" d="M1057.9,543.3c1.2,2,4.4,9.6,5.6,11.7-1,0-13.4-14.6-19.6,1.5-1.7-5.4-5.1-12.4-11.6-11.7-8.2.9-8.9,5.7-11.8,8.4,0-16.1-18.7-5-22.7,3.5-2.3,5-5.4,8.4-6.5,10.3-1.9-6.3-4.7-22.7-11.7-20.3-2.9,1.3-5.6,3.1-7.9,5.4,2.6-20-20.2-7-22.1-2.6-9.5-18.7-22,4.2-21.9,4.5-4-8.3,2.4-27.8,11.4-34.2,9.5-6.8,18-12.9,31-9.5,7.5,2,11.2,14.8,14.8,18,3.8,3.3,8.5,0,9.6-3.5.9-2.6,2.2-9.2,3-11.1.2.7,3.8,7.4,6.4,7,6.9-3.1,5.5-5.3,7.1-6.2,1.1.8-.5,14.4-1,17.1,11.4-3.8,29.4-20.6,48,11.7"/>
  <path id="Path_2371" class="st5" d="M1009,727.7h0c6.4-1.7,13.7,3.9,13.6,10.6s-7.3,12.2-13.7,10.4c-10.4-2.9-10.3-18.3,0-21"/>
  <path id="Path_2372" class="st3" d="M1016,735.6c2.1,2.5.9,6.9-2.2,8-1.3.4-.8,2.5.5,2,3.8-1.4,5.8-5.7,4.3-9.5-.3-.7-.6-1.4-1.1-2-.9-1-2.4.4-1.5,1.4"/>
  <path id="Path_2374" class="st4" d="M843.6,188l5.5-25.6,20.4-5.5-20.4-5.5-5.5-25.6-5.5,25.6-20.4,5.5,20.4,5.5,5.5,25.6Z"/>
</svg>