<?xml version="1.0" encoding="UTF-8"?>
<svg id="Layer_1" xmlns="http://www.w3.org/2000/svg" width="1214" height="813" version="1.1" xmlns:xlink="http://www.w3.org/1999/xlink" viewBox="0 0 1214 813">
  <!-- Generator: Adobe Illustrator 29.2.1, SVG Export Plug-In . SVG Version: 2.1.0 Build 116)  -->
  <defs>
    <style>
      .st0 {
        fill: #ed6927;
      }

      .st1 {
        fill: #fff;
      }

      .st2 {
        fill: #5f4f98;
      }

      .st3 {
        fill: #9eb04c;
      }

      .st4 {
        fill: #1f1424;
      }

      .st5 {
        fill: #fcf5ec;
      }

      .st6 {
        fill: #e64c17;
      }
    </style>
  </defs>
  <path id="Path_2358" class="st3" d="M22.7,757.8h0c2.3-9.4,14.4-14.8,22.9-10.2s10.5,17.8,3.9,24.8c-10.8,11.4-30.5.6-26.8-14.6"/>
  <path id="Path_2359" class="st1" d="M37.6,754.2c4.6-.9,9.5,3.6,8.7,8.3-.3,1.9,2.6,2.8,2.9.8,1.1-7-5.4-13.5-12.4-12-1.9.4-1.1,3.3.8,2.9"/>
  <path id="Path_2361" class="st5" d="M209,702.1l18-10.8-21,.3-12.2-23,1.7,26-18,10.8,21-.3,12.2,23-1.7-26Z"/>
  <path id="Path_2362" class="st2" d="M118,319.6l20.9-2,14.1,21.9-3.9-25.8,17.1-12.3-20.9,2-14.1-21.9,3.9,25.8s-17.1,12.3-17.1,12.3Z"/>
  <path id="Path_2367" class="st0" d="M1194.8,723.5c-5.2-.2-9.5,3.9-9.7,9s3.9,9.5,9,9.7c5.2.2,9.5-3.9,9.7-9,.2-5.2-3.8-9.5-9-9.7h0M1197.9,729.1c-.5.9-1.6,1.2-2.5.6-.6-.3-1.2-.4-1.9-.2-.9.5-1.6,1.3-2,2.3-.3.7-1.1,1.2-1.8,1.1-.2,0-.4,0-.6-.2-.9-.4-1.4-1.5-.9-2.4h0c.7-2,2.3-3.6,4.3-4.3,1.6-.5,3.4-.3,4.8.6.9.5,1.2,1.7.6,2.5h0"/>
  <path id="Path_2368" class="st6" d="M1197.2,726.6c-1.5-.8-3.2-1-4.8-.6-2,.7-3.5,2.3-4.3,4.3-.4.9,0,2,.9,2.4.2,0,.4,0,.6.2.8,0,1.5-.4,1.8-1.1.3-1,1-1.8,2-2.3.6-.2,1.3,0,1.9.2.9.5,2,.2,2.5-.6s.2-2-.6-2.5h0"/>
  <path id="Path_2369" class="st3" d="M1069,609.5h0c-5.3,9-19.6,10.8-26.9,3.4s-5.4-21.7,3.7-26.9c14.8-8.4,31.7,8.9,23.2,23.5"/>
  <path id="Path_2370" class="st1" d="M1052.5,608.2c-4.7-.4-8.2-6.4-6.1-10.6.6-1,.3-2.2-.6-2.9-1-.6-2.3-.3-2.9.6-3.5,7.1,1.5,16.4,9.5,17,2.7.2,2.9-4,.2-4.2"/>
  <path id="Path_2373" class="st4" d="M1185.9,706.2c-1.3-7.5,1-15.1,6.2-20.6,4.4-4.7,22.2-9.8,21.6-9.9-11.8-1.4-28.4-4.3-39.6-8.2-2-.7-4.1-1.4-6-.9-1,.3-2,.9-2.9,1.5-10.3,6.9-21.7,13.4-34,13.1-1.5,0-2.9-.4-4.3-.9-.5,0-.8-.7-.6-1.1h0c1.4-3.2,1.7-6.7,1-10.1l6.3-18.4c.3-.9-15.5,6.6-15.5,6.6-.3.2-.7.2-1,0-3.2-1.3-6.7-1.6-10-.9-.4,0-.7,0-1-.3,0,0-14-11.2-13.9-10.3l2.2,21.7c-.8,2.5-.9,5.1-.4,7.7,0,.5-.2,1-.7,1.1h0c-1.5,0-2.9,0-4.4,0-12.1-2.5-21.7-11.4-30.2-20.4-.7-.8-1.5-1.5-2.4-2.1-1.8-1-4-.8-6.1-.5-11.8,1.3-28.6.3-40.4-1-.6,0,14.1,5.1,18.8,14.5,3.3,6.7,4.4,14.7,1.4,21.4-.2.5,9.6-4.3,19.6,1.5,5.8,3.5,8.7,10.3,7.3,16.8,0,.5,5-3.9,11-5.3,7.7-1.8,16.6.8,18.8,9.1,1.1,4.2-1.5,12.2-2.4,12.1,0,0,16.4,2.2,20.1,16.4h0c6.4-13.1,22.5-12,22.5-12-1.6-4.3-1.8-9.2.4-13.3,3.7-7,11-6.9,17.7-4,6.5,2.9,10.7,8.8,10.7,8.3,0-6.5,4.7-12.7,10.9-14.8,6.2-2.1,19.6,3.5,19.5,3"/>
</svg>