<svg xmlns="http://www.w3.org/2000/svg" xmlns:xlink="http://www.w3.org/1999/xlink" width="61.377" height="50.401" viewBox="0 0 61.377 50.401">
  <defs>
    <clipPath id="clip-path">
      <rect id="Rectangle_115" data-name="Rectangle 115" width="61.377" height="50.401" fill="none"/>
    </clipPath>
  </defs>
  <g id="Group_211" data-name="Group 211" transform="translate(0 0)">
    <g id="Group_210" data-name="Group 210" transform="translate(0 0)" clip-path="url(#clip-path)">
      <path id="Path_2349" data-name="Path 2349" d="M60.7,21.735a6.377,6.377,0,0,0,.18-3.11c-.074-.19-.1-.3-.18-.537a4.439,4.439,0,0,0,.025-2.616,3.6,3.6,0,0,0-.945-1.18,3.753,3.753,0,0,0-.864-.63,6.561,6.561,0,0,0-.957-.4c-.112-.03-.23-.075-.343-.1a8.4,8.4,0,0,0-.97-.22,11.955,11.955,0,0,0-1.3-.165c-.145-.017-.289-.03-.435-.039l.263-.228c.049,0,.116-.012.172-.012a6.1,6.1,0,0,0,1.3-.114,2.4,2.4,0,0,0,.97-.4,2.186,2.186,0,0,0,.343-.317,1.091,1.091,0,0,0,.125-.189.923.923,0,0,0,.049-.837.67.67,0,0,0-.174-.287.777.777,0,0,0-.343-.187.917.917,0,0,0-.187-.02,2.2,2.2,0,0,0-.784.143,3.95,3.95,0,0,0-1.3.929c-.182.187-.353.384-.515.547L54,11.826l-.185.02-.777.054.777-.987.041-.06A.989.989,0,0,1,54,10.838a12.9,12.9,0,0,0,1.35-.2,2.324,2.324,0,0,0,1.29-.671l.009-.01a1.023,1.023,0,0,0,.123-1.124c-.041-.043-.083-.07-.123-.114a1.119,1.119,0,0,0-1.3-.092,3.522,3.522,0,0,0-.538.341A10.662,10.662,0,0,0,54,9.69l-.185.191c-.121.121-.241.233-.34.35l-.691.071-1.064.1.746-.852c.11-.022.215-.045.317-.061a5.079,5.079,0,0,0,1.031-.252c0-.009.011-.009.011-.009.03-.006.1-.04.174-.059a3.138,3.138,0,0,0,.691-.353,1.184,1.184,0,0,0,.5-1.474,1.057,1.057,0,0,0-.682-.373,1.939,1.939,0,0,0-.514.1,1.587,1.587,0,0,0-.185.071,3.045,3.045,0,0,0-1.031.775c-.28.308-.518.63-.767.884l-.37-.057-.67-.093L50.4,8.56a4.947,4.947,0,0,0-.238-2.075c-.031-.083-.061-.158-.089-.231a4.278,4.278,0,0,0-.806-1.161,4.654,4.654,0,0,0-.94-.722,6,6,0,0,0-.8-.379,6.146,6.146,0,0,0-1.146-.307c-.244-.024-.5-.052-.76-.065h-.265a7.453,7.453,0,0,0-.786.048,6.006,6.006,0,0,0-.859.182l-.115.021a7.678,7.678,0,0,0-1.026.378,10.1,10.1,0,0,0-1,.512,16.276,16.276,0,0,0-2,1.432c-.195.159-.367.313-.546.457-.112.092-.224.184-.333.277l.129.887c.072-.051.134-.116.2-.167.188-.156.373-.308.546-.461a24.419,24.419,0,0,1,2-1.519c.326-.205.646-.4,1-.575A10.09,10.09,0,0,1,43.6,4.652c.043-.014.076-.033.115-.043s.1-.03.134-.037a3.362,3.362,0,0,1,.725-.17,5.56,5.56,0,0,1,1.051-.051,5.659,5.659,0,0,1,.76.106,5.138,5.138,0,0,1,1.124.337c0,.011.013.011.021.011a4.11,4.11,0,0,1,.8.466,3.394,3.394,0,0,1,.94,1.038,3.322,3.322,0,0,1,.381,2.085l-.381-.137L48.778,8.1a2.932,2.932,0,0,0-.454-1.221,3.252,3.252,0,0,0-.309-.4c-.163-.093-.3-.236-.486-.371a1.4,1.4,0,0,0-.249-.144,5.106,5.106,0,0,0-.9-.311,6.149,6.149,0,0,0-.76-.14,5.946,5.946,0,0,0-1.051-.035,4.988,4.988,0,0,0-.859.114c-.039.008-.072.021-.115.03a3.551,3.551,0,0,0-1.026.456,2.9,2.9,0,0,0-1,1.06c-.046.1-.09.176-.13.269a2.5,2.5,0,0,0,0,1.568c.04.1.084.2.13.289a3.013,3.013,0,0,0,1,1.093,4.39,4.39,0,0,0,1.026.523.364.364,0,0,0,.115.043,6.111,6.111,0,0,0,.859.238,8.559,8.559,0,0,0,1.051.141c.258.014.516.024.76.014A5.556,5.556,0,0,0,47,11.269c.187-.028.364-.072.533-.112a4.771,4.771,0,0,0,.8-.311,4.536,4.536,0,0,0,.94-.6c.135-.108.266-.236.4-.362a4.167,4.167,0,0,0,.4-.4c.04-.056.089-.118.143-.2l.761.078.591.063c-.291.37-.435.578-.591.8-.07.081-.142.171-.234.289-.218.04-.456.09-.669.143s-.417.1-.589.131a1.564,1.564,0,0,1-.217.06,4.082,4.082,0,0,0-.881.388c-.016.01-.039.028-.059.041a1,1,0,0,0-.589.854.945.945,0,0,0,.427.764,1.555,1.555,0,0,0,.162.074,1.417,1.417,0,0,0,.94-.041.2.2,0,0,1,.072-.033,2.979,2.979,0,0,0,.733-.534c.213-.216.408-.455.607-.669a2.372,2.372,0,0,0,.3-.322.725.725,0,0,1,.205-.185l.465-.054,1.137-.142.081-.01-.081.112-.568.828a5.408,5.408,0,0,0-.569.124,4.437,4.437,0,0,0-.67.194,3.315,3.315,0,0,0-.9.494,1.565,1.565,0,0,0-.386.451.9.9,0,0,0,.386,1.208.906.906,0,0,0,.761.081c.04-.02.093-.039.142-.057a2.051,2.051,0,0,0,.67-.468,15.392,15.392,0,0,0,1.042-1.369h.1l1.031-.085L54,12.476l.34-.02-.288.361c-.019,0-.032.008-.052.008a1.957,1.957,0,0,1-.185.063,5.16,5.16,0,0,0-1.031.391,1.4,1.4,0,0,0-.127.067,3,3,0,0,0-1.011.82,1.034,1.034,0,0,0-.187,1.062.914.914,0,0,0,.187.22,1.016,1.016,0,0,0,1.137.063,2.19,2.19,0,0,0,.556-.385c.176-.224.32-.463.475-.7.063-.115.124-.215.185-.319a8.048,8.048,0,0,1,.514-.759c.328,0,.562,0,.836.019l.3.027a6.724,6.724,0,0,1,1,.13,4.752,4.752,0,0,1,.632.139,3.627,3.627,0,0,1,.338.138c.113.04.231.089.343.13a5.727,5.727,0,0,1,.957.507A.535.535,0,0,1,59,14.5a3.141,3.141,0,0,1,1.091,1.235,1.948,1.948,0,0,1,.074,1.412,2.676,2.676,0,0,0-.885-.711c-.019-.074-.052-.021-.052-.12a2.82,2.82,0,0,0-.31-.738,1.035,1.035,0,0,1-.07-.109,2.4,2.4,0,0,0-.887-.717c-.112-.048-.23-.1-.343-.146a4.407,4.407,0,0,0-.97-.2,3.106,3.106,0,0,0-.593-.014,2.113,2.113,0,0,0-.705.227,2.178,2.178,0,0,0-1.073,1.116,3.358,3.358,0,0,0-.018,1.8,3.6,3.6,0,0,0,1.091,1.5,3.724,3.724,0,0,0,.93.538c.132.044.253.084.368.113a7.27,7.27,0,0,0,.97.167c.1.011.208.011.311.021.008,0,.019-.01.032-.01a3.791,3.791,0,0,0,.957-.262h.012a3.773,3.773,0,0,0,1.214-.881,4.831,4.831,0,0,1,.1,2.276l-.064.219a3.733,3.733,0,0,0-1.259-.341,2.237,2.237,0,0,0-.3-.013,2.422,2.422,0,0,0-.66.187,1.646,1.646,0,0,0-.343.2,1.46,1.46,0,0,0-.317.342,1.2,1.2,0,0,0,.153,1.166c.054.051.108.092.165.142.052.033.1.065.165.107.066.019.114.043.178.059a2.262,2.262,0,0,0,.957.054,2.4,2.4,0,0,0,1.4-.708,3.573,3.573,0,0,1,.257,2.565,29.8,29.8,0,0,1-1.661,3.154,3.716,3.716,0,0,0-.3,1.462,1.989,1.989,0,0,0,.174.7c.04.065.079.123.123.183a1.045,1.045,0,0,0,1.859-.143,1.415,1.415,0,0,0,.03-1.166.454.454,0,0,0-.395-.051c-.191.1-.172.472-.191.681-.2.618-.456.536-.83.236a1.672,1.672,0,0,1,.042-1.34c.507-1.586,1.8-2.835,1.948-4.652v-.79a3.307,3.307,0,0,0-.68-1.531M56.644,10.993c.361-.261.712-.4.883-.14.212.4-.316.708-.883.848a2.331,2.331,0,0,1-.916.106,5.705,5.705,0,0,1,.916-.813M55.345,9.3c.319-.214.651-.344.868-.124.194.454-.321.684-.868.8a5.953,5.953,0,0,1-.9.131,9.6,9.6,0,0,1,.9-.812M53.81,7.888c.063-.042.124-.08.185-.113a.515.515,0,0,1,.564-.06c.1,0,.044.245.025.295A1.431,1.431,0,0,1,54,8.486c-.061.029-.122.063-.185.094a3.649,3.649,0,0,1-.812.2,2.686,2.686,0,0,1,.812-.89M49.263,9.207a3.225,3.225,0,0,1-.94.761,3.664,3.664,0,0,1-.8.355,4.969,4.969,0,0,1-1.146.246,6.552,6.552,0,0,1-.76.021,4.094,4.094,0,0,1-1.051-.155.048.048,0,0,1-.033-.009,8.457,8.457,0,0,1-.826-.322c-.039-.006-.072-.032-.115-.036a3.223,3.223,0,0,1-1.026-.705.565.565,0,0,1-.087-.1,1.5,1.5,0,0,1-.256-1.731,2.588,2.588,0,0,1,.344-.456A2.445,2.445,0,0,1,43.6,6.393a.459.459,0,0,1,.115-.04,3.389,3.389,0,0,1,.859-.159c.134-.008.265-.008.4-.008.227.031.445.053.653.082a5.293,5.293,0,0,1,.76.165,5.134,5.134,0,0,1,.818.331,2.2,2.2,0,0,1,.328.28,1.505,1.505,0,0,1,.433.77c-.133-.04-.284-.093-.433-.133a8.244,8.244,0,0,0-1.146-.319,3.478,3.478,0,0,0-.76-.059,1.662,1.662,0,0,0-1.044.4c-.007,0-.007.016-.007.016a1.159,1.159,0,0,0,0,1.867,1.65,1.65,0,0,0,.319.22,2.922,2.922,0,0,0,.731.23,3.37,3.37,0,0,0,.76.066,3.108,3.108,0,0,0,1.033-.236.638.638,0,0,0,.112-.06,2.786,2.786,0,0,0,.8-.581,1.97,1.97,0,0,0,.269-.309l.671.192.072.024c-.028.025-.052.059-.072.079m-1.455-.628a3.494,3.494,0,0,1-.28.282,1.943,1.943,0,0,1-1.146.447,2.276,2.276,0,0,1-.76-.1,1.642,1.642,0,0,1-.559-.317c-.306-.417.156-.766.517-.789.013,0,.031-.008.042-.008a4.453,4.453,0,0,1,.76.074,7.279,7.279,0,0,1,1.146.307,2.3,2.3,0,0,1,.28.105m2.26,2.825a2.669,2.669,0,0,1-.806.774c-.339.2-.66.278-.792.12-.256-.36.255-.616.792-.768.326-.1.66-.165.806-.2.018,0,.04-.009.051-.009-.023.032-.033.059-.051.083m1.573,1.4a4.752,4.752,0,0,1-.67.847.684.684,0,0,1-.469.185c-.158,0-.229-.152-.229-.315a1.228,1.228,0,0,1,.7-.608,4.766,4.766,0,0,1,.67-.149h.021c-.006.006-.006.028-.021.04m1.137,1.9-.074.1c-.238.229-.683.282-.608-.145A1.408,1.408,0,0,1,52.779,14c.218-.1.462-.185.691-.291Zm6.135,4.154a1.29,1.29,0,0,1-.154.071,2.208,2.208,0,0,1-.8.223c-.112.01-.23.028-.343.028a3.032,3.032,0,0,1-.97-.16c-.039-.006-.073-.03-.115-.039a3.779,3.779,0,0,1-1.184-.97c-.114-.151-.229-.311-.337-.474a1.887,1.887,0,0,1,.108-1.758,1.135,1.135,0,0,1,.229-.3,2.089,2.089,0,0,1,1.062-.437,1.292,1.292,0,0,1,.236.014,2.535,2.535,0,0,1,.97.286c.125.076.238.149.343.229a2.476,2.476,0,0,1,.2.2.253.253,0,0,1,.022.1c-.075-.019-.146-.025-.227-.05-.112-.01-.23-.03-.343-.038a2.8,2.8,0,0,0-.97.028,3.817,3.817,0,0,0-.368.134,1.075,1.075,0,0,0-.452.82,1.87,1.87,0,0,0,.658,1.356,1.455,1.455,0,0,0,.163.125,2.124,2.124,0,0,0,.97.284c.113,0,.231,0,.343-.008a1.711,1.711,0,0,0,.4-.081,2.445,2.445,0,0,0,.553-.443,1.075,1.075,0,0,0,.343-.661,1.865,1.865,0,0,1,.627.525,1.764,1.764,0,0,1-.97.982m-.3-2a.945.945,0,0,1-.4.765.725.725,0,0,1-.258.132.984.984,0,0,1-.343.03,1.182,1.182,0,0,1-.443-.11,1.7,1.7,0,0,1-.527-.606.613.613,0,0,1-.029-.156.756.756,0,0,1,.029-.216c.1-.243.361-.257.672-.257.094.01.2.01.3.031a1.851,1.851,0,0,1,.343.059,1.546,1.546,0,0,1,.66.33m.3,5.583a1.732,1.732,0,0,1-.806-.071.669.669,0,0,1-.151-.128.283.283,0,0,1,0-.343,1.228,1.228,0,0,1,.957-.419,2.554,2.554,0,0,1,1.009.346,1.355,1.355,0,0,1-1.009.615M28.234,1.6a1.383,1.383,0,0,1-.048-.319,1.981,1.981,0,0,1,.048-.428A1.022,1.022,0,0,1,29.04.083c.072-.011.146-.021.231-.037a.847.847,0,0,1,.914.708l-.423.021a.516.516,0,0,0-.544-.333.453.453,0,0,0-.178.036c-.206.08-.423.3-.387.808a.739.739,0,0,0,.387.642.548.548,0,0,0,.824-.485l-.514.019-.022-.375.887-.056L30.3,2.218l-.288.03-.04-.259a.882.882,0,0,1-.929.361,1.089,1.089,0,0,1-.806-.747m4.892.9-.283-.085.283-.98L33.464.288l.63.179.823.223.1.03-.1.373-.01.045L34.094.894,33.775.8l-.137.483.456.127.577.165-.1.331-.473-.134-.56-.146L33.4,2.2l.7.2.454.134-.114.337-.34-.091Zm1.7.463.1.041.918.422a.723.723,0,0,0,.424.076.672.672,0,0,0,.457-.95.612.612,0,0,0-.038-1.167l-.419-.206L35.784.959l-.866,1.815Zm1.21-1.455.227.09.214.1a.269.269,0,1,1-.149.518l-.065-.036-.424-.193Zm-.364.808.58.288h.011c.124.072.1.275,0,.392a.255.255,0,0,1-.281.038l-.536-.227Zm-4.423-.931.472.021.01.014c.52.017.14.564.315.9l.422.018.075.012v-.1a.117.117,0,0,1-.075-.091.528.528,0,0,1,0-.209,1.583,1.583,0,0,0,0-.442.358.358,0,0,0-.217-.238.673.673,0,0,0,.217-.132.676.676,0,0,0,0-.89A.527.527,0,0,0,32.124.1L31.718.072,30.868,0,30.7,2.218l.468.03ZM31.3.441l.419.036L31.936.5c.382.018.236.545-.086.533l-.132-.01-.447-.012ZM26.77,2.368l.311-.09.461-.147.293.4.4-.117.053-.017-.053-.073L27.081.658,26.945.467,26.41.62l-.1,2.349.432-.136Zm.084-1.283.227.34.257.379-.257.078-.261.076Zm-3,.957L23.7,1.679l1.509-.672h.01l.157.333-.167.649-.3,1.157.3-.136.734-.328.028.073.125.286-.125.065-.762.34-.608.264-.188-.357.448-1.776ZM2.466,23.211a2.289,2.289,0,0,0,.918-.03c.072-.022.142-.052.219-.076a1.912,1.912,0,0,0,.162-.123,1.1,1.1,0,0,0,.163-.13A1.19,1.19,0,0,0,4.086,21.7a1.408,1.408,0,0,0-.321-.35,2.093,2.093,0,0,0-.381-.215,1.915,1.915,0,0,0-.624-.167c-.1-.01-.193,0-.295,0a4.1,4.1,0,0,0-1.269.353l-.05-.218a4.7,4.7,0,0,1,.09-2.291,3.753,3.753,0,0,0,1.216.9h.012a4.819,4.819,0,0,0,.918.249c.017,0,.037.008.063.008a3.113,3.113,0,0,0,.318-.019,6.94,6.94,0,0,0,.969-.17c.114-.028.24-.059.363-.1a4.024,4.024,0,0,0,.928-.536,3.633,3.633,0,0,0,1.1-1.5,3.418,3.418,0,0,0-.018-1.813,2.206,2.206,0,0,0-1.082-1.1,2.1,2.1,0,0,0-.7-.242,3.33,3.33,0,0,0-.589.028,3.233,3.233,0,0,0-.969.2,2.3,2.3,0,0,0-.381.156,2.309,2.309,0,0,0-.851.7.717.717,0,0,0-.067.112,2.8,2.8,0,0,0-.31.727c0,.1-.029.051-.051.12a2.839,2.839,0,0,0-.887.711,1.976,1.976,0,0,1,.073-1.409A3.187,3.187,0,0,1,2.383,14.58a.179.179,0,0,1,.083-.053,5.578,5.578,0,0,1,.918-.492c.125-.05.262-.106.381-.161a2.229,2.229,0,0,0,.341-.131c.216-.056.424-.1.627-.143a6.505,6.505,0,0,1,.989-.116,2.881,2.881,0,0,1,.3-.028c.277-.02.514-.02.845-.02a8.505,8.505,0,0,1,.576.872c.042.062.082.135.122.2.149.238.3.474.475.7A2.253,2.253,0,0,0,8.6,15.6a1.068,1.068,0,0,0,1.05,0,.844.844,0,0,0,.255-.282,1.077,1.077,0,0,0-.255-1.174,3.063,3.063,0,0,0-.93-.708.509.509,0,0,0-.12-.072,5.686,5.686,0,0,0-1.036-.392,1.179,1.179,0,0,0-.122-.034c-.028-.006-.07-.022-.112-.032l-.291-.369.4.03.122.012,1.036.082.09.011c.31.388.586.876.96,1.276a2.391,2.391,0,0,0,.752.56.715.715,0,0,0,.143.048.877.877,0,0,0,.651-.019.909.909,0,0,0,.5-1.27,1.685,1.685,0,0,0-.5-.525,2.927,2.927,0,0,0-.795-.412,6.786,6.786,0,0,0-.752-.225c-.176-.044-.339-.075-.5-.1L8.6,11.189l-.087-.124.087.009,1.05.132.547.075a.607.607,0,0,1,.205.176,1.783,1.783,0,0,0,.3.318c.157.187.325.383.5.556a2.679,2.679,0,0,0,.844.654.155.155,0,0,1,.07.028,1.476,1.476,0,0,0,.8.085.908.908,0,0,0,.291-.113.975.975,0,0,0,.43-.755,1.065,1.065,0,0,0-.655-.9c-.022-.009-.044-.033-.066-.04a2.95,2.95,0,0,0-.8-.337c-.07-.028-.141-.041-.213-.064-.205-.044-.456-.1-.7-.165-.188-.042-.371-.084-.56-.114-.091-.114-.164-.208-.234-.3-.166-.213-.3-.412-.589-.8l.589-.061.755-.071c.021.01.024.034.04.05a4.261,4.261,0,0,0,.914.932,5.806,5.806,0,0,0,.8.489,4.941,4.941,0,0,0,.886.377c.2.051.4.1.577.135.139.01.273.015.406.032a1.688,1.688,0,0,1,.2.008c.231,0,.472,0,.718-.024a5.444,5.444,0,0,0,.958-.112,6.482,6.482,0,0,0,.96-.245,4.693,4.693,0,0,0,1.031-.485,3.55,3.55,0,0,0,.995-.925,4.437,4.437,0,0,0,.283-.549,2.536,2.536,0,0,0,0-1.571,3.758,3.758,0,0,0-.283-.525,2.968,2.968,0,0,0-.995-.9,4,4,0,0,0-1.031-.395,4.659,4.659,0,0,0-.96-.12A7.418,7.418,0,0,0,15.7,5.6c-.246.046-.487.081-.718.147a.936.936,0,0,0-.2.052,6.421,6.421,0,0,0-.691.246,1.869,1.869,0,0,0-.293.176,3.158,3.158,0,0,1-.441.339,3.085,3.085,0,0,0-.445.622A2.976,2.976,0,0,0,12.6,8.186l-.489.162-.389.126a3.345,3.345,0,0,1,.389-2.081,3.494,3.494,0,0,1,.8-.936,4.476,4.476,0,0,1,.886-.552.111.111,0,0,0,.064-.02,5.8,5.8,0,0,1,.919-.3c.07-.019.132-.029.2-.052.246-.042.484-.073.718-.092a5.349,5.349,0,0,1,.958.019,5.948,5.948,0,0,1,.864.187c.034.008.069.02.1.028a10.357,10.357,0,0,1,1.031.434,9.85,9.85,0,0,1,.995.551,18.03,18.03,0,0,1,2.026,1.514c.291.232.569.47.868.717l.132-.887c-.3-.234-.627-.523-1-.822a15.4,15.4,0,0,0-2.026-1.425,10.459,10.459,0,0,0-.995-.5,9.732,9.732,0,0,0-1.031-.345,5.708,5.708,0,0,0-.96-.18c-.216-.017-.421-.042-.636-.042-.116,0-.213.01-.322.01a6.153,6.153,0,0,0-.718.073c-.065.013-.128.022-.2.033a7.524,7.524,0,0,0-.983.278,5.553,5.553,0,0,0-.886.445,4.657,4.657,0,0,0-.8.641,4.019,4.019,0,0,0-.9,1.394c-.007.014-.007.026-.017.035a5.033,5.033,0,0,0-.215,2.035l-.579.079-.752.114-.3.039C9.1,8.621,8.868,8.3,8.6,8a2.886,2.886,0,0,0-1.036-.77.435.435,0,0,0-.122-.052,1.938,1.938,0,0,0-.576-.115c-.283.086-.56.134-.68.375a1.15,1.15,0,0,0,.5,1.462,3.076,3.076,0,0,0,.753.379c.051.011.082.028.115.036h.007A4.372,4.372,0,0,0,8.6,9.583c.09,0,.2.03.314.049l.736.853.012.012H9.654l-1.05-.11-.7-.075c-.1-.112-.218-.226-.341-.342-.04-.039-.08-.084-.122-.12a9.819,9.819,0,0,0-.879-.785,2.912,2.912,0,0,0-.543-.342,1.094,1.094,0,0,0-1.291.093c-.038.031-.082.076-.123.114a.964.964,0,0,0,.123,1.111v.015a2.283,2.283,0,0,0,1.291.669,12.461,12.461,0,0,0,1.421.2.147.147,0,0,0,.082.017l.04.061.779.989-.779-.063-.122-.007-.907-.066c-.154-.174-.329-.357-.514-.544a3.6,3.6,0,0,0-1.291-.926,2.089,2.089,0,0,0-.784-.156.574.574,0,0,0-.185.031.688.688,0,0,0-.381.213.666.666,0,0,0-.143.258,1,1,0,0,0,.046.837c.033.042.067.1.1.132a1.919,1.919,0,0,0,.381.377,2.572,2.572,0,0,0,.969.388,5.651,5.651,0,0,0,1.291.125H6.21l.256.234c-.145.012-.288.028-.441.031-.415.043-.86.094-1.291.167-.329.063-.648.136-.969.229-.118.028-.256.072-.381.114a5.424,5.424,0,0,0-.918.389,4.24,4.24,0,0,0-.875.618,3.612,3.612,0,0,0-.929,1.188,4.491,4.491,0,0,0,.021,2.622c-.076.235-.1.334-.178.527a6.064,6.064,0,0,0,.178,3.118A3.1,3.1,0,0,0,0,23.344v.807C.15,25.966,1.437,27.213,1.949,28.8a1.68,1.68,0,0,1,.043,1.336c-.381.3-.63.379-.83-.246-.015-.205,0-.577-.2-.686a.437.437,0,0,0-.385.06,1.381,1.381,0,0,0,.028,1.162,1.043,1.043,0,0,0,1.86.153c.04-.063.081-.122.124-.194a1.912,1.912,0,0,0,.171-.7,3.933,3.933,0,0,0-.295-1.456C2.017,27.14,1.162,26.274.8,25.067a3.612,3.612,0,0,1,.263-2.56,2.3,2.3,0,0,0,1.4.7m0-1.641a1.229,1.229,0,0,1,.918.373.3.3,0,0,1,0,.427.488.488,0,0,1-.114.087,1.483,1.483,0,0,1-.8.058,1.345,1.345,0,0,1-1.018-.591,2.576,2.576,0,0,1,1.018-.354m-.339-4.124a1.046,1.046,0,0,0,.339.661,2.156,2.156,0,0,0,.549.439,2.241,2.241,0,0,0,.369.078,1.506,1.506,0,0,0,.381.008,1.941,1.941,0,0,0,.969-.279c.048-.043.1-.085.158-.126a1.853,1.853,0,0,0,.655-1.359,1.014,1.014,0,0,0-.45-.818,2.028,2.028,0,0,0-.363-.132,3.106,3.106,0,0,0-.969-.042c-.131.023-.256.034-.381.067-.063.01-.127.017-.187.028a.234.234,0,0,1,.022-.1,1.2,1.2,0,0,1,.165-.165,1.827,1.827,0,0,1,.381-.256,2.7,2.7,0,0,1,.969-.3c.072,0,.158-.01.24-.01a2.045,2.045,0,0,1,1.051.441,1.2,1.2,0,0,1,.238.288,1.9,1.9,0,0,1,.1,1.764,3.6,3.6,0,0,1-.335.465,3.947,3.947,0,0,1-1.177.979c-.042.011-.086.021-.114.032a3.2,3.2,0,0,1-.969.15,2.392,2.392,0,0,1-.381-.021,2.433,2.433,0,0,1-.776-.214.9.9,0,0,0-.143-.069,1.771,1.771,0,0,1-.97-.994,1.96,1.96,0,0,1,.631-.514m.633-.493a1.423,1.423,0,0,1,.624-.319,2.207,2.207,0,0,1,.381-.083l.291-.034c.315,0,.574.034.677.263A.7.7,0,0,1,4.762,17a.614.614,0,0,1-.028.145,1.672,1.672,0,0,1-.525.622,1.516,1.516,0,0,1-.444.108.915.915,0,0,1-.381-.042.723.723,0,0,1-.218-.122.97.97,0,0,1-.406-.762M8.6,14.1a1.374,1.374,0,0,1,.676.651c.074.419-.371.37-.608.155L8.6,14.788l-.7-.989c.226.1.467.187.7.3m1.8-1.1a1.225,1.225,0,0,1,.7.611c0,.157-.072.319-.229.319a.7.7,0,0,1-.472-.2,4.331,4.331,0,0,1-.7-.876,3.844,3.844,0,0,1,.7.143m1.709-1.388a1.536,1.536,0,0,1,.8.435.242.242,0,0,1,0,.319c0,.006-.013.017-.013.017-.126.17-.45.084-.792-.12a2.47,2.47,0,0,1-.853-.85c.1.028.472.088.853.2m0-2.415L12.78,9c.048.064.092.117.139.178a3.039,3.039,0,0,0,.886.7c.052.018.1.049.158.068a2.488,2.488,0,0,0,.826.217c.07,0,.132.008.2.008a3.314,3.314,0,0,0,.718-.035,3.652,3.652,0,0,0,.786-.24c.059-.036.113-.073.172-.111A1.189,1.189,0,0,0,16.8,7.8a.856.856,0,0,0-.135-.117,1.714,1.714,0,0,0-.958-.288,3.35,3.35,0,0,0-.718.061c-.065.009-.128.028-.2.038-.335.075-.662.189-.983.282a2.785,2.785,0,0,1-.39.12,1.508,1.508,0,0,1,.39-.728,1.746,1.746,0,0,1,.374-.311,4.694,4.694,0,0,1,.609-.27c.07-.014.132-.051.2-.062A5.737,5.737,0,0,1,15.7,6.36c.23-.032.454-.061.7-.081a1.944,1.944,0,0,1,.253,0,3.879,3.879,0,0,1,.96.143A2.726,2.726,0,0,1,18.653,7a2.638,2.638,0,0,1,.5.618,1.489,1.489,0,0,1-.258,1.722,1.646,1.646,0,0,1-.238.259,3.657,3.657,0,0,1-1.031.622c-.26.1-.523.206-.781.3-.06.019-.115.03-.179.05a5.334,5.334,0,0,1-.958.113,4.7,4.7,0,0,1-.718-.029,1.352,1.352,0,0,1-.2-.023,5.336,5.336,0,0,1-.983-.228,4.2,4.2,0,0,1-.886-.419,3.849,3.849,0,0,1-.8-.681.3.3,0,0,0-.07-.081Zm1.455-.534c.071-.032.154-.061.235-.1a9.626,9.626,0,0,1,.983-.266c.07-.02.132-.031.2-.044a4.009,4.009,0,0,1,.718-.071h.1c.359.031.826.381.5.8a1.583,1.583,0,0,1-.6.324,2.372,2.372,0,0,1-.718.085,1.057,1.057,0,0,1-.2-.023,1.97,1.97,0,0,1-.983-.458,2.145,2.145,0,0,1-.235-.251m-6,0a.672.672,0,0,1-.122-.052A1.516,1.516,0,0,1,6.8,8.1c-.021-.048-.073-.293.02-.293.165-.117.392-.054.63.087.042.022.082.055.122.081a3.018,3.018,0,0,1,.817.884,2.994,2.994,0,0,1-.817-.2M6.025,10.073c-.536-.124-1.066-.35-.86-.8.218-.226.539-.1.86.125a8.288,8.288,0,0,1,.91.812c-.189-.031-.549-.059-.91-.132M4.734,11.8c-.567-.152-1.087-.452-.875-.854.152-.26.513-.117.875.132a7.675,7.675,0,0,1,.916.817,2.4,2.4,0,0,1-.916-.1M57.957,28.41a15.741,15.741,0,0,0-.343-2.178,16.3,16.3,0,0,0-.97-2.908,16.909,16.909,0,0,0-1.3-2.419A18.17,18.17,0,0,0,54,19.032c-.061-.078-.122-.154-.185-.238-.331-.388-.669-.764-1.031-1.133s-.743-.738-1.137-1.1c-.224-.2-.437-.393-.67-.582-.3-.242-.6-.479-.9-.718-.273-.21-.539-.4-.806-.589-.308-.218-.619-.423-.94-.63-.253-.168-.526-.329-.8-.493-.37-.217-.747-.43-1.146-.642-.244-.133-.5-.263-.76-.392-.341-.171-.7-.337-1.051-.5-.276-.119-.567-.244-.859-.365a.894.894,0,0,0-.115-.043c-.339-.147-.68-.267-1.026-.4-.333-.123-.662-.236-1-.353-.654-.2-1.318-.407-2-.582-.185-.041-.358-.1-.546-.132q-.293-.081-.585-.137c-.14-.033-.262-.063-.392-.09-.218-.043-.434-.1-.649-.134l-.8-5.666H24.565L23.8,9.795c-.2.045-.428.09-.631.135-.5.11-.995.224-1.5.359-.693.176-1.368.385-2.026.6-.346.114-.673.236-.995.351-.351.134-.684.267-1.031.4-.331.132-.649.278-.96.408-.324.159-.647.3-.958.454-.246.125-.487.25-.718.371-.065.029-.128.072-.2.108-.335.172-.662.361-.983.552-.3.175-.595.361-.886.549-.267.174-.536.348-.8.534-.308.219-.61.445-.914.669-.267.211-.538.425-.795.64s-.507.425-.752.648q-.542.5-1.05,1.016c-.362.366-.7.739-1.036,1.135-.04.04-.08.09-.122.14a19.592,19.592,0,0,0-1.421,1.94,17.144,17.144,0,0,0-1.291,2.373,16.343,16.343,0,0,0-.969,2.785A14.937,14.937,0,0,0,3.3,29.771a16.364,16.364,0,0,0,.084,1.668,16.692,16.692,0,0,0,.381,2.121,16.107,16.107,0,0,0,.969,2.79,17.483,17.483,0,0,0,1.291,2.393A21.468,21.468,0,0,0,7.446,40.67a1.705,1.705,0,0,0,.122.143c.335.39.674.766,1.036,1.135.339.348.688.678,1.05,1.013q.367.335.752.658c.257.216.527.423.795.631.3.224.607.452.914.666.269.188.538.363.8.538.291.185.59.372.886.544.321.2.649.381.983.557.07.044.132.073.2.108.231.12.472.243.718.372.311.153.633.3.958.452s.629.279.96.412c.346.134.68.268,1.031.4.322.122.649.239.995.353.658.215,1.333.421,2.026.607.5.125.994.247,1.5.347.67.149,1.351.272,2.043.388.247.028.5.07.762.1.364.054.733.092,1.106.126s.775.066,1.153.1c.264.01.538.033.806.044.538.019,1.067.039,1.612.039.355,0,.706-.007,1.066-.019.249-.008.5-.019.746-.03.218-.009.445-.023.662-.04.318-.027.649-.043.968-.075.277-.032.548-.057.823-.09.444-.054.9-.115,1.343-.187.6-.093,1.2-.207,1.794-.329a3.988,3.988,0,0,1,.392-.086c.195-.046.39-.09.585-.146.188-.037.361-.089.546-.13.68-.176,1.345-.372,2-.591.333-.109.662-.223,1-.346s.687-.26,1.026-.407a.515.515,0,0,0,.115-.036c.291-.123.582-.251.859-.368.353-.159.71-.322,1.051-.5.258-.13.516-.26.76-.4.4-.2.775-.423,1.146-.639.269-.163.542-.33.8-.494.321-.2.631-.414.94-.629.266-.185.532-.381.806-.586.3-.228.607-.478.9-.722.233-.191.445-.381.67-.578.395-.362.772-.723,1.137-1.105s.7-.738,1.031-1.131c.063-.083.124-.156.185-.241a17.493,17.493,0,0,0,1.35-1.863,17.235,17.235,0,0,0,1.3-2.433,16.144,16.144,0,0,0,.97-2.922,15.66,15.66,0,0,0,.343-2.185c.039-.444.058-.889.058-1.327,0-.463-.019-.921-.058-1.362M39.032,15.126l.546.156c.68.19,1.354.39,2,.619.333.11.662.242,1,.371s.687.28,1.026.436a.475.475,0,0,1,.115.039c.291.132.582.269.859.4.359.177.71.357,1.051.554.258.147.516.291.76.445.4.227.775.476,1.146.73.269.191.542.379.8.582.333.246.638.494.94.76q.413.357.806.744c.316.31.616.626.9.96.238.267.453.545.67.822a12.1,12.1,0,0,1,1.137,1.785,11.5,11.5,0,0,1,1.031,2.711c.051.237.106.485.145.733.01.1.028.205.041.308a10.089,10.089,0,0,1,0,2.733,10.277,10.277,0,0,1-.185,1.066c-.023.073-.043.146-.065.216a11.4,11.4,0,0,1-.965,2.5,12.775,12.775,0,0,1-1.137,1.8c-.217.278-.432.558-.67.826-.287.326-.587.646-.9.954-.262.257-.53.509-.806.745-.3.255-.607.513-.94.761-.253.2-.526.391-.8.577-.37.26-.747.5-1.146.73-.244.157-.5.3-.76.448-.341.2-.692.372-1.051.557-.276.13-.567.269-.859.39a.3.3,0,0,1-.115.05c-.339.155-.68.3-1.026.435s-.662.258-1,.372c-.644.227-1.318.432-2,.618-.185.05-.358.1-.546.147s-.39.1-.585.14c-.121.036-.262.065-.392.094-.589.132-1.187.248-1.794.341-.445.072-.887.143-1.343.193-.275.033-.547.065-.823.086-.319.029-.641.063-.968.08-.216.022-.443.032-.662.045-.247.007-.5.018-.746.03-.324.011-.656.011-.982.011-.583,0-1.138-.011-1.7-.041-.268-.013-.542-.031-.806-.045-.378-.028-.771-.061-1.153-.1s-.742-.094-1.106-.132c-.261-.045-.515-.083-.762-.127-.692-.114-1.383-.25-2.043-.393-.5-.12-.995-.247-1.5-.381-.693-.2-1.368-.41-2.026-.66-.346-.116-.673-.249-.995-.379-.351-.138-.7-.291-1.031-.436s-.649-.309-.96-.467-.647-.326-.958-.516c-.246-.132-.487-.265-.718-.406a1.771,1.771,0,0,0-.2-.126c-.335-.207-.662-.423-.983-.651-.3-.216-.595-.435-.886-.661-.274-.214-.544-.43-.8-.659-.317-.286-.621-.577-.914-.866-.278-.284-.549-.576-.795-.864-.269-.32-.514-.644-.752-.97A13.293,13.293,0,0,1,8.6,34.616a11.725,11.725,0,0,1-.913-2.41c-.037-.2-.077-.383-.123-.585-.051-.264-.091-.544-.122-.808a11.6,11.6,0,0,1,0-2.375c.018-.179.051-.35.082-.538.01-.07.033-.154.04-.236A11.161,11.161,0,0,1,8.6,24.707a13.487,13.487,0,0,1,1.05-1.732c.238-.309.483-.631.752-.949.245-.291.516-.578.795-.865.293-.3.6-.58.914-.865.261-.227.531-.448.8-.662.291-.224.59-.45.886-.659q.481-.341.983-.651c.07-.041.132-.08.2-.124.231-.143.472-.278.718-.423.311-.176.633-.344.958-.5s.629-.313.96-.467.68-.3,1.031-.441c.322-.123.649-.258.995-.374q.987-.367,2.026-.659c.476-.134.952-.258,1.443-.371l-.1.743c-.454.1-.9.226-1.342.346-.693.2-1.368.419-2.026.664-.346.123-.673.245-.995.378-.351.148-.7.293-1.031.448s-.649.309-.96.474-.647.339-.958.515c-.246.146-.487.288-.718.432-.065.04-.128.081-.2.126-.335.216-.662.432-.983.659-.3.226-.595.458-.886.694-.274.228-.544.451-.8.7-.317.288-.621.6-.914.908-.278.308-.549.62-.795.929a11.906,11.906,0,0,0-.752,1.071A10.952,10.952,0,0,0,8.6,26.165a9.784,9.784,0,0,0,0,6.955,10.888,10.888,0,0,0,1.05,2.128c.227.36.483.717.752,1.066.245.321.516.631.795.94.293.309.6.622.914.908.261.245.531.476.8.7.291.231.59.462.886.674.321.238.649.456.983.674.07.04.132.087.2.124.231.143.472.289.718.437.311.171.633.344.958.513s.629.317.96.469.68.3,1.031.446c.322.131.649.261.995.385.658.245,1.333.46,2.026.655.5.145.994.269,1.5.381.66.161,1.342.291,2.043.4.247.041.5.084.762.115.364.053.733.1,1.106.147l1.153.1c.264.01.538.03.806.039.566.028,1.127.041,1.7.041.335,0,.655,0,.98-.014.249,0,.5,0,.746-.028l.662-.029c.327-.03.649-.055.968-.088.277-.023.548-.056.823-.084.455-.056.9-.117,1.343-.19.607-.106,1.2-.216,1.794-.348.13-.033.253-.067.392-.1.195-.039.39-.091.585-.133s.373-.1.546-.159c.68-.18,1.354-.386,2-.61.333-.128.662-.251,1-.377.346-.143.687-.286,1.026-.443a.278.278,0,0,0,.115-.048c.291-.127.582-.257.859-.4.359-.173.71-.361,1.051-.555.258-.146.516-.3.76-.454.4-.237.775-.5,1.146-.756.269-.193.542-.389.8-.6.333-.253.638-.512.94-.781.275-.256.543-.516.806-.781.316-.346.616-.681.9-1.034.238-.3.453-.595.67-.909a12.459,12.459,0,0,0,1.137-2.131,9.89,9.89,0,0,0,0-7.548,12.6,12.6,0,0,0-1.137-2.138c-.217-.306-.432-.605-.67-.9q-.431-.523-.9-1.029c-.262-.27-.53-.528-.806-.786-.3-.268-.607-.527-.94-.784-.253-.2-.526-.406-.8-.6-.37-.26-.747-.514-1.146-.755-.244-.151-.5-.3-.76-.454-.341-.184-.692-.377-1.051-.556-.276-.134-.567-.277-.859-.4a.29.29,0,0,0-.115-.052c-.339-.152-.68-.3-1.026-.445-.333-.123-.662-.247-1-.368-.644-.227-1.318-.432-2-.621-.185-.048-.358-.1-.546-.154s-.39-.091-.585-.134c-.074-.02-.145-.042-.222-.055l-.1-.736c.117.03.222.048.325.081.195.039.39.092.585.132m-.421-.816.421-1.485.144-.513c.136.042.269.07.4.114.3.07.587.154.876.247L39.8,14.621c-.07-.023-.146-.041-.22-.064-.185-.039-.358-.09-.546-.14-.143-.035-.276-.062-.421-.107m5.1,29.2-.072-.148a.175.175,0,0,0,.072-.026c.291-.133.582-.256.859-.4.079-.045.167-.082.247-.126l.8,1.6.125.236c-.041.019-.081.042-.125.061-.341.175-.692.355-1.051.516-.023.009-.033.019-.043.019Zm.073,2.065c-.02.008-.055.02-.073.028a1.037,1.037,0,0,1-.115.052c-.339.156-.612.289-1,.434l-.028-.075-.731-1.9c.285-.106.494-.2.731-.289.108-.054.225-.1.357-.159l.669,1.511.115.247Zm1.836-2.9-.115-.215a.731.731,0,0,0,.115-.066c.258-.143.516-.284.76-.434.106-.058.2-.113.293-.171l.853,1.33.228.352a2.367,2.367,0,0,1-.228.143c-.346.227-.712.433-1.074.641l-.072-.127Zm1.906-1.01-.2-.29L47.3,41.4c.072-.051.142-.1.225-.151.269-.189.542-.375.8-.569a.219.219,0,0,0,.059-.045l.881,1.027.389.459c-.129.106-.254.209-.389.313-.28.193-.549.4-.836.6l-.1-.159Zm1.735-1.219L49,40.167c.084-.073.179-.15.26-.224.235-.191.475-.4.7-.614l.108.093.9.8.416.361a4.621,4.621,0,0,1-.416.4c-.228.217-.461.423-.7.619l-.206-.236Zm1.709-1.279-.445-.382c.158-.152.3-.3.445-.453.147-.165.3-.328.445-.5l.224.156,1.137.795.151.1c-.053.064-.1.136-.151.2-.26.324-.537.629-.828.938l-.31-.278Zm1.807-1.356-.869-.593c.26-.329.5-.671.721-1.005l.148.068,1.031.527.185.1.234.119c-.08.117-.152.244-.234.366-.061.109-.122.2-.185.3-.121.191-.258.361-.394.546ZM54,36.018l-.185-.1-.777-.382c.22-.37.4-.738.582-1.122l.195.062.185.074,1.264.43a14.491,14.491,0,0,1-.635,1.343Zm0-2.289-.079-.034c.029-.08.048-.166.079-.242a9.817,9.817,0,0,0,.328-1.117l1.022.083.705.064a13.981,13.981,0,0,1-.5,1.752l-.206-.073Zm1.35-1.947-.873-.075c.069-.421.118-.855.152-1.279h1.688c-.026.472-.081.948-.149,1.412Zm0-2h-.688v-.1a9.57,9.57,0,0,0-.067-1.1l.755-.062.93-.073c.037.421.056.854.056,1.281v.059Zm0-1.905-.836.065a10.584,10.584,0,0,0-.28-1.3l1.116-.3.516-.132A12.231,12.231,0,0,1,56.19,27.8Zm0-2.359L54,25.883c-.061-.163-.122-.332-.185-.5-.091-.224-.195-.452-.3-.679l.3-.123L54,24.5l1.082-.463c.105.205.182.412.269.628.1.249.2.507.276.764ZM54,23.632l-.185.087-.66.287c-.117-.218-.239-.421-.371-.642-.1-.14-.188-.3-.292-.443l.292-.167,1.031-.6.185-.11a12.745,12.745,0,0,1,.728,1.259Zm-1.216-1.789-.743.452c-.136-.165-.258-.337-.395-.507s-.3-.341-.456-.514l.456-.343.985-.754c.05.063.1.136.152.2.267.32.529.661.761,1Zm-1.137-1.908-.67.524-.316.236c-.189-.2-.381-.382-.587-.578-.117-.1-.23-.207-.339-.309l.339-.347.9-.922.043-.041c.207.2.423.4.627.61.148.15.3.313.445.472ZM50.069,18.31l-.806.845-.135.149c-.258-.216-.525-.425-.8-.628-.068-.051-.156-.117-.238-.168l.238-.317.9-1.2a.1.1,0,0,0,.043.028c.266.208.543.425.806.64.111.094.224.2.337.289Zm-1.745-1.462-.8,1.1-.083.117c-.339-.24-.691-.456-1.062-.671a.584.584,0,0,0-.094-.056l.094-.15.91-1.506c.083.053.153.094.236.143.269.177.542.353.8.527.084.051.168.115.233.163Zm-1.941-1.217-.76,1.31v.019c-.349-.179-.7-.369-1.051-.542a.308.308,0,0,1-.1-.053l.1-.2.832-1.533a1.6,1.6,0,0,1,.219.112c.258.134.516.266.76.415a.944.944,0,0,1,.209.109Zm-1.811-1.157-.812,1.569c-.017-.006-.034-.006-.046-.017a.578.578,0,0,0-.115-.056c-.339-.144-.68-.287-1.026-.419-.009-.019-.025-.019-.038-.023l.038-.081.793-1.752c.082.028.151.071.233.1a.541.541,0,0,1,.115.04c.291.118.582.257.859.381a.65.65,0,0,0,.1.053Zm-2-.989-.766,1.776c-.081-.033-.151-.048-.229-.083-.335-.113-.686-.229-1.038-.339l.689-1.933c.114.043.239.079.348.116.333.116.662.238,1,.36.008,0,.028.01.036.01Zm-.731,32.874c-.088.034-.181.064-.264.091-.424.139-.914.273-1.318.385l-.575-2.062c.432-.124,1-.277,1.423-.413l.47,1.292Zm-2.344.69c-.123.034-.286.073-.465.116s-.39.084-.585.123c-.14.031-.279.065-.392.086a1.034,1.034,0,0,1-.169.04l-.494-2.123c.178-.03.418-.083.663-.136.13-.022.271-.05.392-.083.18-.028.349-.072.483-.1l.1.366Zm-2.392.524c-.33.063-.6.116-.845.16-.319.059-.631.106-1.044.154l-.3-2.128-.01-.048h.01c.545-.073.888-.126,1.343-.207.116-.023.238-.044.369-.065Zm-2.621.406c-.119.017-.258.023-.39.041-.319.033-.641.052-.968.073-.216.02-.443.032-.662.044h-.014l-.081-2.218h.1c.218-.012.445-.033.662-.043.327-.019.649-.05.968-.081a.2.2,0,0,0,.082-.01Zm-2.766.074v.114c-.337.008-.684.008-1.034.008-.387,0-.769,0-1.15-.008l.084-2.228c.377.01.732.02,1.1.02.314,0,.61,0,.919-.01Zm-2.831-2.146-.1,2.218c-.185,0-.366-.019-.556-.032-.378-.021-.771-.061-1.153-.091a2.172,2.172,0,0,0-.311-.039l.311-2.189c.382.029.775.074,1.153.093.218.019.439.03.653.04m-2.541-.23-.308,2.2a.164.164,0,0,0-.063-.009c-.286-.039-.525-.074-.762-.1-.362-.059-.711-.114-1.135-.2l.472-2.143c.251.05.454.082.663.111.247.044.486.072.762.1.115.013.239.03.371.037m-2.534-.368-.518,2.157-.124-.032-1.476-.359.651-2.085.826.174ZM21.6,44.722l-.62,2.074c-.452-.133-.9-.266-1.327-.422a.313.313,0,0,0-.064-.023l.064-.164.673-1.862c.415.149.843.275,1.274.4M18.653,15.528l.048.09a.067.067,0,0,0-.048.022c-.351.137-.7.278-1.031.439a1.144,1.144,0,0,0-.145.063l-.816-1.585-.114-.215a.462.462,0,0,0,.114-.051c.311-.145.629-.288.96-.437.075-.028.156-.055.227-.087ZM18.6,13.457c.02,0,.029-.009.049-.009.322-.14.649-.25.995-.373.106-.032.221-.076.337-.118l.692,1.955c-.355.112-.692.226-1.029.348-.076.029-.16.051-.227.085l-.768-1.785Zm-1.942,2.8.119.207a.961.961,0,0,0-.119.059c-.324.154-.647.33-.958.493a.523.523,0,0,1-.081.054l-.637-1.1-.2-.34-.159-.28c.055-.032.1-.045.159-.081a1.3,1.3,0,0,1,.2-.109c.231-.137.472-.272.718-.4.041-.02.073-.04.116-.061Zm-1.873.938.163.256c-.051.035-.115.063-.163.1-.335.2-.662.412-.983.631l-.886-1.23-.246-.336a2.583,2.583,0,0,1,.246-.175c.291-.207.59-.406.886-.6.045-.02.1-.048.138-.07Zm-1.869,1.1.249.344c-.078.064-.165.124-.249.187-.256.192-.514.4-.772.606l-.033-.028-.914-.963-.362-.379c.121-.107.249-.2.362-.313.267-.226.547-.442.821-.662l.094.126ZM11.2,19.58l.362.375c-.124.114-.241.222-.362.341-.188.171-.371.361-.56.544l-.234-.183-.752-.588-.467-.375c.157-.164.313-.327.467-.494.2-.206.39-.39.6-.587l.155.167ZM9.654,21.065l.461.352c-.151.185-.31.382-.461.566-.123.156-.237.313-.35.465l-.7-.434-.86-.514c.269-.381.554-.75.86-1.124a.192.192,0,0,0,.05-.077ZM8.6,22.922l.257.154c-.1.136-.179.269-.257.4-.138.227-.27.443-.388.671l-.649-.288-.122-.053-.859-.381c.218-.43.455-.844.713-1.261l.145.085.122.07ZM7.446,24.677l.122.051.3.123c-.1.236-.2.474-.3.714-.04.1-.08.214-.122.328a.4.4,0,0,1-.041.12l-1.38-.381-.313-.092c.1-.3.2-.586.313-.877.073-.176.14-.339.214-.5ZM6.025,26.46l1.152.3c-.1.364-.176.737-.235,1.106l-.917-.07L5.2,27.72a13.219,13.219,0,0,1,.293-1.4Zm0,1.969.832.072A11.414,11.414,0,0,0,6.8,29.678v.1H5.047V29.72c0-.454.024-.913.065-1.364Zm0,2h.791c.03.392.085.795.147,1.186l-.938.074-.83.059c-.058-.443-.1-.874-.135-1.318Zm0,1.9,1.07-.082c.1.413.219.813.351,1.214a1.786,1.786,0,0,1,.071.185l-.071.023-1.421.465-.2.064a12.639,12.639,0,0,1-.508-1.807ZM7.446,34.49l.122-.039.24-.084c.174.373.361.744.556,1.1l-.8.4-.122.058-.723.352c-.224-.436-.444-.874-.625-1.332Zm0,2.271.122-.062L8.6,36.163l.09-.044c.224.341.465.68.73,1.027l-.821.54-.7.465c-.112-.156-.222-.319-.341-.472-.04-.065-.08-.125-.122-.185-.112-.185-.238-.374-.351-.555ZM8.6,38.648l1.05-.724.255-.185c.167.185.33.372.5.557.123.135.257.269.392.4l-.392.344-.752.645-.279.24c-.271-.289-.527-.586-.771-.885a2.195,2.195,0,0,1-.207-.249Zm1.8,1.432.795-.7.163-.145c.236.229.494.45.751.662.072.061.137.114.213.18l-.213.23L11.2,41.349l-.145.168c-.227-.187-.446-.37-.65-.569-.155-.154-.309-.3-.461-.452Zm1.709,1.437.8-.948.022-.021c.278.2.568.409.864.62a1.878,1.878,0,0,1,.225.141l-.04-.02-.185.268-.886,1.35-.017.033c-.269-.189-.527-.375-.788-.571-.141-.114-.3-.227-.442-.339Zm1.691,1.491.85-1.309a1.125,1.125,0,0,0,.133.085c.07.042.132.082.2.123.231.134.472.266.718.4.041.018.073.039.116.059l-.116.22-.718,1.368-.1.207a.737.737,0,0,1-.1-.042c-.335-.193-.662-.392-.983-.587-.065-.05-.151-.1-.235-.156Zm1.9,1.308.8-1.594c.048.03.1.051.153.086.311.154.629.293.96.437.023.012.044.025.064.034l-.064.134-.812,1.741c-.053-.022-.1-.039-.148-.06-.324-.156-.647-.321-.958-.474-.04-.02-.081-.043-.12-.064Zm1.918,1,.777-1.743c.093.043.172.072.254.1.281.121.5.227.835.341L18.723,46a.415.415,0,0,0-.07-.028c-.392-.155-.66-.294-1.031-.455-.028-.01-.053-.021-.082-.033Zm3.125-32.6c.306-.1.621-.179.927-.26a3.6,3.6,0,0,1,.362-.1l.568,2.018c-.308.073-.619.156-.93.236a1.449,1.449,0,0,1-.247.073Zm2.081-.551c.118-.03.23-.048.341-.082s.227-.052.339-.071l-.244,1.814-.1-.369Zm15.225,1.217-.094.341-.246-1.741a11.823,11.823,0,0,1,.666.146Zm.275,3C46.82,18.371,52.911,23.6,52.911,29.725c0,7.812-9.982,14.2-22.192,14.2S8.512,37.536,8.512,29.725c0-6.082,6.021-11.282,14.445-13.31,0,3.069,4.763,4.139,7.5,4.139,2.662,0,7.275-.6,7.878-4.176m-14.59-.459L25.213,5.474l.071-.555H35.927l.333,2.52,1.109,8.48a2.8,2.8,0,0,1-1.109,2.415,5.636,5.636,0,0,1-1.343.784c-.258.115-.54.207-.823.3-.308.092-.641.16-.968.223-.216.05-.434.083-.662.116-.247.03-.5.056-.746.067a12.7,12.7,0,0,1-2.678-.059c-.279-.036-.542-.075-.806-.125-.4-.084-.788-.177-1.153-.287a8.594,8.594,0,0,1-1.106-.432,4.9,4.9,0,0,1-.762-.437,2.888,2.888,0,0,1-1.474-2.568M56.644,34.6a16.314,16.314,0,0,1-1.3,2.874A17.6,17.6,0,0,1,54,39.516c-.061.078-.122.169-.185.247-.331.413-.669.814-1.031,1.2s-.743.776-1.137,1.15c-.224.2-.437.4-.67.6-.3.257-.6.5-.9.739-.273.209-.539.414-.806.61-.308.218-.619.434-.94.641-.253.163-.526.329-.8.492-.37.229-.747.445-1.146.662-.244.132-.5.266-.76.39-.341.176-.7.352-1.051.505-.276.137-.567.256-.859.37-.039.021-.072.033-.115.055-.339.132-.68.264-1.026.4s-.662.243-1,.351c-.654.215-1.318.414-2,.593-.185.051-.358.1-.546.143s-.39.093-.585.137c-.14.028-.262.059-.392.093-.6.12-1.2.236-1.794.328-.445.072-.9.131-1.343.18-.275.044-.547.063-.823.1-.319.032-.65.046-.968.079-.216.013-.443.018-.662.027a7.1,7.1,0,0,1-.746.036c-.343.01-.7.021-1.058.021-.544,0-1.082-.011-1.62-.041-.268-.017-.542-.025-.806-.043-.378-.033-.771-.062-1.153-.1s-.742-.075-1.106-.125c-.261-.031-.515-.07-.762-.112q-1.038-.152-2.043-.381c-.5-.1-.995-.229-1.5-.353-.693-.179-1.368-.392-2.026-.616-.346-.114-.673-.231-.995-.352-.351-.132-.684-.269-1.031-.414-.331-.129-.649-.266-.96-.41s-.647-.312-.958-.465c-.246-.125-.487-.249-.718-.372-.065-.041-.128-.073-.2-.116-.335-.174-.662-.369-.983-.553-.3-.185-.595-.375-.886-.567-.267-.18-.536-.36-.8-.549-.308-.226-.61-.449-.914-.687-.267-.22-.538-.435-.795-.652s-.507-.455-.752-.681c-.374-.339-.72-.7-1.05-1.061-.362-.395-.7-.784-1.036-1.194-.04-.053-.08-.108-.122-.159a18.859,18.859,0,0,1-1.421-2.11A16.169,16.169,0,0,1,4.734,34.73a14.948,14.948,0,0,1,0-9.951,15.525,15.525,0,0,1,1.291-2.815,18.566,18.566,0,0,1,1.421-2.116c.042-.046.082-.1.122-.154.335-.4.674-.8,1.036-1.2.33-.361.688-.713,1.05-1.065.244-.224.5-.452.752-.665.257-.229.527-.445.795-.661.3-.238.607-.466.914-.679.269-.2.538-.377.8-.557.291-.2.59-.382.886-.561.321-.2.649-.381.983-.567.07-.039.132-.073.2-.113.231-.123.472-.248.718-.37.311-.154.633-.311.958-.453s.629-.293.96-.426c.346-.141.68-.275,1.031-.4.322-.127.649-.251.995-.361.658-.224,1.333-.425,2.026-.607.5-.138.994-.26,1.5-.361.178-.043.351-.084.534-.115l-.1.73c-.149.029-.288.062-.434.1-.5.112-.995.236-1.5.367q-1.04.285-2.026.622c-.346.112-.673.226-.995.363-.351.12-.684.269-1.031.408-.331.136-.649.28-.96.424s-.647.305-.958.467c-.246.123-.487.257-.718.378-.065.042-.128.073-.2.115-.335.181-.662.372-.983.577-.3.185-.595.368-.886.563-.267.189-.536.378-.8.57-.308.234-.61.463-.914.712-.267.218-.538.445-.795.681s-.507.465-.752.7c-.374.366-.72.732-1.05,1.117a14.963,14.963,0,0,0-1.036,1.279c-.04.051-.08.1-.122.163a19.733,19.733,0,0,0-1.421,2.342,15.036,15.036,0,0,0-1.291,3.8,14.1,14.1,0,0,0,0,5.456,15.208,15.208,0,0,0,1.291,3.794,17.974,17.974,0,0,0,1.421,2.351c.042.06.082.113.122.176.328.432.66.852,1.036,1.276.33.382.676.754,1.05,1.113.244.238.5.474.752.7s.527.455.795.684c.3.233.607.474.914.7.269.194.538.385.8.568.291.2.59.388.886.578q.481.294.983.575c.07.035.132.074.2.1.231.137.472.26.718.381.311.169.633.323.958.465s.629.291.96.432.68.28,1.031.411c.322.123.649.238.995.352.658.238,1.333.445,2.026.633.5.132.994.246,1.5.357.67.145,1.351.279,2.043.385.247.04.5.083.762.112q.546.076,1.106.123c.382.041.775.078,1.153.1.264.021.538.03.806.034.538.036,1.084.05,1.63.05.35,0,.705-.013,1.048-.013.249-.01.5-.017.746-.036.218,0,.445-.023.662-.034.318-.023.649-.053.968-.083.277-.021.548-.052.823-.084.444-.06.9-.121,1.343-.194.6-.094,1.2-.209,1.794-.335.13-.028.271-.058.392-.087.195-.043.39-.083.585-.134s.361-.092.546-.145c.68-.174,1.345-.379,2-.6.333-.115.662-.225,1-.354s.687-.269,1.026-.413c.043-.01.087-.031.115-.036.291-.127.582-.251.859-.385.359-.163.71-.33,1.051-.516.258-.123.516-.255.76-.4.4-.205.775-.431,1.146-.658.269-.163.542-.342.8-.517.321-.2.631-.433.94-.651.266-.2.543-.41.806-.618.3-.257.607-.506.9-.775.233-.206.453-.406.67-.62.395-.387.772-.79,1.137-1.2s.7-.851,1.031-1.28c.063-.1.124-.18.185-.269a16.68,16.68,0,0,0,1.35-2.267,14.819,14.819,0,0,0,1.3-3.864,14.032,14.032,0,0,0,0-5.244,14.765,14.765,0,0,0-1.3-3.858A17.886,17.886,0,0,0,54,21c-.061-.084-.122-.176-.185-.271-.321-.428-.669-.852-1.031-1.278s-.743-.814-1.137-1.2c-.224-.22-.437-.423-.67-.628-.3-.257-.6-.518-.9-.765-.262-.214-.539-.419-.806-.616-.308-.232-.619-.443-.94-.662-.253-.178-.526-.339-.8-.506-.37-.234-.747-.453-1.146-.666-.244-.136-.5-.269-.76-.4-.341-.177-.692-.349-1.051-.518-.276-.12-.567-.243-.859-.366-.039-.02-.072-.034-.115-.059-.339-.128-.68-.277-1.026-.4s-.662-.251-1-.363c-.654-.216-1.318-.408-2-.6-.185-.034-.358-.09-.546-.132s-.39-.092-.585-.143c-.14-.029-.262-.061-.392-.082-.145-.032-.3-.063-.449-.094l-.1-.73c.182.03.36.071.545.1.13.035.253.064.392.1.195.041.39.092.585.132s.361.1.546.148c.68.175,1.345.372,2,.583.333.12.662.239,1,.353.346.134.687.269,1.026.414.043.01.076.028.115.038.291.125.582.251.859.375.359.16.71.328,1.051.5.258.132.516.262.76.4.4.205.775.426,1.146.649.269.165.542.331.8.5.321.211.631.414.94.633.266.2.532.4.806.6.3.251.607.5.9.747.233.2.445.4.67.611.395.368.772.75,1.137,1.137s.7.788,1.031,1.2c.063.081.124.163.185.249a16.941,16.941,0,0,1,1.35,2.04,16.022,16.022,0,0,1,1.3,2.867,14.989,14.989,0,0,1,0,9.7M26.229,39.4h.4v3.263h-.819V40.2l-.472.326V39.84l.58-.444ZM20.955,22.018l-3.093,6.373h1.015a1.542,1.542,0,0,1,1.592,1.463v7.657H18.177V30.3a.9.9,0,0,0-.89-.851h-.945v8.064H14.064V22.018h2.278v6.373h.219l3.061-6.373Zm8.264,15.466h.41v-7.1a1.432,1.432,0,0,0-.41-.983A1.683,1.683,0,0,0,28,28.9a1.763,1.763,0,0,0,1.221-.481,1.346,1.346,0,0,0,.41-.959V23.374a1.3,1.3,0,0,0-.41-.947A1.693,1.693,0,0,0,28.06,22H23.207V37.485h2.315V29.413h.884a.917.917,0,0,1,.928.853v7.219ZM27.069,27.457a.819.819,0,0,1-.84.73h-.837v-4.8h.837a.829.829,0,0,1,.84.733Zm17.637-5.9-1.8-1.212h3.637Zm.8,5.593V23.724a.808.808,0,0,0-.9-.707h-.164a.775.775,0,0,0-.848.746v4.629h4.344v6.254a3.145,3.145,0,0,1-3.279,2.867h-.217a3.091,3.091,0,0,1-3.266-2.867V30.9h2.417v4.8a.876.876,0,0,0,.927.768h.138a.858.858,0,0,0,.872-.768l-.025-6.25h-4.33V24.84A3.062,3.062,0,0,1,44.443,22h.217a3.116,3.116,0,0,1,3.279,2.841v2.305ZM29.219,39.4h-.011a1.107,1.107,0,0,0-1.117,1.1,1.145,1.145,0,0,0,.851,1.08l-.723,1.08h.873l.127-.18.941-1.369a.935.935,0,0,0,.188-.611,1.138,1.138,0,0,0-1.129-1.1m0,1.452h-.011a.347.347,0,0,1,0-.694h.011a.36.36,0,0,1,.363.345.379.379,0,0,1-.363.349M35.123,22h-1.2L31.917,37.485h1.416l.409-3.443H36.5l.563,3.443h2.3L37.062,22Zm0,10.988h-1.26l1.175-8.878.085.551,1.241,8.327Zm.5,6.409h.728v3.263h-.812V40.2l-.419.277-.07.048V39.84l.07-.052Zm-3.247,0h.748v3.263h-.863V40.2l-.43.326V39.84ZM29.255,12.153l.98-4.689h-.7V6.62h2.371v.854h-.673l.7,4.679Zm2.869.012.814-3.61h-.593V7.929h1.962v.651H33.75l.593,3.586Zm3.489,5.175-1.27.68-1.324-.467V13.389l-1,.326-.4.143c-.293-.335-.151-.5-1.1-.527-.893.026-.94.131-1.166.551l-.485-.176-1.046-.4v4.081l-1.142.635-1.206-.68,1.289-4.658h7.662ZM27.09,7.918h1.977v.662H28.5l.375,2.266.221,1.307H26.883l.8-3.6h-.571ZM33.8,5.853c1.3.265,1.274,1.573-.026,1.752.73-.465.73-1.069.026-1.752M32.02,14.326l.545-.205v3.265l-.545-.31-.523-.315V14.538Zm-3.149-.109.545.192V16.5l-.545.3-.536.311V14.016Zm-2.514-7.1.222-.458-.222-.406h.526l.266-.467.266.467H27.9l-.22.406.22.458h-.487l-.266.469-.266-.469Z" transform="translate(0 0)" fill="#f2c58c"/>
    </g>
  </g>
</svg>
