<svg xmlns="http://www.w3.org/2000/svg" xmlns:xlink="http://www.w3.org/1999/xlink" width="194.014" height="221.632" viewBox="0 0 194.014 221.632">
  <g id="Group_299" data-name="Group 299" transform="translate(0.001)">
    <path id="Path_2400" data-name="Path 2400" d="M21.856,59.84l1.1,11.73-10.52,6.276,12.728,2.771,4.785,13.493,4.733-13.192,12.7.585-10.2-9.589,3.681-10.442L30.328,67.2Z" transform="translate(14.486 69.717)" fill="#ed6927"/>
    <path id="Path_2401" data-name="Path 2401" d="M78.975,50.168,67.968,42.617l2.091-16.4L61.423,40.313l-13.311-1L59.119,46.86l-2.091,16.4,8.636-14.092Z" transform="translate(56.054 30.548)" fill="#5f4f98"/>
    <path id="Path_2402" data-name="Path 2402" d="M14.313,89.676,0,99.2l17.16-1.052,10.866,18.308L25.634,95.3l14.311-9.524-17.16,1.05L11.918,68.521Z" transform="translate(0 79.831)" fill="#d6e0e4"/>
    <g id="Group_297" data-name="Group 297" transform="translate(0.001)">
      <g id="Group_296" data-name="Group 296" clip-path="url(#clip-path)">
        <path id="Path_2403" data-name="Path 2403" d="M45.6,20.319h0c-4.168,7.134-15.48,8.561-21.287,2.687S20.056,5.836,27.233,1.749c11.7-6.66,25.1,7.045,18.364,18.57" transform="translate(24.185 0)" fill="#9eb04c"/>
        <path id="Path_2404" data-name="Path 2404" d="M30.8,14.77c-3.72-.3-6.525-5.051-4.854-8.392a1.7,1.7,0,0,0-.509-2.284,1.668,1.668,0,0,0-2.284.509c-2.8,5.594,1.152,12.966,7.48,13.473,2.128.171,2.286-3.137.167-3.306" transform="translate(25.913 4.484)" fill="#fff"/>
        <path id="Path_2405" data-name="Path 2405" d="M49.526,13.347h0c5.084-1.332,10.812,3.111,10.782,8.366S54.5,31.35,49.433,29.958c-8.255-2.265-8.119-14.454.093-16.61" transform="translate(50.452 15.272)" fill="#9eb04c"/>
        <path id="Path_2406" data-name="Path 2406" d="M49.994,16.848a4.186,4.186,0,0,1-1.717,6.32c-.994.344-.647,1.964.359,1.615a5.842,5.842,0,0,0,2.57-9.061c-.68-.818-1.892.307-1.212,1.126" transform="translate(55.554 17.986)" fill="#fff"/>
        <path id="Path_2407" data-name="Path 2407" d="M49.1,86.539l1.1,11.73-10.52,6.276,12.728,2.771L57.19,120.81l4.733-13.192,12.7.585-10.2-9.589L68.1,88.171,57.571,93.9Z" transform="translate(46.226 100.822)" fill="#ed6927"/>
        <path id="Path_2408" data-name="Path 2408" d="M106.219,76.867,95.212,69.315l2.091-16.4L88.667,67.012l-13.311-1,11.007,7.552-2.091,16.4,8.636-14.092Z" transform="translate(87.794 61.654)" fill="#5f4f98"/>
      </g>
    </g>
  </g>
</svg>
