<?xml version="1.0" encoding="utf-8"?>
<!-- Generator: Adobe Illustrator 27.5.0, SVG Export Plug-In . SVG Version: 6.00 Build 0)  -->
<svg version="1.1" id="Group_193" xmlns="http://www.w3.org/2000/svg" xmlns:xlink="http://www.w3.org/1999/xlink" x="0px" y="0px"
	 viewBox="0 0 222.3 128.6" style="enable-background:new 0 0 222.3 128.6;" xml:space="preserve">
<style type="text/css">
	.st0{enable-background:new    ;}
	.st1{fill:#FFFFFF;}
	.st2{fill:#541226;}
</style>
<g class="st0">
	<path class="st1" d="M45.8,53.7l0.4,2.3l-1.8,0.3l1.9,11.8l1.3,1.2l-0.9,1.6l1.9,11.9l1.8-0.3l0.4,2.3l-9.1,1.5l-0.4-2.3l1.9-0.3
		l-1.9-11.9l-1.4-1.3l0.9-1.6l-1.2-7.2L34,82.7l-4.9,0.8l-5.2-7.8L22.1,75l0.2-1.8l-4.9-7.4l3.5,21.5l1.9-0.3l0.4,2.3l-6.2,1
		l-0.4-2.3l1.8-0.3L14,61.2l-1.8,0.3l-0.4-2.3l7-1.1L27,70.2l1.7,0.6l-0.2,1.7l3.9,5.8l5.8-21l-1,0.2l-0.4-2.3l4.6-0.7L45.8,53.7z
		 M24.9,73.4c0.1,0.1,0.3,0.2,0.5,0.1c0.2,0,0.3-0.1,0.4-0.3c0.1-0.2,0.2-0.3,0.1-0.5c0-0.2-0.1-0.3-0.3-0.4
		c-0.2-0.1-0.3-0.2-0.5-0.1c-0.2,0-0.3,0.1-0.4,0.3c-0.1,0.2-0.1,0.3-0.1,0.5C24.7,73.1,24.8,73.2,24.9,73.4z M43.4,70.4
		c0.2,0.1,0.3,0.2,0.5,0.1c0.2,0,0.3-0.1,0.4-0.3c0.1-0.2,0.2-0.3,0.1-0.5c0-0.2-0.1-0.3-0.3-0.4c-0.2-0.1-0.3-0.2-0.5-0.1
		c-0.2,0-0.3,0.1-0.4,0.3c-0.1,0.2-0.2,0.3-0.1,0.5C43.1,70.1,43.2,70.3,43.4,70.4z"/>
	<path class="st1" d="M52.1,84.7l-0.4-2.3l1.8-0.3l-1.9-11.8l-1.4-1.3l1-1.7l-1.9-11.7l-1.8,0.3l-0.4-2.3l19.7-3.2l1,6l-5.5,0.9
		l-0.1-0.7c0-0.2-0.1-0.6-0.2-1.4c-0.1-0.7-0.2-1.3-0.3-1.6l-6.9,1.1l2,12.1l6-1L63,68l-6,1l2,12.2l6.9-1.1c0-0.3-0.1-0.6-0.1-0.9
		c-0.1-0.3-0.1-0.6-0.1-0.9c0-0.3-0.1-0.5-0.1-0.7c0-0.2-0.1-0.4-0.1-0.5c0-0.1,0-0.2,0-0.2l-0.1-0.5l0.7-0.1l4.8-0.8l1,6L52.1,84.7
		z M54.5,67.6c-0.2-0.1-0.3-0.2-0.5-0.1c-0.2,0-0.3,0.1-0.4,0.3c-0.1,0.2-0.2,0.3-0.1,0.5c0,0.2,0.1,0.3,0.3,0.4
		c0.2,0.1,0.3,0.2,0.5,0.1c0.2,0,0.3-0.1,0.4-0.3c0.1-0.2,0.2-0.3,0.1-0.5C54.7,67.9,54.6,67.7,54.5,67.6z"/>
	<path class="st1" d="M92,64.6l0.4,2.3l-2,0.3l1.8,11.2l-5.3-1.4c-1,1.5-2.4,2.4-4.2,2.7l-1.1,0.2c-2,0.3-3.9-0.1-5.5-1.3
		c-1.7-1.2-2.7-2.8-3-4.9L72,66.9l-1.4-1.3l0.9-1.6l-0.8-5.2c-0.3-1.6-0.1-3.2,0.5-4.7c0.6-1.5,1.5-2.8,2.7-3.8
		c1.2-1,2.7-1.7,4.3-1.9l1.1-0.2c2.1-0.3,4,0.1,5.7,1.2c0,0,0.1,0,0.1,0c0,0,0.1,0,0.1,0c0,0,0.1-0.1,0.1-0.1l-0.1-0.5l2.3-0.4
		l1.1,6.9l-2.3,0.4L86,54.7c-0.2-1.4-0.9-2.5-2.1-3.3c-1.2-0.8-2.4-1.1-3.8-0.9c-1.4,0.2-2.5,0.9-3.3,2.1c-0.8,1.1-1.1,2.4-0.9,3.8
		l1.1,6.8l1.3,1.2l-0.9,1.5l1.4,8.5c0.2,0.9,0.6,1.7,1.4,2.3c0.8,0.6,1.6,0.8,2.6,0.6c0.9-0.2,1.7-0.6,2.3-1.4
		c0.6-0.8,0.8-1.6,0.6-2.6l-0.9-5.3l-1.7,0.3l-0.4-2.3L92,64.6z M74.1,65.4c0.2,0.1,0.3,0.2,0.5,0.1c0.2,0,0.3-0.1,0.4-0.3
		c0.1-0.2,0.1-0.3,0.1-0.5c0-0.2-0.1-0.3-0.3-0.4c-0.1-0.1-0.3-0.1-0.5-0.1s-0.3,0.1-0.4,0.3c-0.1,0.2-0.2,0.3-0.1,0.5
		C73.8,65.2,73.9,65.3,74.1,65.4z"/>
	<path class="st1" d="M114.5,72.1l2-0.3l0.4,2.3l-6.3,1l-0.4-2.3l1.9-0.3l-4.5-11.6l-4.4,0.7l-0.7,12.4l2-0.3l0.4,2.3l-9.5,1.5
		L95,75.1l1.9-0.3l0.7-12.6l-1-0.9l1.1-2l0.6-11.8l-1.8,0.3l-0.4-2.3l9.5-1.5l0.4,2.3l-1.5,0.2L114.5,72.1z M100,61.2
		c0.2,0.1,0.3,0.2,0.5,0.1c0.2,0,0.3-0.1,0.4-0.3c0.1-0.2,0.1-0.3,0.1-0.5c0-0.2-0.1-0.3-0.3-0.4c-0.2-0.1-0.3-0.2-0.5-0.1
		c-0.2,0-0.3,0.1-0.4,0.3c-0.1,0.2-0.2,0.3-0.1,0.5C99.7,61,99.8,61.1,100,61.2z M103.4,59.2l3.4-0.6l-3-7.7L103.4,59.2z"/>
</g>
<g class="st0">
	<path class="st1" d="M39.5,93.9l0.4,2.3l-1.9,0.3l4.3,26.6l1.8-0.3l0.4,2.3l-6.3,1l-8.2-12.3l-1.8-0.6l0.2-1.8l-4.9-7.4l3.5,21.5
		l1.9-0.3l0.4,2.3l-6.2,1l-0.4-2.3l1.8-0.3l-4.3-26.6l-1.8,0.3L18,97.4l7-1.1l8.1,12.1l1.7,0.6l-0.2,1.7l4.1,6.1l-3.2-19.9l-1.8,0.3
		l-0.4-2.3L39.5,93.9z M31.2,111.6c0.2,0.1,0.3,0.2,0.5,0.1c0.2,0,0.3-0.1,0.4-0.3c0.1-0.2,0.2-0.3,0.1-0.5c0-0.2-0.1-0.3-0.3-0.4
		c-0.2-0.1-0.3-0.2-0.5-0.1c-0.2,0-0.3,0.1-0.4,0.3s-0.2,0.3-0.1,0.5C30.9,111.3,31,111.5,31.2,111.6z"/>
	<path class="st1" d="M64.9,119.3l2-0.3l0.4,2.3l-6.3,1l-0.4-2.3l1.9-0.3L58,108l-4.4,0.7L53,121.1l2-0.3l0.4,2.3l-9.5,1.5l-0.4-2.3
		l1.9-0.3l0.7-12.6l-1-0.9l1.1-2l0.6-11.8L47,95l-0.4-2.3l9.5-1.5l0.4,2.3L55,93.7L64.9,119.3z M50.4,108.5c0.2,0.1,0.3,0.2,0.5,0.1
		c0.2,0,0.3-0.1,0.4-0.3c0.1-0.2,0.1-0.3,0.1-0.5c0-0.2-0.1-0.3-0.3-0.4c-0.2-0.1-0.3-0.2-0.5-0.1c-0.2,0-0.3,0.1-0.4,0.3
		c-0.1,0.2-0.2,0.3-0.1,0.5C50.1,108.2,50.2,108.4,50.4,108.5z M53.8,106.4l3.4-0.6l-3-7.7L53.8,106.4z"/>
	<path class="st1" d="M74.9,88.2c1.5-0.2,3-0.1,4.4,0.4c1.4,0.5,2.6,1.4,3.5,2.5c1,1.2,1.6,2.5,1.8,4c0.2,1.1,0.1,2.2-0.1,3.3
		c-0.3,1.1-0.7,2.1-1.4,3c-0.7,0.9-1.5,1.7-2.4,2.3c-0.9,0.6-2,1-3.1,1.1l-4,0.7l2,12.2l1.9-0.3l0.4,2.3l-9.2,1.5l-0.4-2.3l1.8-0.3
		l-1.9-12l-1.3-1.2l0.9-1.5L65.8,92l-1.8,0.3l-0.4-2.3L74.9,88.2z M70.3,105.2c0.2,0.1,0.3,0.2,0.5,0.1c0.2,0,0.3-0.1,0.4-0.3
		c0.1-0.2,0.2-0.3,0.1-0.5c0-0.2-0.1-0.3-0.3-0.4c-0.2-0.1-0.3-0.2-0.5-0.1c-0.2,0-0.3,0.1-0.4,0.3c-0.1,0.2-0.1,0.3-0.1,0.5
		C70,105,70.1,105.1,70.3,105.2z M74,103.1c1.7-0.3,3-1.1,4-2.5c1-1.4,1.4-2.9,1.1-4.6c-0.3-1.7-1.1-3-2.5-4c-1.4-1-2.9-1.4-4.6-1.1
		l-0.8,0.1l2,12.1L74,103.1z"/>
	<path class="st1" d="M100,84.2l6.1-1l0.4,2.3l-1.9,0.3l3.4,20.7c0.2,1.1,0.1,2.2-0.1,3.2s-0.7,2-1.3,2.9c-1.3,1.8-3.1,2.9-5.4,3.3
		l-0.8,0.1c-1.2,0.2-2.4,0.2-3.5-0.1c-1.2-0.3-2.2-0.8-3.2-1.5c-1-0.7-1.8-1.6-2.4-2.6c-0.6-1-1-2.1-1.2-3.3l-0.8-5.3l-1.4-1.2
		l0.9-1.6l-1.9-11.8l-1.8,0.3l-0.4-2.3l9.2-1.5l0.4,2.3l-1.9,0.3l1.9,11.8l1.3,1.2l-0.9,1.6l1.1,7c0.2,1.4,0.9,2.5,2,3.3
		c1.1,0.8,2.4,1.1,3.8,0.9c1.4-0.2,2.5-0.9,3.3-2c0.8-1.1,1.1-2.4,0.9-3.8l-3.5-21.6l-1.8,0.3L100,84.2z M91.1,101.9
		c0.2,0.1,0.3,0.2,0.5,0.1c0.2,0,0.3-0.1,0.4-0.3c0.1-0.2,0.2-0.3,0.1-0.5c0-0.2-0.1-0.3-0.3-0.4c-0.2-0.1-0.3-0.2-0.5-0.1
		c-0.2,0-0.3,0.1-0.4,0.3c-0.1,0.2-0.1,0.3-0.1,0.5C90.8,101.6,90.9,101.8,91.1,101.9z"/>
	<path class="st1" d="M119.7,81l9.2-1.5l0.4,2.3l-1.9,0.3l1.9,11.8l1.4,1.3l-0.9,1.6l1.9,11.9l1.8-0.3l0.4,2.3l-9.1,1.5l-0.4-2.3
		l1.8-0.3l-2-12.2l-6.9,1.1l2,12.2l1.9-0.3l0.4,2.3l-9.2,1.5l-0.4-2.3l1.8-0.3l-1.9-12l-1.3-1.2l0.9-1.5L109.5,85l-1.8,0.3l-0.4-2.3
		l9.2-1.5l0.4,2.3l-1.9,0.3l2,12.1l6.9-1.1l-2-12.1l-1.8,0.3L119.7,81z M113.9,98.2c0.2,0.1,0.3,0.2,0.5,0.1c0.2,0,0.3-0.1,0.4-0.3
		c0.1-0.2,0.2-0.3,0.1-0.5c0-0.2-0.1-0.3-0.3-0.4c-0.2-0.1-0.3-0.2-0.5-0.1c-0.2,0-0.3,0.1-0.4,0.3c-0.1,0.2-0.2,0.3-0.1,0.5
		C113.7,97.9,113.8,98.1,113.9,98.2z M126.3,96.2c0.2,0.1,0.3,0.2,0.5,0.1c0.2,0,0.3-0.1,0.4-0.3c0.1-0.2,0.2-0.3,0.1-0.5
		c0-0.2-0.1-0.3-0.3-0.4c-0.2-0.1-0.3-0.2-0.5-0.1s-0.3,0.1-0.4,0.3c-0.1,0.2-0.2,0.3-0.1,0.5C126.1,95.9,126.2,96.1,126.3,96.2z"/>
	<path class="st1" d="M154.3,104.9l2-0.3l0.4,2.3l-6.3,1l-0.4-2.3l1.9-0.3l-4.5-11.6l-4.4,0.7l-0.7,12.4l2-0.3l0.4,2.3l-9.5,1.5
		l-0.4-2.3l1.9-0.3l0.7-12.6l-1-0.9l1.1-2l0.6-11.8l-1.8,0.3l-0.4-2.3l9.5-1.5l0.4,2.3l-1.5,0.2L154.3,104.9z M139.8,94
		c0.2,0.1,0.3,0.2,0.5,0.1c0.2,0,0.3-0.1,0.4-0.3c0.1-0.2,0.1-0.3,0.1-0.5c0-0.2-0.1-0.3-0.3-0.4c-0.2-0.1-0.3-0.2-0.5-0.1
		c-0.2,0-0.3,0.1-0.4,0.3c-0.1,0.2-0.2,0.3-0.1,0.5C139.5,93.7,139.6,93.9,139.8,94z M143.2,91.9l3.4-0.6l-3-7.7L143.2,91.9z"/>
	<path class="st1" d="M174.5,72.1l0.4,2.3l-1.9,0.3l4.3,26.6l1.8-0.3l0.4,2.3l-6.3,1L165,92l-1.8-0.6l0.2-1.8l-4.9-7.4l3.5,21.5
		l1.8-0.3l0.4,2.3l-6.2,1l-0.4-2.3l1.8-0.3l-4.3-26.6l-1.8,0.3l-0.4-2.3l7-1.1l8.1,12.1l1.7,0.6l-0.2,1.7l4.1,6.1l-3.2-19.9
		l-1.8,0.3l-0.4-2.3L174.5,72.1z M166.1,89.7c0.2,0.1,0.3,0.2,0.5,0.1c0.2,0,0.3-0.1,0.4-0.3c0.1-0.2,0.2-0.3,0.1-0.5
		c0-0.2-0.1-0.3-0.3-0.4c-0.2-0.1-0.3-0.2-0.5-0.1s-0.3,0.1-0.4,0.3c-0.1,0.2-0.2,0.3-0.1,0.5C165.9,89.5,166,89.6,166.1,89.7z"/>
	<path class="st1" d="M199.8,97.5l2-0.3l0.4,2.3l-6.3,1l-0.4-2.3l1.9-0.3L193,86.2l-4.4,0.7l-0.7,12.4l2-0.3l0.4,2.3l-9.5,1.5
		l-0.4-2.3l1.9-0.3l0.7-12.6l-1-0.9l1.1-2l0.6-11.8l-1.8,0.3l-0.4-2.3l9.5-1.5l0.4,2.3l-1.5,0.2L199.8,97.5z M185.3,86.6
		c0.2,0.1,0.3,0.2,0.5,0.1s0.3-0.1,0.4-0.3c0.1-0.2,0.1-0.3,0.1-0.5c0-0.2-0.1-0.3-0.3-0.4c-0.2-0.1-0.3-0.2-0.5-0.1
		c-0.2,0-0.3,0.1-0.4,0.3c-0.1,0.2-0.2,0.3-0.1,0.5C185.1,86.4,185.2,86.5,185.3,86.6z M188.7,84.6l3.4-0.6l-3-7.7L188.7,84.6z"/>
	<path class="st1" d="M217.8,66.7l1.1,6.9l-2.3,0.4l-0.2-1.2c-0.2-1.4-0.9-2.5-2.1-3.3c-1.1-0.8-2.4-1.1-3.8-0.9
		c-1.4,0.2-2.5,0.9-3.3,2.1s-1.1,2.4-0.9,3.8l1.1,6.9l1.2,1.1l-0.8,1.5l1.1,7c0.2,1.4,0.9,2.5,2.1,3.3c1.1,0.8,2.4,1.1,3.8,0.9
		c1.4-0.2,2.5-0.9,3.3-2.1s1.1-2.4,0.9-3.8l-0.2-1.4l2.3-0.4l1.1,7l-2.3,0.4l-0.1-0.4c0,0,0,0,0,0c0,0,0,0-0.1,0
		c-0.3,0.4-0.5,0.6-0.6,0.8c-1.2,1.3-2.7,2.1-4.5,2.4l-1.1,0.2c-1.2,0.2-2.4,0.2-3.5-0.1c-1.2-0.3-2.2-0.8-3.2-1.5s-1.8-1.6-2.4-2.6
		c-0.6-1-1-2.1-1.2-3.3l-0.8-5.2l-1.4-1.3L202,82l-0.8-5.1c-0.3-1.6-0.1-3.2,0.5-4.7c0.6-1.5,1.5-2.8,2.7-3.8c1.2-1,2.7-1.7,4.3-1.9
		l1.1-0.2c2.1-0.3,4,0.1,5.7,1.2c0,0,0.1,0,0.1,0c0,0,0.1-0.1,0.1-0.1l-0.1-0.5L217.8,66.7z M204.4,83.5c0.2,0.1,0.3,0.2,0.5,0.1
		c0.2,0,0.3-0.1,0.4-0.3c0.1-0.2,0.1-0.3,0.1-0.5c0-0.2-0.1-0.3-0.3-0.4c-0.2-0.1-0.3-0.2-0.5-0.1c-0.2,0-0.3,0.1-0.4,0.3
		c-0.1,0.2-0.2,0.3-0.1,0.5C204.2,83.3,204.3,83.4,204.4,83.5z"/>
</g>
<g class="st0">
	<path class="st2" d="M11.7,36.6L9.3,22L4.1,25c-0.4-0.4-0.8-0.9-1.2-1.4c-0.4-0.5-0.8-1.1-1.2-1.7c-0.4-0.6-0.7-1.2-1-1.8
		c-0.3-0.6-0.6-1.2-0.8-1.7l14-8.9l2.2-0.4l4.2,25.9l6.6-1.1c0.5,1.3,0.9,2.5,1.1,3.7c0.2,1.3,0.3,2.6,0.2,4l-22,3.6
		c-0.5-1.3-0.9-2.6-1.1-3.8C5,40.3,4.9,39,5,37.7L11.7,36.6z"/>
</g>
<g class="st0">
	<path class="st2" d="M44.3,39.8c-2.3,0.4-4.3,0.3-6.2-0.3c-1.8-0.6-3.4-1.6-4.7-2.9s-2.4-3-3.3-5c-0.9-2-1.5-4.2-1.9-6.7
		c-0.4-2.5-0.5-4.8-0.3-7c0.2-2.2,0.7-4.2,1.6-5.9c0.8-1.7,2-3.2,3.6-4.3c1.5-1.2,3.5-1.9,5.8-2.3c2.3-0.4,4.3-0.2,6.2,0.4
		c1.8,0.6,3.4,1.6,4.8,3c1.3,1.4,2.4,3.1,3.3,5.1c0.9,2,1.5,4.3,1.9,6.8c0.4,2.5,0.5,4.8,0.3,7c-0.2,2.2-0.7,4.1-1.6,5.8
		c-0.8,1.7-2.1,3.2-3.6,4.3S46.6,39.4,44.3,39.8z M43.2,32.2c1.3-0.2,2.2-1.2,2.7-2.9c0.5-1.7,0.5-4.2,0-7.4
		c-0.5-3.2-1.3-5.6-2.3-7.1c-1-1.5-2.2-2.1-3.5-1.9c-1.4,0.2-2.3,1.2-2.8,2.9c-0.5,1.7-0.5,4.2,0,7.4c0.5,3.2,1.3,5.5,2.3,7
		C40.7,31.8,41.9,32.4,43.2,32.2z"/>
	<path class="st2" d="M75,34.8c-2.3,0.4-4.3,0.3-6.2-0.3c-1.8-0.6-3.4-1.6-4.7-2.9c-1.3-1.4-2.4-3-3.3-5c-0.9-2-1.5-4.2-1.9-6.7
		c-0.4-2.5-0.5-4.8-0.3-7c0.2-2.2,0.7-4.2,1.6-5.9c0.8-1.7,2-3.2,3.6-4.3c1.5-1.2,3.5-1.9,5.8-2.3C71.9-0.2,74,0,75.8,0.6
		c1.8,0.6,3.4,1.6,4.8,3C81.9,5,83,6.7,83.8,8.7c0.9,2,1.5,4.3,1.9,6.8c0.4,2.5,0.5,4.8,0.3,7c-0.2,2.2-0.7,4.1-1.6,5.8
		c-0.8,1.7-2.1,3.2-3.6,4.3C79.2,33.7,77.3,34.5,75,34.8z M73.9,27.2c1.3-0.2,2.2-1.2,2.7-2.9c0.5-1.7,0.5-4.2,0-7.4
		c-0.5-3.2-1.3-5.6-2.3-7.1c-1-1.5-2.2-2.1-3.5-1.9c-1.4,0.2-2.3,1.2-2.8,2.9c-0.5,1.7-0.5,4.2,0,7.4c0.5,3.2,1.3,5.5,2.3,7
		C71.4,26.8,72.6,27.4,73.9,27.2z"/>
	<path class="st2" d="M94,17L87.3,5c0.4-0.1,1-0.3,1.8-0.5c0.9-0.2,1.9-0.4,3-0.6c0.9-0.1,1.7-0.2,2.6-0.3c0.8-0.1,1.4-0.1,1.6-0.1
		l5.4,11.8l1.4-12.9c0.3-0.1,0.8-0.3,1.6-0.5c0.8-0.2,1.6-0.4,2.5-0.5c1.1-0.2,2.1-0.3,3-0.4c0.9-0.1,1.5-0.1,1.9-0.1l-2.6,13.5
		l7.9,12.8c-0.4,0.1-0.9,0.3-1.7,0.5c-0.8,0.2-1.7,0.4-2.7,0.6c-1,0.2-1.9,0.3-2.7,0.3c-0.8,0-1.3,0.1-1.6,0L102,16.3l-2.6,13.9
		c-0.3,0.1-0.8,0.3-1.5,0.5c-0.7,0.2-1.6,0.4-2.4,0.5c-1.1,0.2-2.1,0.3-3,0.3c-0.9,0-1.5,0-1.9,0L94,17z"/>
</g>
</svg>
