<?xml version="1.0" encoding="utf-8"?>
<!-- Generator: Adobe Illustrator 27.5.0, SVG Export Plug-In . SVG Version: 6.00 Build 0)  -->
<svg version="1.1" id="Group_213" xmlns="http://www.w3.org/2000/svg" xmlns:xlink="http://www.w3.org/1999/xlink" x="0px" y="0px"
	 viewBox="0 0 141.9 106.2" style="enable-background:new 0 0 141.9 106.2;" xml:space="preserve">
<style type="text/css">
	.st0{clip-path:url(#SVGID_00000150065853982601361130000011560583635191786926_);}
	.st1{fill:#541226;}
	.st2{fill:#FFFFFF;}
	.st3{enable-background:new    ;}
</style>
<g>
	<defs>
		<rect id="SVGID_1_" width="141.9" height="106.2"/>
	</defs>
	<clipPath id="SVGID_00000007408398508880151900000011539064865505212841_">
		<use xlink:href="#SVGID_1_"  style="overflow:visible;"/>
	</clipPath>
	
		<g id="Group_212" transform="translate(0 0)" style="clip-path:url(#SVGID_00000007408398508880151900000011539064865505212841_);">
		<path id="Path_2350" class="st1" d="M140.5,65.2c-0.2,0-0.4,0-0.5,0.1c-9.1,1.1-20.1,1.7-27-4.7l0,0c2.1-5.5,3.4-11.3,3.9-17.2
			c0.4-4.5,0.1-9-0.9-13.4c-1.9-8.7-6.6-11.8-14.8-16.5C90,6.9,75.7,2.6,63.6,6C38,13.1,15.3,36.1,12.9,63.2
			c-0.6,6.2,0.2,12.4,2.5,18.2c0.4,0.9,0.8,1.9,1.2,2.8c0.1,0.1,0.1,0.2,0.2,0.3c2,4.2,4.6,8.1,7.8,11.4c4.9,5.3,10.7,9.3,18,10.1
			c7.4,0.7,14.8,0.1,21.9-1.8c11-2.9,21.2-8.4,29.6-16.1c0.4-0.1,0.7-0.2,1.1-0.3c2.3-0.6,4.7-0.9,7.1-1.5c4.7-1.2,9.3-2.7,13.7-4.5
			c9-3.6,17.5-8.3,25.3-14.1C142.3,66.9,142,65,140.5,65.2"/>
		<path id="Path_2351" class="st2" d="M128.7,63.9c-0.2-0.2-0.5-0.3-0.8-0.2c-8.7,0.8-19.3,1.2-26.1-4.5c-0.4-0.3-0.8-0.7-1.2-1.1
			c2.3-5.4,3.8-11.2,4.4-17c0.5-4.1,0.4-8.3-0.3-12.5c-1.5-9.1-6-17.5-14.2-22.7c-11-6.9-25.3-7-37.6-4C27.1,8,3.7,30.3,0.3,57.3
			c-1,7.2,0,14.4,3,21.1c0,0.1,0.1,0.2,0.1,0.3C3.6,79,3.8,79.5,4,79.9c1.8,3.8,4.1,7.3,6.9,10.4c4.7,5.5,10.4,9.7,17.7,10.7
			c7.3,1,14.8,0.6,22-1c11.1-2.5,21.5-7.7,30.1-15.1c0.4-0.1,0.7-0.2,1.1-0.2c2.4-0.5,4.7-0.8,7.1-1.3c4.7-1,9.3-2.4,13.9-4
			c9.1-3.3,17.8-7.7,25.8-13.2c0.7-0.5,0.8-1.4,0.3-2C128.8,64,128.7,63.9,128.7,63.9"/>
		<g class="st3">
			<path class="st1" d="M45.4,67.6c0.3,0.6,0.2,1.2-0.4,1.8l-1.6,0.1l-0.4,0.2l-0.6-0.1L41.9,70l-0.8-0.4l-0.4,0l-0.9-0.5l-1-0.3
				l-0.2-0.3l-0.4-0.1L38,68l-0.7-0.1l-1.6-1.1l-0.5-0.2l-0.7-0.8l-0.8-0.3L33,65.7l-0.5,0.9l-0.3-0.1l-0.3,0.6l-0.4-0.3
				c-0.1,0.1-0.3,0.2-0.5,0.3c-0.2,0.1-0.4,0.2-0.5,0.3l-0.3,0.2l-0.5,0.8L29,68.7l-0.1,0.1l-0.3,0.6L28,69.5
				c-0.4,0.2-0.7,0.4-1,0.4L26.8,70l-0.6,0.9l-0.5-0.2L25,70.9l-0.1,0.2c-0.1,0.9-0.2,1.6-0.3,2l-0.4,0.4c-0.1,1.7-0.3,2.6-0.4,2.9
				l-0.1,0.1l-0.3,1.9l-0.1,0.1l-0.1,1.4l-0.8,1.4c-0.2,0.2-0.4,0.3-0.5,0.4c-0.4,0.2-0.9,0.3-1.4,0.2l-0.1-1L20,80.3l0-0.2
				l-0.3-0.7l0.9-0.7l0.2-0.3c0.2-0.3,0.2-0.6,0.1-1c0.3-0.3,0.4-0.7,0.3-1.1c0.4-0.7,0.5-1.4,0.3-2.1l0.4-0.5l0.1-1.7
				c-0.3-0.1-0.6-0.4-0.9-0.7l0.4-1l-0.4-0.6l1.3-0.7l0.2-0.4c-0.1-0.4,0-0.8,0.2-1.2l-0.3-0.7l0.5-0.8c0-0.1,0.1-0.2,0.3-0.4
				l-0.1-0.2c-0.1-0.2-0.2-0.4-0.2-0.6c0.3-0.6,0.2-1.2-0.1-1.8l0.4-0.4l0-0.4l0.2-0.2l-0.1-1.5l0.2-0.1l0.2-0.3l-0.5-0.8l0.2-0.1
				c0.2-0.9,0.2-1.5,0.1-1.6l0.1-0.2l-0.5-0.4c0.1-0.9,0.4-1.5,0.7-1.7l0.3-0.9l1.1,0.3l1.2,0l0.6,0.8c0.2,0.1,0.4,0.1,0.5,0.2
				c0.5,0.2,0.9,0.5,1.2,0.8l0.7,0.7l0.9,0.4l0.9,0.9l0.4,0.5l1,0.4l0,0.3l0.4,0.1l0.4,0.7l0.4,0.5c0.1,0.4,0.2,0.5,0.1,0.4l0.3,0.1
				l0.4,0.1c0.3-0.2,0.5-0.3,0.6-0.5l1-0.6c0.2-0.1,0.3-0.1,0.4-0.2c0.1-0.1,0.2-0.2,0.3-0.4c0.1-0.2,0.3-0.4,0.6-0.5
				c0.2-0.1,0.6-0.2,1.2-0.3l1-0.5c0.1,0.2,0.2,0.3,0.3,0.4c0.2,0.3,0.2,0.7,0,1l-0.6,0.1L39,61.4l-0.8,0.3L38,62.1l-0.7,0.5
				l-0.1-0.1l-0.7,0.7l0.1,0.2l0.5,0.7l0.8,0.3l0.4,0.5l1.4,0.6l0.1,0.4l0.5,0.1l1.5,0.7l0.9,0.2l0.3,0.2l0.8-0.1l0.5,0.4L45.4,67.6
				z M32.1,63.5L32.1,63.5l-0.6-0.1l0.2-0.6c-0.3,0-0.5-0.2-0.7-0.5l-0.3,0l-1-1.2l-0.7-0.3l-0.4-0.5l-0.1-0.1l-0.2,0.1l-0.8-1.1
				l-0.5-0.3l-0.2,0l-0.2-0.1l0,0.3l-0.2,1.4l0.1,0.7l-0.3,1l0.2,0.7l-0.6,0.8c0.3,0.7,0.2,1.4-0.2,2l0.2,0.8l-0.2,0.7l0.3-0.2
				c0.5-0.1,0.8-0.2,1.1-0.4l0.1-0.1c0.1-0.1,0.2-0.3,0.3-0.3c0.2-0.1,0.4-0.1,0.6-0.2l0.2,0c0.1-0.1,0.3-0.2,0.6-0.4
				c0.3-0.2,0.6-0.3,0.8-0.4l1.1-0.8l1-0.1C31.9,63.9,32.1,63.7,32.1,63.5C32.1,63.5,32.1,63.5,32.1,63.5L32.1,63.5z"/>
			<path class="st1" d="M64.3,51.6c0.3,0.6,0.1,1.1-0.6,1.6c-0.1,0.3-0.3,0.6-0.6,0.7l-1.1,0.9l-0.6,0.3l-0.3,0.6l-0.8,0.4l-0.1,0.4
				l-1.6,0.9l-0.6,1l-0.2,0.1c-0.2,0.1-0.3,0.2-0.3,0.2l-0.1,0.3c-0.1,0.2-0.3,0.4-0.5,0.5c-0.1,0.1-0.3,0.1-0.6,0.1l-0.6,0.6
				l-0.7,0.5l-0.6,0.7l-1.9,1.1l-1.2,0.4l-0.9,0.5l-0.4-0.1l-0.6,0.3c-1.4-0.2-2.5-0.5-3.3-1.1c-0.5-0.4-0.9-0.9-1.4-1.3l-0.6-0.5
				l-0.3-1.3l-1-1.2l0.2-0.4L42,56.9l-0.2-0.8l-0.4-1.1l-1.2-2l0-0.7l-0.1-0.3l-0.7-1.2l0-0.4l-0.4-0.1l-0.3-1.4l0.1-0.1l-0.5-0.4
				l0.5-0.7c0.2-0.5,0.3-0.8,0.5-1l0.9-0.4l1.7,1.1l-0.2,0.6c0.2,0.1,0.4,0.2,0.5,0.4l0.2,1.2l0.7,1.1l0.3,1.2l0.5,1l0.6,2.3
				l0.2,0.3c0.1,0.2,0.2,0.5,0.3,0.7l0.2,0.5l0.3,0.6l0.7,1l0.1,0.3l1.1,1.3l1.1,0.7l0.1,0.1l1.6,0l1.9-0.9l0.5-0.3l1.1-1l0.9-0.5
				l0.1-0.3l1.8-1.1l0.2-0.6l1.3-0.8l0.5-0.5l2.1-1.4l0.7-0.8c0.2-0.1,0.5-0.3,0.8-0.4l0.2-0.5c0.2-0.3,0.4-0.5,0.7-0.6
				C63.4,51,63.9,51.1,64.3,51.6z"/>
			<path class="st1" d="M82.1,33.6l0.1,0.9l0.5,1.2l-0.2,0.5c0.4,1,0.4,1.7,0,2.3l-0.2,0.2l-1.2,2.5l-0.4,0.7l-0.3,1.6l-0.6,0.2
				l-0.2,0.5l-0.5,0.6l-1.1,1.8c-0.2,0-0.4,0-0.7,0c0,0.3-0.2,0.6-0.5,0.9l-0.1,0.1l-0.3,0.9l-0.2,0l-0.6,0.4l-0.2,0.4l-1.3,0.7
				l-1.4,1.3l-0.2,0.1c-0.2,0.1-0.3,0.2-0.6,0.3l-1,0.4L70.6,52l-1.4,0.6l-0.7,0.1l-0.8,0.5l-0.2-0.4l-1-0.3l-1,0.1l-1-0.8L64,51
				l-0.3-0.1l-0.9-1.5l-0.3-1.6L62,47.1l0-0.2l-0.4-0.6l0.2-0.7l-0.2-0.3l0-0.5l-0.2-0.3l0-0.2L61,43.9l0.3-0.7l-0.1-1.7l0.2-2.7
				l0.2-0.4c0-0.1,0-0.3,0-0.6l0.2-0.5l-0.3-0.5l0.4-0.4c0.2-0.5,0.4-0.9,0.7-1.2l0-0.3c0.1-0.2,0.6-0.6,1.5-1.3l0.8-0.7l1.1-0.5
				l0.6-0.4l0.9-0.5l0.2-0.1l0.1-0.1l0.2-0.1l0.2-0.1l1.1-0.6l0,0.2l0.6-0.2c0.1-0.1,0.1-0.3,0-0.4c0.2,0.2,0.5,0.1,0.9-0.1l0.4,0.1
				l1-0.6l2.8-0.3l0.7,0.6l0.4,0.2l0.7-0.1l1.7,0.9l0.9,0.3c1.4,1,2.2,1.7,2.3,1.9L82.1,33.6z M79.7,35.2L79,34.4l0-0.4l-0.6-0.4
				c0-0.1,0-0.1-0.1-0.2c0-0.1-0.1-0.1-0.2-0.1l-0.8,0l-0.5-0.4l-0.3,0.1l-0.4-0.4L75,32.2l-0.7-0.1l-0.1,0.2
				c-0.8-0.1-1.9,0.1-3.4,0.6c-0.2,0.1-0.3,0.2-0.3,0.2l-0.2,0.1l-0.7,0.2l-0.2,0.4c-0.4,0.1-0.6,0.1-0.7,0.2c0,0-0.1,0.1-0.2,0.2
				c-0.1,0.1-0.2,0.2-0.3,0.3s-0.2,0.1-0.3,0.2c0,0.3-0.2,0.8-0.7,1.3l-0.5,0.2l-0.3,0.5l-0.6,0.3c-0.2,0.5-0.5,1.1-0.8,1.8l0,0.3
				l0.3,0.8l-0.6,0.8l0,0.2c0,0.3,0,0.7-0.1,1l0.3,0.6l-0.3,0.5L64.4,43l0.3,1.2l-0.3,0.5c0.6,1.2,0.9,2,0.8,2.7
				c0,0.3,0.1,0.7,0.3,1.2l0.1,0.4l0.2,0.2l0.4,0.4l0.6,0.2l0.3,0.4l0.5,0.1c0.8,0,1.5-0.1,2-0.4l1.2-1.2l0.5,0.1l0.4-0.2l0-0.1
				l0.9-0.8l1.2-0.4c0.1-0.3,0.2-0.5,0.5-0.6c0.3-0.6,0.7-1,1-1.2l0.5-0.8l0.5-0.3l0.2-0.6l1-0.6c0.1-0.1,0.2-0.1,0.3-0.2l0-0.1
				c0-0.3,0.2-0.6,0.4-0.8l-0.1-1.1l0.4,0l0.2-0.3l0.2-0.7l0.2,0l0.3-0.7l0.4-1.6l0.4-0.4l-0.1-0.6l0.2-0.3l-0.2-0.3L79.7,35.2z"/>
		</g>
	</g>
</g>
</svg>
