<svg xmlns="http://www.w3.org/2000/svg" xmlns:xlink="http://www.w3.org/1999/xlink" width="88.822" height="71.482" viewBox="0 0 88.822 71.482">
  <defs>
    <clipPath id="clip-path">
      <rect id="Rectangle_104" data-name="Rectangle 104" width="45.881" height="77.261" fill="none"/>
    </clipPath>
  </defs>
  <g id="Group_186" data-name="Group 186" transform="translate(17.188 71.482) rotate(-112)">
    <g id="Group_185" data-name="Group 185" transform="translate(0 0)" clip-path="url(#clip-path)">
      <path id="Path_2330" data-name="Path 2330" d="M25.775,59.8c-.282.478-.329.834.224.915.433.063.754.208.747.672a1.07,1.07,0,0,0,.619,1.107c.456.229.413.621.073.921a9,9,0,0,1-1.126.79q-6.191,3.962-12.382,7.913c-1.551.988-3.073,2.027-4.68,2.914-1.4.775-2.9,1.368-4.356,2.046a1.531,1.531,0,0,1-1.72-.184,2.888,2.888,0,0,0-.92-.655c-.8-.2-.976-.59-.7-1.334A.959.959,0,0,0,1.131,73.7c-.865-.452-.817-1.174-.8-1.966.08-4.9.191-9.793.172-14.688C.493,54.833.207,52.622.051,50.41a6.372,6.372,0,0,1-.036-1.138c.009-.084.353-.184.543-.183.459,0,.259.949.906.682a7.012,7.012,0,0,0,.926-.592,12.764,12.764,0,0,0,2.481-1.565c.5-.483,1.044-.827,1.194-1.554.017-.084.244-.177.363-.167s.326.131.343.23a12.612,12.612,0,0,1,.247,1.8c.13,3.747.234,7.5.348,11.244.009.305-.007.614.029.916.015.126.167.343.217.333a.989.989,0,0,0,.563-.253,4.412,4.412,0,0,0,.415-.816q2.191-4.425,4.381-8.852c.068-.136.114-.285.186-.42.749-1.413,2.071-1.8,3.15-.681a2.731,2.731,0,0,0,2.817.875c.93-.183,1.326.133,1.466.957a4.09,4.09,0,0,1-.674,3.462,37.061,37.061,0,0,0-2.107,3.284,7.517,7.517,0,0,0-.585.988c-.589,1.356-1.658,2.541-1.52,4.163a11.424,11.424,0,0,0,3.83-1.931,6.334,6.334,0,0,1,3.609-1.269c.621.027,1.254-.488,1.9-.693a2.338,2.338,0,0,1,.814.046c-.034.208-.067.415-.084.522m.933-36.44a8.323,8.323,0,0,0-.979,1.264c-2.448,4.061-4.683,8.239-6.751,12.5a9.01,9.01,0,0,0-.669,1.7c-.1.382.123.879.578.769.937-.225,1.3.13,1.3,1,0,1.257,1.06,1.585,1.865,2.1a.958.958,0,0,0,.839-.152,5.961,5.961,0,0,0,.7-.9c.4-.459.648-.415,1.061.126.22.287.423.711.715.792.495.136.829-.288,1.053-.7a8.8,8.8,0,0,0,.578-1.249,67.02,67.02,0,0,1,5.663-11.5c.85-1.447.585-1.288-.549-2.064a2.716,2.716,0,0,0-1.768-.247c-.51.009-.858-.136-.966-.725-.1-.573-.543-.626-1.058-.529-1.126.215-1.186.142-.863-.843a4.385,4.385,0,0,0,.278-1.068c.009-.169-.244-.35-.4-.556-.227.1-.486.126-.619.273m4.428-8.2a1.293,1.293,0,0,0,.976,1.575,1.321,1.321,0,0,1,.22.068c1.182.624,2.6.923,3.105,2.455.123.369.662.355,1.01.126a3.9,3.9,0,0,0,.638-.64,12.57,12.57,0,0,0,1.839-2.01c.491-.821.613-1.851,1.041-2.72q1.518-3.081,3.18-6.088c.778-1.4,1.7-2.709,2.511-4.088.409-.694.268-1.206-.514-1.42a1.19,1.19,0,0,1-1.06-1.208c-.058-.565-.549-.662-1.048-.4-.345.177-.659.346-1.024,0A2.827,2.827,0,0,0,40.959.025c-.642-.164-.836.522-1.2.882a1.044,1.044,0,0,1-.565.346c-1.133.068-1.442.954-1.885,1.762-1.9,3.481-3.835,6.942-5.753,10.414-.181.328-.324.676-.413.865,0,.409.014.642-.009.868" transform="translate(0 0.001)" fill="#5abfc0" fill-rule="evenodd"/>
    </g>
  </g>
</svg>
