<svg xmlns="http://www.w3.org/2000/svg" xmlns:xlink="http://www.w3.org/1999/xlink" width="70.76" height="39.74" viewBox="0 0 70.76 39.74">
  <defs>
    <clipPath id="clip-path">
      <rect id="Rectangle_106" data-name="Rectangle 106" width="70.76" height="39.74" fill="none"/>
    </clipPath>
  </defs>
  <g id="Group_190" data-name="Group 190" transform="translate(0 0)">
    <g id="Group_189" data-name="Group 189" transform="translate(0 0)" clip-path="url(#clip-path)">
      <path id="Path_2332" data-name="Path 2332" d="M54.322,16.2c.44.238.763.27.817-.232.041-.391.16-.684.579-.7a.961.961,0,0,0,.976-.594c.191-.416.545-.393.828-.1a7.976,7.976,0,0,1,.748.987q3.771,5.438,7.534,10.878c.943,1.363,1.93,2.7,2.781,4.115.745,1.234,1.328,2.565,1.988,3.852a1.376,1.376,0,0,1-.111,1.554,2.626,2.626,0,0,0-.557.85c-.153.723-.5.9-1.176.676a.863.863,0,0,0-1.073.42c-.379.795-1.03.775-1.743.791-4.409.09-8.818.155-13.226.334-1.989.082-3.971.413-5.954.628a5.714,5.714,0,0,1-1.024.069c-.075,0-.178-.311-.182-.482-.011-.412.845-.265.585-.838a6.293,6.293,0,0,0-.564-.813,11.506,11.506,0,0,0-1.49-2.181c-.452-.434-.782-.912-1.44-1.023-.076-.012-.167-.213-.163-.321s.106-.3.2-.318a11.448,11.448,0,0,1,1.61-.282c3.37-.242,6.738-.463,10.109-.69.274-.018.551-.014.824-.058.112-.018.3-.16.292-.206a.9.9,0,0,0-.247-.5,3.883,3.883,0,0,0-.748-.346l-8.112-3.648c-.126-.055-.261-.093-.384-.153-1.3-.626-1.695-1.8-.719-2.811a2.455,2.455,0,0,0,.692-2.564c-.194-.832.076-1.2.814-1.35a3.682,3.682,0,0,1,3.139.489,33.479,33.479,0,0,0,3.024,1.787,6.892,6.892,0,0,0,.909.493c1.24.484,2.343,1.407,3.8,1.229a10.27,10.27,0,0,0-1.867-3.382,5.7,5.7,0,0,1-1.262-3.205c0-.561-.481-1.113-.687-1.689a2.027,2.027,0,0,1,.014-.734l.471.057M21.5,16.58a7.533,7.533,0,0,0,1.171.838c3.737,2.069,7.57,3.941,11.48,5.659a8.179,8.179,0,0,0,1.552.543c.348.075.788-.138.675-.545-.235-.836.072-1.172.86-1.2,1.131-.04,1.39-1.006,1.829-1.75a.854.854,0,0,0-.164-.749,5.169,5.169,0,0,0-.829-.6c-.427-.341-.4-.569.076-.958.25-.209.629-.406.69-.67.108-.451-.286-.737-.669-.925a7.929,7.929,0,0,0-1.143-.478,60.3,60.3,0,0,1-10.54-4.712c-1.331-.716-1.179-.482-1.841.564a2.453,2.453,0,0,0-.163,1.6c.026.457-.093.777-.621.893-.511.113-.546.51-.441.97.234,1.006.169,1.062-.727.806a3.869,3.869,0,0,0-.972-.214c-.153,0-.307.229-.488.379.094.2.131.435.267.55m-7.525-3.711a1.162,1.162,0,0,0,1.384-.932,1.174,1.174,0,0,1,.055-.2c.521-1.086.742-2.37,2.105-2.878.328-.123.3-.607.079-.912a3.562,3.562,0,0,0-.6-.554,11.468,11.468,0,0,0-1.871-1.588c-.753-.413-1.686-.489-2.481-.846Q9.82,3.7,7.059,2.3C5.776,1.65,4.562.862,3.3.179c-.64-.344-1.1-.2-1.262.509a1.071,1.071,0,0,1-1.05,1c-.507.07-.576.516-.329.956.173.3.333.581.033.921a2.559,2.559,0,0,0-.672.976c-.124.582.5.735.835,1.048a.942.942,0,0,1,.329.5c.1,1.017.907,1.266,1.652,1.636,3.194,1.6,6.375,3.22,9.565,4.831.3.152.619.268.792.341.369-.011.575-.033.782-.021" transform="translate(0 0)" fill="#f5b8cb" fill-rule="evenodd"/>
    </g>
  </g>
</svg>
