<svg xmlns="http://www.w3.org/2000/svg" xmlns:xlink="http://www.w3.org/1999/xlink" width="182.719" height="85.173" viewBox="0 0 182.719 85.173">
  <defs>
    <clipPath id="clip-path">
      <rect id="Rectangle_105" data-name="Rectangle 105" width="182.719" height="85.173" fill="none"/>
    </clipPath>
  </defs>
  <g id="Group_188" data-name="Group 188" transform="translate(0 0)">
    <g id="Group_187" data-name="Group 187" transform="translate(0 0)" clip-path="url(#clip-path)">
      <path id="Path_2331" data-name="Path 2331" d="M40.238,79.8c-.724.27-1.087.614-.56,1.185.412.447.631.883.221,1.382a1.48,1.48,0,0,0-.3,1.737c.292.645-.1,1.033-.729,1.06a12.508,12.508,0,0,1-1.909-.133Q26.8,83.9,16.651,82.748c-2.54-.29-5.094-.5-7.607-.947-2.194-.39-4.334-1.06-6.5-1.6a2.12,2.12,0,0,1-1.7-1.7,4.027,4.027,0,0,0-.42-1.514c-.69-.913-.54-1.492.407-2.056a1.331,1.331,0,0,0,.6-1.671c-.542-1.247.147-1.985.852-2.829C6.663,65.2,11.068,60,15.335,54.7c1.929-2.4,3.553-5.036,5.32-7.563a8.892,8.892,0,0,1,.96-1.261c.083-.083.542.11.746.28.493.4-.55,1.252.383,1.529a9.89,9.89,0,0,0,1.517.172,17.93,17.93,0,0,0,4.052.481,4.3,4.3,0,0,0,2.653-.636c.091-.074.42.022.537.137a.636.636,0,0,1,.172.55,17.534,17.534,0,0,1-1.31,2.162C27.223,54.711,24.054,58.853,20.9,63c-.258.339-.547.658-.771,1.016-.093.15-.12.518-.056.55a1.377,1.377,0,0,0,.829.221,6.174,6.174,0,0,0,1.161-.518l12.486-5.733c.194-.088.373-.209.569-.292,2.047-.871,3.816-.135,4,2.025a3.8,3.8,0,0,0,2.277,3.411c1.166.616,1.318,1.3.746,2.317a5.686,5.686,0,0,1-3.76,3.151,52.323,52.323,0,0,0-5.153,1.706,10.811,10.811,0,0,0-1.5.555c-1.823.952-4.015,1.3-5.288,3.171,1.811,1.018,3.863.984,5.831,1.266,1.806.255,3.531.479,5.011,1.786.648.574,1.784.572,2.663.918.331.128.564.5.839.761-.216.2-.434.39-.545.491m32.91-38.567a11.573,11.573,0,0,0-2.164.51c-6.2,2.243-12.275,4.8-18.245,7.6A12.647,12.647,0,0,0,50.528,50.6c-.439.326-.638,1.058-.049,1.337,1.212.577,1.288,1.276.523,2.218-1.1,1.357-.24,2.64.174,3.907a1.335,1.335,0,0,0,1.04.572,8.291,8.291,0,0,0,1.539-.358c.832-.15,1.065.118,1.038,1.063-.015.5-.167,1.141.079,1.482.415.582,1.148.415,1.755.162a12.235,12.235,0,0,0,1.718-.842,92.864,92.864,0,0,1,16.191-7.475c2.184-.82,1.76-.881,1.212-2.712-.277-.93-1.036-1.3-1.693-1.816a1.128,1.128,0,0,1-.41-1.629c.39-.709-.037-1.151-.68-1.5-1.4-.753-1.4-.883-.2-1.666a5.932,5.932,0,0,0,1.237-.913c.157-.172.044-.591.054-.952a2.492,2.492,0,0,0-.91-.248M85.11,36.254a1.8,1.8,0,0,0-.324,2.557,1.425,1.425,0,0,1,.177.265c.734,1.71,2,3.274,1.21,5.372-.191.506.4.964.979,1.021a5.484,5.484,0,0,0,1.252-.133,17.548,17.548,0,0,0,3.747-.562c1.249-.456,2.282-1.463,3.507-2.027q4.336-2.006,8.768-3.8c2.061-.829,4.209-1.44,6.29-2.218,1.05-.393,1.347-1.07.69-1.983a1.658,1.658,0,0,1-.088-2.236c.432-.66-.015-1.2-.778-1.355-.53-.108-1.016-.2-1.1-.9a3.952,3.952,0,0,0-.452-1.772c-.552-.739-1.362-.169-2.069-.1a1.462,1.462,0,0,1-.913-.12c-1.286-.918-2.393-.233-3.58.255-5.1,2.1-10.226,4.145-15.335,6.218-.483.194-.945.447-1.2.572-.361.442-.547.707-.771.933m63.04-14.432c.091-.182.243-.415.191-.564a.606.606,0,0,0-.5-.312c-.731.115-1.445.334-2.177.432-.272.037-.761-.093-.825-.267a2.126,2.126,0,0,1-.025-1.207c.071-.27.378-.486.6-.7,1.44-1.379,1.438-1.367-.329-2.064a3.044,3.044,0,0,1-1.369-.729c-.628-.883-1.708-.834-2.442-1.409a2.248,2.248,0,0,0-2.388-.287c-3.082,1.158-6.186,2.255-9.256,3.45-2.771,1.077-5.426,2.569-8.282,3.269-2.044.5-2.3,1.944-2.9,3.3a4.277,4.277,0,0,0,.037,1.877c.113,1.477,1.72,3.085,3.148,2.879,1.094-.155,2.044-.331,2.933.513a1.144,1.144,0,0,0,.9.108c1.855-.456,3.725-.879,5.544-1.463,2.326-.746,4.618-1.6,6.9-2.469,3.374-1.288,6.724-2.633,9.575-3.755.51-.459.618-.515.66-.6M176.852.2a120.1,120.1,0,0,0-14.2,5.725c-2.64,1.357-5.367,2.55-8.083,3.75a3.9,3.9,0,0,0-1.681,1.384c-1.242,1.742-1.229,1.826.773,2.358.41.108.8.3,1.207.4.643.162.694.6.766,1.18.152,1.207.385,1.347,1.308,1.19a30.054,30.054,0,0,0,3.436-.584q4.13-1.211,8.2-2.616c4.42-1.529,8.81-3.136,13.212-4.712a1.181,1.181,0,0,0,.883-1.467c-.167-.66-.5-1.207-1.261-1.234-.525-.017-1.053.1-1.58.115a.715.715,0,0,1-.535-.238.569.569,0,0,1,.061-.542c.275-.317.631-.56.928-.861a1.543,1.543,0,0,0,.277-2.24c-.169-.267-.361-.523-.466-.677A2.8,2.8,0,0,0,176.852.2" transform="translate(-0.001 0.001)" fill="#fff" fill-rule="evenodd"/>
    </g>
  </g>
</svg>
