<svg id="Group_176" data-name="Group 176" xmlns="http://www.w3.org/2000/svg" xmlns:xlink="http://www.w3.org/1999/xlink" width="824.959" height="798.111" viewBox="0 0 824.959 798.111">
  <defs>
    <clipPath id="clip-path">
      <rect id="Rectangle_98" data-name="Rectangle 98" width="824.959" height="798.111" fill="none"/>
    </clipPath>
  </defs>
  <g id="Group_175" data-name="Group 175" clip-path="url(#clip-path)">
    <path id="Path_2301" data-name="Path 2301" d="M396.558,512.835c5.857,12.111,11.962,24.455,14.024,37.9.237,1.493.547,3,.864,4.524.9,4.321,1.889,8.72,1.351,13.084-.944,7.779-7.3,10.1-13.459,13.563-7.042,3.976-20.476,9.9-24.024-1.416a18.748,18.748,0,0,1-.552-2.18c-.811-3.863-.773-7.868-1.571-11.772-2.5-5.645-4.584-11.487-7.711-16.844a136.163,136.163,0,0,0-17.361-23.569c-23.07-25.115-51.188-45.393-79.842-64.976-25.258-17.237-50.927-33.94-73.982-52.964a109.78,109.78,0,0,1-16.948-17.135,92.444,92.444,0,0,1-5.753-8.293c-2.5-4.086-3.468-8.659-5.612-12.917-.2-.421.4-.7.64-.308,4.166,6.881,11.209,13.444,16.8,19.318a116.959,116.959,0,0,0,16.764,14.712c11.754,8.371,25.451,14.764,39.7,17.386,5.478,1,12,.462,16.968,3.32,6.16,3.556,7.221,11.083,11.395,16.319,8.222,10.315,24.764,15.282,35.425,5.871,2.689-2.373,6.119-1.1,7.837,1.587,7.958,12.436,24.727,19.187,38.144,11.492a4.845,4.845,0,0,1,4.961.349c3.441,2.926,6.917,5.817,10.387,8.731a1.564,1.564,0,0,1,2.4-1.411c4.35,3.24,7.709,7.73,10.723,12.4q3.373,2.817,6.753,5.646a14.869,14.869,0,0,0-1.667,2.649c.239.388.476.776.7,1.169,4.622,7.684,8.745,15.692,12.645,23.757" transform="translate(94.825 211.06)" fill="#ecebeb"/>
    <path id="Path_2302" data-name="Path 2302" d="M500.617,407.127a167.689,167.689,0,0,1,15.793,28.5,174.2,174.2,0,0,1,9.908,29.738c.8,3.484,1.952,7.6,2.692,11.8.885,5.085,1.146,10.3-.646,14.739-3.075,7.534-14.5,13.246-21.808,16.36-5.869,2.486-12.106,1.85-14.49-4.15a28.342,28.342,0,0,1-1.444-5.517c-.5-2.739-.83-5.563-1.524-8.176a88.568,88.568,0,0,0-6.861-17.925,91.892,91.892,0,0,0-8.589-13.6c-2.5-3.265-5.7-5.836-7.615-9.268-1.254-1.487-2.53-2.981-3.875-4.375a139.035,139.035,0,0,0-13.939-12.509c-10.849-8.575-22.809-15.708-34.77-22.841-10.911-6.484-20.284-13.327-26.452-24.382-1.054-1.87-1.988-3.8-2.846-5.745l-.033-.035-.011-.094a62.388,62.388,0,0,1-5.343-30.756.32.32,0,0,1,.575-.16,72.589,72.589,0,0,1,4.856,8.86l.163-40.573c-3.478-4.315-5.5-9.334-4.326-15.633.405-2.173,3.96-2.132,4.373-.138l13.485,17.352c6.188,4.347,13.059,8.193,17.518,14.33,4.969,6.878,5.511,15.865,10.989,22.412,5.758,6.883,13.265,6.988,20.85,10.793,5.522,2.791,7.868,8.475,12.4,12.279,4.284,3.591,9.726,5.348,15.329,6.441.773.145,1.556.27,2.335.394a1.636,1.636,0,0,1,1.958-.561c.622.352-3.039-14.53-2.445-14.13,3.927.5,12.84-.816,16.8-.453.047,3.562-.195,23.95.536,27.367-.223-.042-.465-.06-.695-.083,2.569,3.165,4.914,6.487,7.144,9.748" transform="translate(216.311 171.286)" fill="#ecebeb"/>
    <path id="Path_2303" data-name="Path 2303" d="M303.9,435.311l-.071-.014c.655.965.531.739.071.014" transform="translate(173.619 248.747)" fill="#ecebeb"/>
    <path id="Path_2304" data-name="Path 2304" d="M751.3,287.232c-.564-6.814-3.067-13.31-8.461-18.191-7.56-6.831-18.164-8.321-26.006-3.473-7.524-9.077-19.516-13.882-30.728-10.219-8.434,2.755-14.338,9.5-16.948,17.646-6.325-6.809-15.619-10.474-24.815-7.8a21.969,21.969,0,0,0-13.716,11.827c-15.111-5.61-34.27-.33-44.651,14.407-13.015-7.478-32.35-3.187-41.019,9.785a29.585,29.585,0,0,0-13.379-4.034c-15.7-.97-31.647,9.977-33.63,26.418-14.086-3.492-30.877,4.846-36.412,18.279-14.019-5.432-32.007-.017-40.807,12.583-5.121-3.069-11.855-3.382-18.076-1.21-5.855,2.027-10.271,5.956-13.9,10.576-3.914,1.155-7.8,2.4-11.671,3.685-.676-.462-1.344-.91-2.046-1.323a35.46,35.46,0,0,0-18.593-4.98c3.556-11.907-3.72-26.331-15.546-30.312,12.227-19.751,2.433-45.925-20.273-52.034,10.936-19.027-1.072-42.5-21.211-46.871a23.151,23.151,0,0,0,5.249-18.941c-1.8-9.65-9.924-16.745-19.223-18.513,6.078-19.927-4.771-42.844-24.106-50.816,1.647-20.081-8.186-38.646-25.83-48.074,7.549-13.9,8.23-29.68,5.28-45.308A112.17,112.17,0,0,0,229.6,19.422c-3.863-7.362-8.66-15.447-16.973-18.295-16.143-5.563-31.17,10.584-37.132,23.754-8.594,18.983-4.9,43.081-1.336,63.02a19.156,19.156,0,0,0-13.576-5.414c-9.608.09-16.434,5.753-19.9,13.378-1.252-3.214-2.5-6.448-3.751-9.663-2.043-5.194-4.221-10.389-9.234-13.376-8.855-5.285-20.2-.886-27.514,5.047-11.633,9.446-17.781,23.961-18.054,38.6A104.417,104.417,0,0,0,54.8,93.086c-14.465-8.5-34-13.043-47.522-.121-14.039,13.441-4.9,33.784,3.581,47.624a110.73,110.73,0,0,0,40.911,38.97c-4.431,6.633-5.23,14.926-2.885,22.857,3.545,12.006,13.7,20.012,23.688,26.842a41.736,41.736,0,0,0,28.8,60.559c-1.92,11.516-2.775,24.712,5.924,33.624a21.244,21.244,0,0,0,17.457,6.685,37.286,37.286,0,0,0,12.32,34.553,36.908,36.908,0,0,0-2.835,8.272,26.669,26.669,0,0,0,.783,14.852,22.829,22.829,0,0,0,10.3,12.11,25.056,25.056,0,0,0,8.676,3.008c.531,1.168,1.056,2.321,1.608,3.462a59.921,59.921,0,0,0-1.447,14.57c.146,4.219.02,9.641,1.615,14.046a12.7,12.7,0,0,0,2.646,4.4,7.264,7.264,0,0,0,.721.657c1.142,13.136,4.26,26.3,10.274,37.77a26.947,26.947,0,0,0,7.846,9.089,22.317,22.317,0,0,0,3.9,2.338,14.928,14.928,0,0,0,9.534,1.318,94.649,94.649,0,0,0,.393,24.439c.149.932.333,1.865.55,2.766a27.422,27.422,0,0,0,12.708,8.33c2.841.853,4.106,3.676,4.185,6.4.228,8.333,1.516,18.483,5.473,26.455.288.145.575.291.871.416a45.492,45.492,0,0,0,2.14,4.493,20.745,20.745,0,0,0,17.338,8.519c2.814,0,4.75,2.478,5.453,4.9a34.739,34.739,0,0,0,3.7,8.865c2.293,3.633,8.354,4.353,12.218,5,.134,1.073.335,2.148.57,3.225-2.434,9.62,4.152,18.666,10.378,25.372.306.321.625.635.94.937.405.39.561,3.9.789,4.611a22.043,22.043,0,0,0,2.373,5.118,21.129,21.129,0,0,0,8.462,8.071c3.8,1.831,6.833,1.1,10.777,1.153.237,0,.479-.014.715-.009a28.01,28.01,0,0,0,11.571,5.076,24.287,24.287,0,0,0,3.533,2.077c6.3,5.095,14.471,7.61,22.014,5.4,5.637,12.971,20.873,17.214,35.266,20.02,2.832.556,5.618,1.053,8.3,1.546,9,1.677,21.145,6.727,30.115,2.792a10.783,10.783,0,0,0,5.55-5.986c11.443,10.5,28.589,15.259,44.234,7.944,9.146,7.2,18.32,14.394,27.433,21.631q10.214,8.078,20.36,16.255c10.279,8.3,20.7,17.247,27.459,28.789a53.765,53.765,0,0,1,6.473,18.683c.057.291.1.589.143.886.613,4.075.963,8.748,5.618,9.848,8.594,2.043,19.5-2.879,26.2-7.945,9.451-7.133,9.234-15.238,5.143-25.289-.215-.548-.451-1.1-.687-1.661-9.756-22.39-24.948-41.747-40.342-60.623-7.746-9.506-15.615-18.952-22.844-28.842-4.651-6.361-10.437-11.605-5.964-19.984a26.1,26.1,0,0,0,3.171-10.7A38.765,38.765,0,0,0,530.7,606.17c13.277,4.485,28.946-2.642,34.961-15.249A39.539,39.539,0,0,0,604.3,568.63a27.258,27.258,0,0,0,9.268,1.012c11.321-.6,22.6-7.661,27.2-17.962,6.671,2.569,14.762,2.811,20.686-1.879a41.055,41.055,0,0,0,5.761,4.083c10.763,6.388,24.269,8.267,36.814,2.4,2,1.565,4,3.143,5.981,4.714l.006.013c14,11,27.962,22,41.8,33.161,9.633,7.755,19.311,16.059,26.073,26.543a50.7,50.7,0,0,1,7.287,17.317,48.42,48.42,0,0,1,.512,5.113c.262,3.107.745,6.358,2.882,8,6.759,5.209,23.026-2.759,28.911-7.045,7.534-5.52,8.685-13.566,6.463-21.623.02.008.014-.006.014-.006a37.551,37.551,0,0,0-1.8-5c-8.407-19.288-20.85-36.324-33.978-52.727-6.092-13.673-13.632-26.076-26.366-32.936-.742-.981-1.505-1.969-2.227-2.978,1.413-6.848-1.856-14.75-7.12-19.676a18.58,18.58,0,0,0-1.749-1.466,54.022,54.022,0,0,0,2.368-35.741c6.314-4.612,9.422-12.147,9.4-19.674-.014-6.092-2.018-11.171-4.056-16.7-2.1-5.668-.889-11.332-1-17.479-.19-9.675-.8-22.9-6.446-31.027a10.5,10.5,0,0,0-4.127-3.583c-.157-.46-.346-.922-.542-1.362.44-7.852-2.576-15.994-6.531-22.96a16.692,16.692,0,0,0-.794-4.827,27.908,27.908,0,0,0-3.358-6.735l.185-.14c2.354-1.608,5.478-1.729,8.115-2.653,7.882-2.756,10.934-8.571,11.178-15.273,7.368-5.893,12.152-17.17,10.348-25.679-1.589-7.441-7.3-13.392-14.176-16.632m-9.727,46.086a1.764,1.764,0,0,1,.063-.215.941.941,0,0,1,.176.05c-.075.052-.151.105-.239.165" transform="translate(0 0)" fill="#fff"/>
    <path id="Path_2355" data-name="Path 2355" d="M751.3,287.232c-.564-6.814-3.067-13.31-8.461-18.191-7.56-6.831-18.164-8.321-26.006-3.473-7.524-9.077-19.516-13.882-30.728-10.219-8.434,2.755-14.338,9.5-16.948,17.646-6.325-6.809-15.619-10.474-24.815-7.8a21.969,21.969,0,0,0-13.716,11.827c-15.111-5.61-34.27-.33-44.651,14.407-13.015-7.478-32.35-3.187-41.019,9.785a29.585,29.585,0,0,0-13.379-4.034c-15.7-.97-31.647,9.977-33.63,26.418-14.086-3.492-30.877,4.846-36.412,18.279-14.019-5.432-32.007-.017-40.807,12.583-5.121-3.069-11.855-3.382-18.076-1.21-5.855,2.027-10.271,5.956-13.9,10.576-3.914,1.155-7.8,2.4-11.671,3.685-.676-.462-1.344-.91-2.046-1.323a35.46,35.46,0,0,0-18.593-4.98c3.556-11.907-3.72-26.331-15.546-30.312,12.227-19.751,2.433-45.925-20.273-52.034,10.936-19.027-1.072-42.5-21.211-46.871a23.151,23.151,0,0,0,5.249-18.941c-1.8-9.65-9.924-16.745-19.223-18.513,6.078-19.927-4.771-42.844-24.106-50.816,1.647-20.081-8.186-38.646-25.83-48.074,7.549-13.9,8.23-29.68,5.28-45.308A112.17,112.17,0,0,0,229.6,19.422c-3.863-7.362-8.66-15.447-16.973-18.295-16.143-5.563-31.17,10.584-37.132,23.754-8.594,18.983-4.9,43.081-1.336,63.02a19.156,19.156,0,0,0-13.576-5.414c-9.608.09-16.434,5.753-19.9,13.378-1.252-3.214-2.5-6.448-3.751-9.663-2.043-5.194-4.221-10.389-9.234-13.376-8.855-5.285-20.2-.886-27.514,5.047-11.633,9.446-17.781,23.961-18.054,38.6A104.417,104.417,0,0,0,54.8,93.086c-14.465-8.5-34-13.043-47.522-.121-14.039,13.441-4.9,33.784,3.581,47.624a110.73,110.73,0,0,0,40.911,38.97c-4.431,6.633-5.23,14.926-2.885,22.857,3.545,12.006,13.7,20.012,23.688,26.842a41.736,41.736,0,0,0,28.8,60.559c-1.92,11.516-2.775,24.712,5.924,33.624a21.244,21.244,0,0,0,17.457,6.685,37.286,37.286,0,0,0,12.32,34.553,36.908,36.908,0,0,0-2.835,8.272,26.669,26.669,0,0,0,.783,14.852,22.829,22.829,0,0,0,10.3,12.11,25.056,25.056,0,0,0,8.676,3.008c.531,1.168,1.056,2.321,1.608,3.462a59.921,59.921,0,0,0-1.447,14.57c.146,4.219.02,9.641,1.615,14.046a12.7,12.7,0,0,0,2.646,4.4,7.264,7.264,0,0,0,.721.657c1.142,13.136,4.26,26.3,10.274,37.77a26.947,26.947,0,0,0,7.846,9.089,22.317,22.317,0,0,0,3.9,2.338,14.928,14.928,0,0,0,9.534,1.318,94.649,94.649,0,0,0,.393,24.439c.149.932.333,1.865.55,2.766a27.422,27.422,0,0,0,12.708,8.33c2.841.853,4.106,3.676,4.185,6.4.228,8.333,1.516,18.483,5.473,26.455.288.145.575.291.871.416a45.492,45.492,0,0,0,2.14,4.493,20.745,20.745,0,0,0,17.338,8.519c2.814,0,4.75,2.478,5.453,4.9a34.739,34.739,0,0,0,3.7,8.865c2.293,3.633,8.354,4.353,12.218,5,.134,1.073.335,2.148.57,3.225-2.434,9.62,4.152,18.666,10.378,25.372.306.321.625.635.94.937.405.39.561,3.9.789,4.611a22.043,22.043,0,0,0,2.373,5.118,21.129,21.129,0,0,0,8.462,8.071c3.8,1.831,6.833,1.1,10.777,1.153.237,0,.479-.014.715-.009a28.01,28.01,0,0,0,11.571,5.076,24.287,24.287,0,0,0,3.533,2.077c6.3,5.095,14.471,7.61,22.014,5.4,5.637,12.971,20.873,17.214,35.266,20.02,2.832.556,5.618,1.053,8.3,1.546,9,1.677,21.145,6.727,30.115,2.792a10.783,10.783,0,0,0,5.55-5.986c11.443,10.5,28.589,15.259,44.234,7.944,9.146,7.2,18.32,14.394,27.433,21.631q10.214,8.078,20.36,16.255c10.279,8.3,20.7,17.247,27.459,28.789a53.765,53.765,0,0,1,6.473,18.683c.057.291.1.589.143.886.613,4.075.963,8.748,5.618,9.848,8.594,2.043,19.5-2.879,26.2-7.945,9.451-7.133,9.234-15.238,5.143-25.289-.215-.548-.451-1.1-.687-1.661-9.756-22.39-24.948-41.747-40.342-60.623-7.746-9.506-15.615-18.952-22.844-28.842-4.651-6.361-10.437-11.605-5.964-19.984a26.1,26.1,0,0,0,3.171-10.7A38.765,38.765,0,0,0,530.7,606.17c13.277,4.485,28.946-2.642,34.961-15.249A39.539,39.539,0,0,0,604.3,568.63a27.258,27.258,0,0,0,9.268,1.012c11.321-.6,22.6-7.661,27.2-17.962,6.671,2.569,14.762,2.811,20.686-1.879a41.055,41.055,0,0,0,5.761,4.083c10.763,6.388,24.269,8.267,36.814,2.4,2,1.565,4,3.143,5.981,4.714l.006.013c14,11,27.962,22,41.8,33.161,9.633,7.755,19.311,16.059,26.073,26.543a50.7,50.7,0,0,1,7.287,17.317,48.42,48.42,0,0,1,.512,5.113c.262,3.107.745,6.358,2.882,8,6.759,5.209,23.026-2.759,28.911-7.045,7.534-5.52,8.685-13.566,6.463-21.623.02.008.014-.006.014-.006a37.551,37.551,0,0,0-1.8-5c-8.407-19.288-20.85-36.324-33.978-52.727-6.092-13.673-13.632-26.076-26.366-32.936-.742-.981-1.505-1.969-2.227-2.978,1.413-6.848-1.856-14.75-7.12-19.676a18.58,18.58,0,0,0-1.749-1.466,54.022,54.022,0,0,0,2.368-35.741c6.314-4.612,9.422-12.147,9.4-19.674-.014-6.092-2.018-11.171-4.056-16.7-2.1-5.668-.889-11.332-1-17.479-.19-9.675-.8-22.9-6.446-31.027a10.5,10.5,0,0,0-4.127-3.583c-.157-.46-.346-.922-.542-1.362.44-7.852-2.576-15.994-6.531-22.96a16.692,16.692,0,0,0-.794-4.827,27.908,27.908,0,0,0-3.358-6.735l.185-.14c2.354-1.608,5.478-1.729,8.115-2.653,7.882-2.756,10.934-8.571,11.178-15.273,7.368-5.893,12.152-17.17,10.348-25.679-1.589-7.441-7.3-13.392-14.176-16.632m-9.727,46.086a1.764,1.764,0,0,1,.063-.215.941.941,0,0,1,.176.05c-.075.052-.151.105-.239.165" transform="translate(1079 -123)" fill="#fff"/>
    <path id="Path_2305" data-name="Path 2305" d="M138.4,19.939c-11.486-12.963-15.386,12.169-15.086,18.749a156.961,156.961,0,0,0,5,32.768l3.405,2.057c6.983-11.168,17.2-41.682,6.683-53.574" transform="translate(70.456 9.303)" fill="#f3bace"/>
    <path id="Path_2306" data-name="Path 2306" d="M16.526,78.863C17.765,94.689,46.8,108.555,59.684,111.3l.888-3.878A156.927,156.927,0,0,0,40.491,81.05c-4.521-4.788-25.3-19.456-23.964-2.187" transform="translate(9.409 40.386)" fill="#f3bace"/>
    <path id="Path_2307" data-name="Path 2307" d="M66.38,120.42a1.684,1.684,0,0,0-.273-.192,26.238,26.238,0,0,0-1.678,3.65,26.59,26.59,0,0,0,1.952-3.459" transform="translate(36.817 68.703)" fill="#fff0df"/>
    <path id="Path_2308" data-name="Path 2308" d="M84.464,113.433a10.134,10.134,0,0,0,.542,1.065c-.108-.4-.2-.8-.275-1.213l-.267.148" transform="translate(48.266 64.736)" fill="#fff0df"/>
    <path id="Path_2309" data-name="Path 2309" d="M189.068,99.716a31.444,31.444,0,0,0-5.25-5.5c-.306.146-.618.286-.94.409a14.308,14.308,0,0,1-10.867-.366c-1.505,5.64-5.641,10.486-11.831,11.358a13.129,13.129,0,0,1-11.6-4.4l-4.922,12.88c-1.743,4.559-3.324,11.358-8.272,13.584-4.136,1.861-9.036.014-11.877-3.236s-3.371-7.4-3.217-11.538c-3.008,3.71-3.732,9.773-5.571,13.832-2.343,5.172-6.045,10.013-12.064,10.711-5.657.657-10.709-2.665-13.637-7.32-.119-.192-.226-.387-.338-.58a5.105,5.105,0,0,1-1.193-.6q-1.36.757-2.722,1.512a51,51,0,0,0-2.83,4.87c-1.147,2.412-1.851,5.084-2.832,7.57-2.555,6.476-7.342,12.854-14.556,13.029,3.019,25.336,14.33,50.412,33.124,67.607,20.939,19.165,50.384,26.369,75.839,18.2a58.539,58.539,0,0,0,30.975-23.215c8.523-12.7,12.757-28.493,14.361-44.109.886-8.6.556-17.379-2.264-25.8-2.931-8.762-7.832-16.755-12.473-24.7-4.752-8.132-9.385-16.687-15.05-24.2" transform="translate(36.889 53.841)" fill="#fff0df"/>
    <path id="Path_2310" data-name="Path 2310" d="M162.686,159.278c10.428,21.563,6.845,44.865-8,52.045s-35.34-4.477-45.768-26.039-6.845-44.865,8-52.046,35.34,4.477,45.768,26.04" transform="translate(58.826 74.926)" fill="#e6cfbc"/>
    <path id="Path_2311" data-name="Path 2311" d="M129.631,178.332c3.135,1.813,8.421.715,9.251-3.254.237-1.136-1.171-1.795-2.059-1.4-1.058.465-1.889,1.331-2.979,1.74a10.025,10.025,0,0,1-3.4.586c-1.171,0-2.008,1.642-.812,2.334" transform="translate(73.744 99.18)" fill="#262625"/>
    <path id="Path_2312" data-name="Path 2312" d="M115.684,145.2a6.189,6.189,0,0,0-3.7,4.64,2.6,2.6,0,0,0,.985,2.956c8.228,4.161,18.084-.369,21.463-8.693a3.094,3.094,0,0,0-1.873-3.872,17.449,17.449,0,0,0-21.284,7.381c-2.536,4.5,2.434,8.47,6.514,5.728,1.353-.91,2.686-1.846,4.023-2.778a12.785,12.785,0,0,0,2-1.4c.872-.932,2.994-3.3-1.785-2.719-.8.1-1.658.806-2.684.8a5.968,5.968,0,0,1-3.655-1.375q.552,2.814,1.1,5.629a10.2,10.2,0,0,1,2.714-2.992c1.125-.783,2.594-.858,3.663-1.527q2.477.134-.112-2.37a4.822,4.822,0,0,1-1.114,1.549,5.049,5.049,0,0,1-3.341,1.416,4.1,4.1,0,1,0,.42,8.157c5.868-.336,16.315-8.55,10.433-14.858-2.572-2.758-6.993-2.12-10.21-1.048a17.663,17.663,0,0,0-9.187,7.15,4.142,4.142,0,0,0,1.106,5.629c5.934,4.409,17.275,3.756,19.038-4.827.778-3.781-1.512-7.431-5.52-7.643-4.4-.233-9.21,4.3-12.663,6.624l6.514,5.728a12.084,12.084,0,0,1,12.784-6.352q-1.318-2.015-2.634-4.032c-1.474,6.011-8,8.38-13.456,6.166l1.7,2.609a35.842,35.842,0,0,1,1.058-3.622,1.7,1.7,0,0,0-2.308-2.057" transform="translate(62.513 79.381)" fill="#262625"/>
    <path id="Path_2313" data-name="Path 2313" d="M116.279,145.485c2.594-1.392,4.722-3.511,7.379-4.791,1.6-.768,4.662-1.958,4.651,1.018a6.015,6.015,0,0,1-1.667,3.476c-3.437,4.383-6.08,7.6-5.351,13.5.347,2.819,5.184,2.638,5.043-.259-.262-5.324,3.166-7.445,5.7-11.509,1.708-2.741,2.376-6.5.363-9.27-5.406-7.444-14.132,1.582-17.533,6.2a1.125,1.125,0,0,0,1.414,1.628" transform="translate(65.526 77.039)" fill="#262625"/>
    <path id="Path_2314" data-name="Path 2314" d="M123.6,142.292c-5.252-.578-20.36-.223-17.085,9.113,3.016,8.593,14.607,4.01,20.713,7.131,1.835.938,4.3-1.19,2.6-2.957a30.649,30.649,0,0,0-18.81-9.276q.1,1.931.2,3.858a15.952,15.952,0,0,1,6.059.8l.3-3.861-3.9.347a2.051,2.051,0,0,0-1.659,1.84,3.863,3.863,0,0,0,3.056,4.281,9.812,9.812,0,0,0,3.7-.262,9.86,9.86,0,0,1,6,1.017q.163-2.117.325-4.232a8.072,8.072,0,0,1-2.843-.046c-2.475-.3-2.942,2.764-1.425,4.1,1.9,1.674,3.969,3.1,5.871,4.757a1.7,1.7,0,0,0,2.6-1.7,18.3,18.3,0,0,1,3.6-17.187l-2.607-.908q-.679.674-1.359,1.347.728.856,1.458,1.708c0-.1.217-1.045-.118-.866,1.518-.808-.068.724.244-.343.049-.168-.341,1.042-.443,1.265-.468,1.023-.841.833.025,1.358a1.807,1.807,0,0,0-2.48.487,3.251,3.251,0,0,0-.471,2.607,2.89,2.89,0,0,0,2.539,2.29c4.463.575,6.523-5.041,5.671-8.695-.731-3.148-4.186-3.834-6.171-1.279-1.853,2.384-1.722,8.093,2.407,7.821,3.567-.236,3.465-5.536,2.272-7.909-1.436-2.855-5.4-2.921-6.476.346-.924,2.794,1.216,7.706,4.75,5.86,2.539-1.326,2.53-6.064.272-7.681-3.14-2.247-5.25,2-5.19,4.491.019.781.536,1.74,1.46,1.708,2.528-.086,4.466-1.619,4.455-4.29a1.439,1.439,0,0,0-2.607-.908,23.208,23.208,0,0,0-4.541,19.387l2.924-1.414c-1.788-1.8-3.339-3.779-5.142-5.588q-.931,1.857-1.862,3.712a11.6,11.6,0,0,0,3.988-.105,2.213,2.213,0,0,0,.324-4.232,14.33,14.33,0,0,0-5.058-1.218c-.624-.027-5.036.162-5.084.647q-.83.919-1.659,1.84l3.892-.407c2.005-.209,2.148-3.292.3-3.861a21.158,21.158,0,0,0-8.077-.853c-2.26.179-1.927,3.649.2,3.858a24.885,24.885,0,0,1,16.129,8.01q1.3-1.48,2.6-2.959c-4.309-2.3-8.8-1.842-13.45-2.693-1.249-.229-3.676-.668-4.307-1.971-1.142-2.352,1.243-2.909,2.805-3.393a73.924,73.924,0,0,1,9.249-2.17,1.379,1.379,0,0,0-.14-2.719" transform="translate(60.605 78.157)" fill="#262625"/>
    <path id="Path_2315" data-name="Path 2315" d="M119.246,149.569c.718,5.311,3.386,10.229,5.657,15.021q1.669,3.529,3.394,7.027c.977,1.989,1.235,3.225,3.489,3.6a.962.962,0,0,0,.9-.435c1.028-1.79.512-2.536-.325-4.4q-1.728-3.861-3.405-7.746c-2.11-4.865-3.892-10.07-7.207-14.272-.927-1.175-2.681-.119-2.5,1.21" transform="translate(68.135 84.488)" fill="#262625"/>
    <path id="Path_2316" data-name="Path 2316" d="M125.274,160.622c-1.281,2.891,1.73,8.3,3.677,10.449a9.353,9.353,0,0,0,16.2-4.062c.4-2.059-.313-5.632-2.887-5.709a.454.454,0,0,0-.475.526c.182.946.88,1.677,1.047,2.607a4.24,4.24,0,0,1-2.557,4.362,7.173,7.173,0,0,1-6.429.107c-2.148-1.128-3.209-3.066-4.409-5.063-.962-1.6-1.608-3.273-3.551-3.622a.614.614,0,0,0-.621.405" transform="translate(71.411 91.55)" fill="#262625"/>
    <path id="Path_2317" data-name="Path 2317" d="M128.776,160.478c-.932,1.738-.03,3.289.633,5.033.82,2.156,1.677,4.237,1.232,6.6a7.184,7.184,0,0,1-4.075,4.97c-1.659.71-3.691.786-5.008-.7-.625-.709-.765-1.71-1.394-2.439a.451.451,0,0,0-.707.046c-1.537,2.065.8,4.838,2.684,5.806a9.353,9.353,0,0,0,13.246-10.181c-.47-2.827-2.866-8.583-5.909-9.369a.619.619,0,0,0-.7.234" transform="translate(67.978 91.556)" fill="#262625"/>
    <path id="Path_2318" data-name="Path 2318" d="M73.5,203.829c16.558,12.243,33.651,2.1,43.658-12.9,8.4-12.6,17.694-32.155,9.066-46.691,0-.273,0-.564.022-.883a13.123,13.123,0,0,1,4.315-8.753c4.171-3.668,9.762-3.544,14.171-1.028a22.715,22.715,0,0,0,1.813,4.243c8.681,15.664,32.347,19.855,48.664,19.343,18.783-.589,31.963-13.885,29-33.118-2.131-13.852-12.581-30.178-27.961-29.868-9.283-1.257-18.235,3.845-26.411,7.582-7.218,3.3-15.714,6.391-21.142,12.513-6.05,2.109-11.967,4.862-17.273,7.186a200.19,200.19,0,0,0-24.709,12.927c-10.01,1.119-20.779,7.837-28.962,12.106-5.883,3.071-11.693,6.7-15.158,12.254-11.379,13.56-1.779,35.714,10.9,45.091M114.2,134.754c5.745-3.38,11.6-6.554,17.665-9.438q6.624-3.149,13.455-5.838a19.447,19.447,0,0,0-1.463,9.859,15.518,15.518,0,0,0-14.182,1.147c-2.088,1.331-5.322,5.211-7.021,9.124a17.619,17.619,0,0,0-8.453-4.854" transform="translate(32.876 53.701)" fill="#262625"/>
    <path id="Path_2319" data-name="Path 2319" d="M335.51,487.654c.9,4.323,1.889,8.72,1.351,13.084-.944,7.779-7.3,10.1-13.461,13.563-7.04,3.976-20.474,9.9-24.023-1.416a18.43,18.43,0,0,1-.552-2.18c8.338-4.133,17.745-5.817,25.4-11.011,4.779-3.25,8.919-6.676,11.275-12.02Z" transform="translate(170.762 278.666)" fill="#262625"/>
    <path id="Path_2320" data-name="Path 2320" d="M376.247,471.775c4.09,10.051,4.307,18.155-5.143,25.289-6.7,5.065-17.6,9.986-26.2,7.944-4.655-1.1-5-5.772-5.618-9.848,8.352-4.207,17.852-5.869,25.57-11.11,4.779-3.248,8.912-6.688,11.277-12.02.041-.086.082-.174.11-.255" transform="translate(193.884 269.592)" fill="#262625"/>
    <path id="Path_2321" data-name="Path 2321" d="M488.251,412.646c.885,5.084,1.146,10.3-.646,14.737-3.075,7.535-14.5,13.247-21.808,16.36-5.869,2.488-12.106,1.851-14.49-4.15a28.326,28.326,0,0,1-1.444-5.516c9.163-5.89,20.4-7.186,29.295-13.213a34.688,34.688,0,0,0,9.094-8.219" transform="translate(257.07 235.803)" fill="#262625"/>
    <path id="Path_2322" data-name="Path 2322" d="M538.241,396.122c2.22,8.057,1.068,16.1-6.465,21.621-5.884,4.287-22.153,12.256-28.91,7.046-2.137-1.647-2.62-4.9-2.884-8,.259-.192.533-.391.811-.575,9.207-6.011,20.57-7.285,29.54-13.365a38.754,38.754,0,0,0,7.907-6.723" transform="translate(285.711 226.36)" fill="#262625"/>
    <path id="Path_2323" data-name="Path 2323" d="M138.64,101.182a39.967,39.967,0,0,1,16.565,2.464,28.191,28.191,0,0,1,6.965,4.061c1.688,1.342,3.124,3.837,5.41,3.957a1.113,1.113,0,0,0,1.172-1c.253-2.585-2.774-4.486-4.634-5.857a31.743,31.743,0,0,0-8.278-4.345,24.167,24.167,0,0,0-17.435,0c-.44.171-.156.742.236.721" transform="translate(78.963 56.477)" fill="#fff"/>
    <path id="Path_2324" data-name="Path 2324" d="M82.009,127.474a21.916,21.916,0,0,1,16.456,6.635,1.443,1.443,0,0,0,2.17-1.9,17.5,17.5,0,0,0-18.783-5.572c-.413.137-.267.845.157.838" transform="translate(46.633 71.896)" fill="#fff"/>
    <path id="Path_2325" data-name="Path 2325" d="M163.108,159.457c10.62,21.959,6.971,45.691-8.151,53s-35.992-4.56-46.612-26.52-6.971-45.691,8.151-53,35.992,4.56,46.612,26.52" transform="translate(58.438 74.732)" fill="#e6cfbc"/>
    <path id="Path_2326" data-name="Path 2326" d="M130.516,180.478c3.188,1.868,8.662.746,9.466-3.335.234-1.188-1.208-1.857-2.139-1.46-1.084.462-1.928,1.348-3.039,1.763a10.33,10.33,0,0,1-3.445.607c-1.216,0-2.085,1.7-.844,2.425" transform="translate(74.237 100.327)" fill="#262625"/>
    <path id="Path_2327" data-name="Path 2327" d="M155.528,190.011a17.31,17.31,0,0,1-8.3-2.618,16.884,16.884,0,0,1-3.476-2.822c-1.183-1.3-1.644-2.957-2.591-4.4a59.241,59.241,0,0,1-3.955-7.956c-1.259-2.725-2.541-5.439-3.779-8.171-1.515-3.347-5.36-9.209-3.159-12.949a4.323,4.323,0,0,1,5.184-2.071,25.7,25.7,0,0,0,1.494-2.136c1.823-2.94,2.462-6.955.113-9.8-2.48-3.009-6.014-3.113-9.273-1.326a21.159,21.159,0,0,0-4.537,3.5c-.655.64-1.226,1.373-1.887,2-2.964,2.825-7.849,1.8-11.494,3.3-3.311,1.361-5.178,4.081-4.125,7.687,1.463,5.011,5.869,5.863,10.568,6.138a4.335,4.335,0,0,1,4.9-2.906c3.316.46,5.142,3.8,6.385,6.548,1.587,3.512,3.061,7.057,4.714,10.546,1.194,2.516,2.368,5.052,3.644,7.527,1.779,3.446,3.738,5.893,3.547,9.955a17.411,17.411,0,0,1-3.2,9.264.57.57,0,0,0,.57.869c4.488-1.04,6.715-5.379,7.012-9.719,3.583,2.467,8.395,3.393,11.981.534a.57.57,0,0,0-.327-.987" transform="translate(60.256 76.903)" fill="#262625"/>
    <rect id="Rectangle_126" data-name="Rectangle 126" width="824.959" height="798.111" transform="translate(1223 -99)" fill="none"/>
  </g>
</svg>
