<?xml version="1.0" encoding="utf-8"?>
<!-- Generator: Adobe Illustrator 27.5.0, SVG Export Plug-In . SVG Version: 6.00 Build 0)  -->
<svg version="1.1" id="Group_174" xmlns="http://www.w3.org/2000/svg" xmlns:xlink="http://www.w3.org/1999/xlink" x="0px" y="0px"
	 viewBox="0 0 504.8 271.6" style="enable-background:new 0 0 504.8 271.6;" xml:space="preserve">
<style type="text/css">
	.st0{fill:#FFFFFF;}
</style>
<path class="st0" d="M67.3,50.6l1.2,7.1l-5.8,0.9l13.5,83.1l5.7-0.9L83,148l-19.8,3.2l-25.5-38.3l-5.7-1.9l0.5-5.8l-15.3-23
	l10.9,67.3l5.8-0.9l1.2,7.1l-19.4,3.1l-1.2-7.1l5.6-0.9L6.8,67.7l-5.7,0.9L0,61.5L22,58l25.3,37.9l5.3,1.8l-0.5,5.4l12.8,19.2
	L54.8,60l-5.7,0.9L48,53.8L67.3,50.6z M41.1,105.7c0.5,0.4,1,0.5,1.6,0.4c0.6-0.1,1-0.4,1.4-0.9c0.3-0.5,0.5-1,0.4-1.6
	c-0.1-0.6-0.4-1-0.9-1.4c-0.5-0.3-1-0.5-1.6-0.4s-1,0.4-1.4,0.9c-0.4,0.5-0.5,1-0.4,1.6C40.4,104.9,40.7,105.4,41.1,105.7z"/>
<path class="st0" d="M133.6,46.9l-5.4,0.9l6,37.1l4,3.7l-2.6,4.8l2.7,16.7c0.6,3.7,0.5,7.4-0.4,11c-0.8,3.6-2.4,7-4.6,10
	c-4.6,6.3-10.7,10.1-18.4,11.3l-0.3,0c-5,0.8-9.8,0.2-14.5-1.7c-4.7-1.9-8.6-4.8-11.8-8.8c-3.2-4-5.2-8.5-6-13.6l-1.1-6.5
	c-0.4-2.3,0.1-4.5,1.5-6.5c1.4-2,3.3-3.1,5.6-3.5c2.4-0.4,4.5,0.1,6.5,1.5c2,1.4,3.1,3.3,3.5,5.6l2.8,17.2c0.5,3,1.9,5.3,4.4,7.1
	c2.4,1.7,5,2.4,7.9,2c2.8-0.4,5.2-1.8,7-4.3c1.9-2.6,2.6-5.5,2.1-8.6l-4.2-26.1l-4.3-3.9l2.9-5.1l-6-36.8l-6.1,1l-1.2-7.1l28.6-4.6
	L133.6,46.9z M125.2,91.8c0.5,0.4,1,0.5,1.6,0.4s1-0.4,1.4-0.9c0.3-0.5,0.5-1,0.4-1.6c-0.1-0.6-0.4-1-0.9-1.4
	c-0.5-0.3-1-0.5-1.6-0.4s-1,0.4-1.4,0.9c-0.4,0.5-0.5,1-0.4,1.6C124.4,91,124.7,91.5,125.2,91.8z"/>
<path class="st0" d="M152.2,136.8l-1.2-7.1l5.6-0.9l-6-37l-4.5-4.1l3-5.3l-5.9-36.6l-5.7,0.9l-1.2-7.1l61.5-10l3,18.6l-17.2,2.8
	l-0.4-2.2c-0.1-0.6-0.3-2-0.7-4.2c-0.3-2.2-0.6-3.9-0.8-5.1l-21.5,3.5l6.1,37.8l18.7-3l1.2,7.2l-18.7,3l6.2,38.1l21.5-3.5
	c-0.1-0.9-0.3-1.8-0.5-2.8c-0.2-1-0.3-1.9-0.4-2.7c-0.1-0.8-0.2-1.5-0.3-2.2c-0.1-0.7-0.2-1.2-0.3-1.6c-0.1-0.4-0.1-0.6-0.1-0.7
	l-0.3-1.5l2.2-0.4l15-2.4l3,18.6L152.2,136.8z M159.5,83.4c-0.5-0.3-1-0.5-1.6-0.4c-0.6,0.1-1,0.4-1.4,0.9c-0.4,0.5-0.5,1-0.4,1.6
	c0.1,0.6,0.4,1,0.9,1.4c0.5,0.4,1,0.5,1.6,0.4c0.6-0.1,1-0.4,1.4-0.9c0.3-0.5,0.5-1,0.4-1.6C160.3,84.3,160,83.8,159.5,83.4z"/>
<path class="st0" d="M308.3,11.5l1.2,7.1l-5.7,0.9l6,37l4.2,3.8l-2.8,5l6,37.3l5.6-0.9l1.2,7.1l-28.5,4.6l-1.2-7.1l5.8-0.9l-6-37.3
	l-4.2-3.9l2.8-5.1l-3.6-22.4L271.5,102l-15.4,2.5l-16.3-24.4l-5.7-1.9l0.5-5.8l-15.3-23l10.9,67.3l5.8-0.9l1.2,7.1l-19.4,3.1
	l-1.2-7.1l5.6-0.9L209,35l-5.7,0.9l-1.2-7.1l22-3.6l25.3,37.9l5.3,1.8l-0.5,5.4l12.1,18.1l18-65.6l-3.3,0.5l-1.2-7.1l14.3-2.3
	L308.3,11.5z M243.1,73c0.5,0.4,1,0.5,1.6,0.4s1-0.4,1.4-0.9c0.3-0.5,0.5-1,0.4-1.6c-0.1-0.6-0.4-1-0.9-1.4c-0.5-0.3-1-0.5-1.6-0.4
	c-0.6,0.1-1,0.4-1.4,0.9c-0.3,0.5-0.5,1-0.4,1.6C242.4,72.1,242.7,72.6,243.1,73z M300.7,63.6c0.5,0.4,1,0.5,1.6,0.4s1-0.4,1.4-0.9
	c0.3-0.5,0.5-1,0.4-1.6c-0.1-0.6-0.4-1-0.9-1.4s-1-0.5-1.6-0.4s-1,0.4-1.4,0.9c-0.4,0.5-0.5,1-0.4,1.6
	C299.9,62.8,300.2,63.3,300.7,63.6z"/>
<path class="st0" d="M360.5,3.1l19-3.1l1.2,7.1l-5.8,0.9l10.5,64.8c0.6,3.4,0.4,6.8-0.3,10.1c-0.8,3.3-2.2,6.4-4.2,9.2
	c-4.1,5.8-9.7,9.2-16.8,10.3l-2.5,0.4c-3.7,0.6-7.4,0.5-11-0.4c-3.6-0.8-7-2.4-10-4.6c-3.1-2.2-5.6-4.9-7.5-8.1
	c-2-3.2-3.3-6.6-3.9-10.4l-2.6-16.5l-4.2-3.9l2.8-5l-6-36.9l-5.7,0.9l-1.2-7.1l28.6-4.6l1.2,7.1l-5.8,0.9l6,37l4.1,3.8l-2.7,4.9
	l3.5,21.8c0.7,4.3,2.8,7.7,6.3,10.2c3.5,2.6,7.4,3.5,11.8,2.8c4.3-0.7,7.7-2.8,10.2-6.3c2.5-3.5,3.5-7.4,2.8-11.8L367.3,9.3
	l-5.6,0.9L360.5,3.1z M332.7,58.4c0.5,0.4,1,0.5,1.6,0.4s1-0.4,1.4-0.9c0.3-0.5,0.5-1,0.4-1.6c-0.1-0.6-0.4-1-0.9-1.4
	c-0.5-0.3-1-0.5-1.6-0.4c-0.6,0.1-1,0.4-1.4,0.9c-0.3,0.5-0.5,1-0.4,1.6C331.9,57.6,332.2,58.1,332.7,58.4z"/>
<path class="st0" d="M174.6,245.8l17.2-2.8l3,18.6l-61.5,10l-1.2-7.1l5.6-0.9l-6-37.4l-4.1-3.8l2.7-4.8l-6-37.1l-5.7,0.9l-1.2-7.1
	l28.6-4.6l1.2,7.1l-5.8,0.9l6,36.9l4.2,3.9l-2.8,5.1l6,37.3l21.5-3.5c-0.2-1.1-0.4-2.2-0.5-3.3c-0.2-1.1-0.3-2-0.4-2.8
	c-0.1-0.8-0.2-1.4-0.3-2c-0.1-0.6-0.2-1.1-0.2-1.4c-0.1-0.3-0.1-0.5-0.1-0.6L174.6,245.8z M138.4,221.7c0.5,0.4,1,0.5,1.6,0.4
	c0.6-0.1,1-0.4,1.4-0.9c0.3-0.5,0.5-1,0.4-1.6c-0.1-0.6-0.4-1-0.8-1.4c-0.5-0.4-1-0.5-1.6-0.4c-0.6,0.1-1,0.4-1.4,0.9
	c-0.4,0.5-0.5,1-0.4,1.6C137.6,220.8,137.9,221.3,138.4,221.7z"/>
<path class="st0" d="M245.4,160.5l-5.4,0.9l6,37.1l4,3.7l-2.6,4.8l2.7,16.7c0.6,3.7,0.5,7.4-0.4,11c-0.8,3.6-2.4,7-4.6,10
	c-4.5,6.3-10.7,10.1-18.4,11.3l-0.3,0c-5,0.8-9.8,0.2-14.5-1.7c-4.7-1.9-8.6-4.8-11.8-8.8c-3.2-4-5.2-8.5-6-13.6l-1.1-6.5
	c-0.4-2.3,0.1-4.5,1.5-6.5s3.3-3.1,5.6-3.5c2.4-0.4,4.5,0.1,6.5,1.5s3.1,3.3,3.5,5.6l2.8,17.2c0.5,3,1.9,5.3,4.4,7.1
	c2.4,1.7,5,2.4,7.9,2c2.8-0.4,5.2-1.8,7-4.3c1.9-2.6,2.6-5.5,2.1-8.6l-4.2-26.1l-4.3-3.9l2.9-5.1l-6-36.8l-6.1,1l-1.2-7.1l28.6-4.6
	L245.4,160.5z M237,205.4c0.5,0.4,1,0.5,1.6,0.4c0.6-0.1,1-0.4,1.4-0.9c0.3-0.5,0.5-1,0.4-1.6c-0.1-0.6-0.4-1-0.9-1.4
	c-0.5-0.3-1-0.5-1.6-0.4c-0.6,0.1-1,0.4-1.4,0.9c-0.4,0.5-0.5,1-0.4,1.6C236.2,204.6,236.5,205.1,237,205.4z"/>
<path class="st0" d="M316.1,234.1l6.3-1l1.2,7.2l-19.7,3.2l-1.2-7.2l6.1-1l-14.1-36.4l-13.7,2.2l-2,38.7l6.1-1l1.2,7.1l-29.7,4.8
	l-1.2-7.1l6.1-1l2.1-39.4l-3.1-2.8l3.6-6.4l1.9-36.9l-5.6,0.9L259,151l29.7-4.8l1.2,7.2l-4.8,0.8L316.1,234.1z M270.7,200.2
	c0.5,0.4,1,0.5,1.6,0.4c0.6-0.1,1-0.4,1.4-0.9c0.3-0.5,0.5-1,0.4-1.6c-0.1-0.6-0.4-1-0.8-1.4c-0.5-0.4-1-0.5-1.6-0.4
	c-0.6,0.1-1,0.4-1.4,0.9c-0.4,0.5-0.5,1-0.4,1.6C269.9,199.4,270.2,199.9,270.7,200.2z M281.3,193.7L292,192l-9.3-24.1L281.3,193.7z
	"/>
<path class="st0" d="M418.1,125.5l1.2,7.1l-5.7,0.9l6,37l4.2,3.8l-2.8,5l6,37.3l5.6-0.9l1.2,7.1l-28.5,4.6l-1.2-7.1l5.8-0.9l-6-37.3
	l-4.2-3.9l2.8-5.1l-3.6-22.4l-17.6,65.1l-15.4,2.5L349.6,194l-5.7-1.9l0.5-5.8l-15.3-23l10.9,67.3l5.8-0.9l1.2,7.1l-19.4,3.1
	l-1.2-7.1l5.6-0.9l-13.4-83.1l-5.7,0.9l-1.2-7.1l22-3.6l25.3,37.9l5.3,1.8l-0.5,5.4l12.1,18.1l17.9-65.6l-3.3,0.5l-1.2-7.1l14.3-2.3
	L418.1,125.5z M352.9,186.9c0.5,0.4,1,0.5,1.6,0.4s1-0.4,1.4-0.9c0.3-0.5,0.5-1,0.4-1.6c-0.1-0.6-0.4-1-0.9-1.4
	c-0.5-0.3-1-0.5-1.6-0.4s-1,0.4-1.4,0.9c-0.3,0.5-0.5,1-0.4,1.6C352.2,186.1,352.4,186.5,352.9,186.9z M410.4,177.6
	c0.5,0.4,1,0.5,1.6,0.4s1-0.4,1.4-0.9c0.3-0.5,0.5-1,0.4-1.6c-0.1-0.6-0.4-1-0.9-1.4c-0.5-0.3-1-0.5-1.6-0.4s-1,0.4-1.4,0.9
	c-0.3,0.5-0.5,1-0.4,1.6C409.7,176.7,409.9,177.2,410.4,177.6z"/>
<path class="st0" d="M497.3,204.7l6.3-1l1.2,7.2l-19.7,3.2l-1.2-7.2l6.1-1l-14.1-36.4l-13.7,2.2l-2,38.7l6.1-1l1.2,7.1l-29.7,4.8
	l-1.2-7.1l6.1-1l2.1-39.4l-3.1-2.8l3.6-6.4l1.9-36.9l-5.6,0.9l-1.2-7.2l29.7-4.8l1.2,7.2l-4.8,0.8L497.3,204.7z M451.9,170.8
	c0.5,0.4,1,0.5,1.6,0.4c0.6-0.1,1-0.4,1.4-0.9c0.3-0.5,0.5-1,0.4-1.6c-0.1-0.6-0.4-1-0.8-1.4c-0.5-0.4-1-0.5-1.6-0.4
	c-0.6,0.1-1,0.4-1.4,0.9c-0.3,0.5-0.5,1-0.4,1.6C451.1,170,451.4,170.5,451.9,170.8z M462.5,164.4l10.7-1.7l-9.3-24.1L462.5,164.4z"
	/>
</svg>
