<?xml version="1.0" encoding="utf-8"?>
<!-- Generator: Adobe Illustrator 27.5.0, SVG Export Plug-In . SVG Version: 6.00 Build 0)  -->
<svg version="1.1" id="Layer_1" xmlns="http://www.w3.org/2000/svg" xmlns:xlink="http://www.w3.org/1999/xlink" x="0px" y="0px"
	 viewBox="0 0 513.1 166.8" style="enable-background:new 0 0 513.1 166.8;" xml:space="preserve">
<style type="text/css">
	.st0{enable-background:new    ;}
	.st1{fill:#F5B8CB;}
</style>
<g id="Group_209" transform="translate(-44.03 -191.06)">
	<g class="st0">
		<path class="st1" d="M257.2,219l1.8,10.8l-3.6,0.6l-0.3-1.8c-0.4-2.2-1.4-3.9-3.2-5.2c-1.8-1.3-3.8-1.8-5.9-1.4l-0.1,0
			c-2.1,0.3-3.8,1.4-5.1,3.2c-1.3,1.8-1.7,3.7-1.4,5.9c0.2,1.2,0.6,2.3,1.3,3.2c0.7,1,1.6,1.8,2.6,2.3l3.8,2.1l3.4,0l0.5,2.2l5.4,3
			c1.7,0.9,3.1,2.2,4.2,3.7c1.1,1.6,1.8,3.3,2.1,5.2c0.3,1.7,0.2,3.3-0.2,4.9c-0.4,1.6-1.1,3.1-2,4.5c-2,2.8-4.7,4.5-8.2,5l-3.3,0.5
			c-2.8,0.5-5.4,0-7.8-1.3c-0.2-0.1-0.6-0.4-1.2-0.8c0,0-0.1,0-0.1,0c0,0-0.1,0.1-0.1,0.1l0.1,0.7l-3.5,0.6l-1.8-10.8l3.6-0.6
			l0.4,2.2c0.4,2.2,1.4,3.9,3.2,5.2c1.8,1.3,3.8,1.8,6,1.4l0.7-0.1c2-0.3,3.5-1.3,4.7-2.9c1.2-1.6,1.6-3.4,1.3-5.4
			c-0.2-1.1-0.6-2.1-1.2-3c-0.6-0.9-1.4-1.6-2.4-2.2l-4.4-2.4l-3.5,0l-0.5-2.2l-4.8-2.7c-1.8-1-3.2-2.3-4.4-3.9
			c-1.1-1.6-1.9-3.5-2.2-5.5c-0.4-2.3-0.1-4.6,0.7-6.8c0.8-2.2,2.2-4,4-5.5c1.8-1.5,3.9-2.4,6.2-2.8l2.7-0.4
			c3.2-0.5,6.2,0.1,8.9,1.9c0.1,0.1,0.1,0.1,0.2,0c0.1,0,0.1-0.1,0.1-0.2l-0.1-0.7L257.2,219z M247.4,242c-0.2-0.2-0.5-0.2-0.8-0.2
			c-0.3,0-0.5,0.2-0.7,0.4c-0.2,0.2-0.2,0.5-0.2,0.8c0,0.3,0.2,0.5,0.4,0.7c0.2,0.2,0.5,0.2,0.8,0.2c0.3,0,0.5-0.2,0.7-0.4
			c0.2-0.2,0.2-0.5,0.2-0.8C247.8,242.4,247.6,242.2,247.4,242z"/>
		<path class="st1" d="M287.7,252l8.6-1.4l1.5,9.3l-30.8,5l-0.6-3.6l2.8-0.5l-3-18.7l-2.1-1.9l1.4-2.4l-3-18.5l-2.8,0.5l-0.6-3.6
			l14.3-2.3l0.6,3.6l-2.9,0.5l3,18.5l2.1,1.9l-1.4,2.5l3,18.6l10.7-1.7c-0.1-0.5-0.2-1.1-0.3-1.6c-0.1-0.5-0.2-1-0.2-1.4
			c-0.1-0.4-0.1-0.7-0.2-1c0-0.3-0.1-0.5-0.1-0.7c0-0.2,0-0.3,0-0.3L287.7,252z M269.6,239.9c0.2,0.2,0.5,0.2,0.8,0.2
			c0.3,0,0.5-0.2,0.7-0.4c0.2-0.2,0.2-0.5,0.2-0.8c0-0.3-0.2-0.5-0.4-0.7c-0.2-0.2-0.5-0.2-0.8-0.2c-0.3,0-0.5,0.2-0.7,0.4
			c-0.2,0.2-0.2,0.5-0.2,0.8C269.2,239.5,269.4,239.7,269.6,239.9z"/>
		<path class="st1" d="M329.8,250.8l3.2-0.5l0.6,3.6l-9.9,1.6l-0.6-3.6l3-0.5l-7.1-18.2l-6.9,1.1l-1,19.3l3.1-0.5l0.6,3.6l-14.9,2.4
			l-0.6-3.6l3-0.5l1-19.7l-1.5-1.4l1.8-3.2l0.9-18.4l-2.8,0.5l-0.6-3.6l14.9-2.4l0.6,3.6l-2.4,0.4L329.8,250.8z M307.1,233.8
			c0.2,0.2,0.5,0.2,0.8,0.2c0.3,0,0.5-0.2,0.7-0.4c0.2-0.2,0.2-0.5,0.2-0.8s-0.2-0.5-0.4-0.7c-0.2-0.2-0.5-0.2-0.8-0.2
			c-0.3,0-0.5,0.2-0.7,0.4c-0.2,0.2-0.2,0.5-0.2,0.8C306.7,233.4,306.9,233.7,307.1,233.8z M312.4,230.6l5.3-0.9l-4.7-12
			L312.4,230.6z"/>
		<path class="st1" d="M347.6,211.4l-0.2-1.1l-0.8-4.6l-4,0.6l3,18.4l2.2,2l-1.4,2.6l3,18.6l2.8-0.5l0.6,3.6l-14,2.3l-0.6-3.6
			l2.6-0.4l-3-18.7l-2-1.9l1.3-2.4l-3-18.6l-3.9,0.6l0.9,5.7l-8.6,1.4l-0.2-1.1l-1.1-6.8l-0.2-1.4l33.6-5.4l1.5,9.3L347.6,211.4z
			 M341.1,228.3c0.2,0.2,0.5,0.2,0.8,0.2c0.3,0,0.5-0.2,0.7-0.4c0.2-0.2,0.2-0.5,0.2-0.8c0-0.3-0.2-0.5-0.4-0.7
			c-0.2-0.2-0.5-0.2-0.8-0.2c-0.3,0-0.5,0.2-0.7,0.4c-0.2,0.2-0.2,0.5-0.2,0.8C340.7,227.9,340.9,228.1,341.1,228.3z"/>
		<path class="st1" d="M376.2,197.3l14.3-2.3l0.6,3.6l-2.7,0.4l1.5,9.4c0.4,2.3,0.1,4.6-0.7,6.8c-0.8,2.2-2.2,4-4,5.5
			c2.2,0.8,4,2.2,5.5,4c1.5,1.8,2.4,3.9,2.8,6.2l1.5,9.4l2.7-0.4l0.6,3.6l-14.3,2.3l-0.6-3.6l3-0.5c-0.1-0.6-0.3-1.9-0.7-4.1
			c-0.3-2.2-0.6-4-0.8-5.3c-0.4-2.6-1.7-4.7-3.9-6.2c-2.1-1.5-4.5-2.1-7.1-1.7l-1.3,0.2l3.1,18.9l2.9-0.5l0.6,3.6l-14.3,2.3
			l-0.6-3.6l2.8-0.5l-3-18.7l-2-1.9l1.3-2.4l-3-18.5l-2.8,0.5l-0.6-3.6l14.3-2.3l0.6,3.6L369,202l3.1,19l1.3-0.2
			c2.6-0.4,4.7-1.7,6.2-3.9c1.5-2.1,2.1-4.5,1.7-7.1c-0.2-1.3-0.5-3.1-0.9-5.3c-0.4-2.2-0.6-3.6-0.7-4.1l-3,0.5L376.2,197.3z
			 M367.4,224.1c0.2,0.2,0.5,0.2,0.8,0.2c0.3,0,0.5-0.2,0.7-0.4c0.2-0.2,0.2-0.5,0.2-0.8c0-0.3-0.2-0.5-0.4-0.7
			c-0.2-0.2-0.5-0.2-0.8-0.2c-0.3,0-0.5,0.2-0.7,0.4c-0.2,0.2-0.2,0.5-0.2,0.8C367,223.7,367.1,223.9,367.4,224.1z"/>
		<path class="st1" d="M414.8,194.6l-6.4,1l3,18.4l2.1,2l-1.4,2.5l3,18.6l6.5-1l0.6,3.6l-21.4,3.5l-0.6-3.6l6.4-1l-3-18.7l-2-1.9
			l1.3-2.4l-3-18.5l-6.4,1l-0.6-3.6l21.4-3.5L414.8,194.6z M406.8,217.7c0.2,0.2,0.5,0.2,0.8,0.2c0.3,0,0.5-0.2,0.7-0.4
			c0.2-0.2,0.2-0.5,0.2-0.8c0-0.3-0.2-0.5-0.4-0.7c-0.2-0.2-0.5-0.2-0.8-0.2c-0.3,0-0.5,0.2-0.7,0.4c-0.2,0.2-0.2,0.5-0.2,0.8
			C406.4,217.3,406.5,217.5,406.8,217.7z"/>
	</g>
	<g class="st0">
		<path class="st1" d="M75.3,307.6l0.5,3.3l-2.7,0.4l6.3,38.6l2.7-0.4l0.5,3.3l-9.2,1.5l-11.8-17.8l-2.6-0.9l0.3-2.7l-7.1-10.7
			l5.1,31.2l2.7-0.4l0.5,3.3l-9,1.5l-0.5-3.3l2.6-0.4l-6.2-38.6l-2.6,0.4l-0.5-3.3l10.2-1.7L66,328.6l2.5,0.8l-0.2,2.5l5.9,8.9
			L69.5,312l-2.6,0.4l-0.5-3.3L75.3,307.6z M63.1,333.2c0.2,0.2,0.5,0.2,0.7,0.2c0.3,0,0.5-0.2,0.6-0.4s0.2-0.5,0.2-0.7
			c0-0.3-0.2-0.5-0.4-0.6c-0.2-0.2-0.5-0.2-0.7-0.2c-0.3,0-0.5,0.2-0.6,0.4c-0.2,0.2-0.2,0.5-0.2,0.7
			C62.8,332.8,62.9,333,63.1,333.2z"/>
		<path class="st1" d="M112.3,344.4l2.9-0.5l0.5,3.3l-9.1,1.5l-0.5-3.3l2.8-0.5l-6.5-16.9l-6.4,1L95,347l2.8-0.5l0.5,3.3l-13.8,2.2
			l-0.5-3.3l2.8-0.5l1-18.3l-1.4-1.3l1.7-3l0.9-17.1l-2.6,0.4l-0.5-3.3l13.8-2.2l0.5,3.3l-2.2,0.4L112.3,344.4z M91.2,328.6
			c0.2,0.2,0.5,0.2,0.7,0.2c0.3,0,0.5-0.2,0.6-0.4c0.2-0.2,0.2-0.5,0.2-0.7c0-0.3-0.2-0.5-0.4-0.6c-0.2-0.2-0.5-0.2-0.7-0.2
			c-0.3,0-0.5,0.2-0.6,0.4c-0.2,0.2-0.2,0.5-0.2,0.7C90.8,328.3,91,328.5,91.2,328.6z M96.1,325.6l5-0.8l-4.3-11.2L96.1,325.6z"/>
		<path class="st1" d="M145.2,322.9l0.5,3.3l-2.9,0.5l2.7,16.3l-7.7-2c-1.5,2.2-3.5,3.4-6.1,3.9l-1.6,0.3c-3,0.5-5.6-0.2-8-1.9
			c-2.4-1.7-3.9-4.1-4.3-7l-1.6-9.9l-2-1.8l1.3-2.3l-1.2-7.5c-0.4-2.3-0.2-4.6,0.7-6.8s2.2-4,4-5.5c1.8-1.5,3.9-2.4,6.2-2.8l1.6-0.3
			c3-0.5,5.7,0.1,8.2,1.8c0,0,0.1,0,0.1,0c0.1,0,0.1,0,0.1,0c0.1,0,0.1-0.1,0.1-0.2l-0.1-0.7l3.3-0.5l1.6,10.1l-3.3,0.5l-0.3-1.7
			c-0.3-2-1.3-3.6-3-4.8c-1.7-1.2-3.5-1.6-5.5-1.3c-2,0.3-3.6,1.3-4.8,3c-1.2,1.7-1.6,3.5-1.3,5.5l1.6,9.9l1.9,1.7l-1.2,2.2l2,12.4
			c0.2,1.4,0.9,2.5,2,3.3c1.1,0.8,2.4,1.1,3.8,0.9c1.4-0.2,2.5-0.9,3.3-2c0.8-1.1,1.1-2.4,0.9-3.8l-1.2-7.6l-2.4,0.4l-0.5-3.3
			L145.2,322.9z M119.2,324.1c0.2,0.2,0.5,0.2,0.7,0.2c0.3,0,0.5-0.2,0.6-0.4c0.2-0.2,0.2-0.5,0.2-0.7s-0.2-0.5-0.4-0.6
			c-0.2-0.2-0.5-0.2-0.7-0.2c-0.3,0-0.5,0.2-0.6,0.4c-0.2,0.2-0.2,0.5-0.2,0.7C118.9,323.7,119,323.9,119.2,324.1z"/>
		<path class="st1" d="M177.1,325.1l1.4,8.8l2.6-0.4l0.5,3.3l-13.3,2.2l-0.5-3.3l2.8-0.4c-0.1-0.5-0.3-1.8-0.6-3.8
			c-0.3-2-0.6-3.7-0.8-4.9c-0.4-2.4-1.6-4.3-3.6-5.8c-2-1.4-4.2-2-6.6-1.6l-1.2,0.2l2.8,17.5l2.7-0.4l0.5,3.3l-13.3,2.2l-0.5-3.3
			l2.6-0.4l-2.8-17.4l-1.9-1.7l1.2-2.2l-2.8-17.2l-2.6,0.4l-0.5-3.3l16.5-2.7c2.2-0.4,4.3-0.1,6.3,0.6c2,0.8,3.7,2,5.1,3.7
			c1.4,1.7,2.2,3.6,2.6,5.8c0.4,2.2,0.1,4.3-0.7,6.4c-0.8,2.1-2,3.8-3.7,5.1c2.1,0.8,3.8,2,5.2,3.7
			C175.8,321,176.7,322.9,177.1,325.1z M152.8,318.7c0.2,0.2,0.5,0.2,0.7,0.2c0.3,0,0.5-0.2,0.6-0.4c0.2-0.2,0.2-0.5,0.2-0.7
			s-0.2-0.5-0.4-0.6c-0.2-0.2-0.5-0.2-0.7-0.2c-0.3,0-0.5,0.2-0.6,0.4c-0.2,0.2-0.2,0.5-0.2,0.7
			C152.4,318.3,152.6,318.5,152.8,318.7z M158.3,315.6c2.4-0.4,4.3-1.6,5.8-3.6c1.4-2,2-4.2,1.6-6.6c-0.4-2.4-1.6-4.3-3.6-5.8
			c-2-1.4-4.2-2-6.6-1.6l-1.2,0.2l2.8,17.5L158.3,315.6z"/>
		<path class="st1" d="M211.4,328.3l2.9-0.5l0.5,3.3l-9.1,1.5l-0.5-3.3l2.8-0.5l-6.5-16.9l-6.4,1l-0.9,18l2.8-0.5l0.5,3.3l-13.8,2.2
			l-0.5-3.3l2.8-0.5l1-18.3l-1.4-1.3l1.7-3l0.9-17.1l-2.6,0.4l-0.5-3.3l13.8-2.2l0.5,3.3l-2.2,0.4L211.4,328.3z M190.3,312.6
			c0.2,0.2,0.5,0.2,0.7,0.2c0.3,0,0.5-0.2,0.6-0.4c0.2-0.2,0.2-0.5,0.2-0.7c0-0.3-0.2-0.5-0.4-0.6c-0.2-0.2-0.5-0.2-0.7-0.2
			c-0.3,0-0.5,0.2-0.6,0.4c-0.2,0.2-0.2,0.5-0.2,0.7S190.1,312.4,190.3,312.6z M195.2,309.6l5-0.8l-4.3-11.2L195.2,309.6z"/>
		<path class="st1" d="M243.5,303.5l-1.3,2.3l0.7,4.1c0.3,2.1,0.3,4.3-0.2,6.3c-0.5,2.1-1.3,4-2.4,5.6c-1.1,1.7-2.5,3.1-4.3,4.3
			c-1.7,1.2-3.7,2.1-5.8,2.5l0,0.2L217,331l-0.5-3.3l2.6-0.4l-2.8-17.4l-1.9-1.8l1.3-2.3l-2.8-17.2l-2.6,0.4l-0.5-3.3l13.3-2.2l0,0
			c2.1-0.2,4.2,0,6.3,0.6c2,0.6,3.8,1.5,5.4,2.7c1.6,1.2,2.9,2.7,4,4.6c1.1,1.8,1.8,3.8,2.2,5.9l0.7,4.1L243.5,303.5z M219.4,307.9
			c0.2,0.2,0.5,0.2,0.7,0.2c0.3,0,0.5-0.2,0.6-0.4s0.2-0.5,0.2-0.7c0-0.3-0.2-0.5-0.4-0.6c-0.2-0.2-0.5-0.2-0.7-0.2
			s-0.5,0.2-0.6,0.4c-0.2,0.2-0.2,0.5-0.2,0.7S219.2,307.7,219.4,307.9z M233.5,303l-1.4-8.7c-0.4-2.3-1.5-4.2-3.4-5.6
			c-1.9-1.4-4-1.9-6.4-1.5l-1.5,0.2l2.8,17.1l2,1.8l-1.3,2.3l2.8,17.1l1.5-0.2c2.3-0.4,4.2-1.5,5.6-3.4s1.9-4,1.5-6.4l-1.4-8.7
			l-1.9-1.8L233.5,303z M237.3,305c0.2,0.2,0.5,0.2,0.7,0.2c0.3,0,0.5-0.2,0.6-0.4s0.2-0.5,0.2-0.7c0-0.3-0.2-0.5-0.4-0.6
			c-0.2-0.2-0.5-0.2-0.7-0.2c-0.3,0-0.5,0.2-0.6,0.4c-0.2,0.2-0.2,0.5-0.2,0.7S237.1,304.8,237.3,305z"/>
		<path class="st1" d="M273.1,275.6l0.5,3.3l-2.7,0.4l6.3,38.6l2.7-0.4l0.5,3.3l-9.2,1.5l-11.8-17.8l-2.6-0.9l0.3-2.7l-7.1-10.7
			l5.1,31.2l2.7-0.4l0.5,3.3l-9,1.5l-0.5-3.3l2.6-0.4l-6.2-38.6l-2.6,0.4l-0.5-3.3l10.2-1.7l11.7,17.6l2.5,0.8l-0.2,2.5l5.9,8.9
			l-4.7-28.9l-2.6,0.4l-0.5-3.3L273.1,275.6z M261,301.1c0.2,0.2,0.5,0.2,0.7,0.2s0.5-0.2,0.6-0.4c0.2-0.2,0.2-0.5,0.2-0.7
			c0-0.3-0.2-0.5-0.4-0.6c-0.2-0.2-0.5-0.2-0.7-0.2c-0.3,0-0.5,0.2-0.6,0.4c-0.2,0.2-0.2,0.5-0.2,0.7S260.8,301,261,301.1z"/>
		<path class="st1" d="M295.6,275.3l-6,1l2.8,17.1l2,1.8l-1.3,2.3l2.8,17.3l6-1l0.5,3.3l-19.9,3.2l-0.5-3.3l5.9-1l-2.8-17.4
			l-1.9-1.7l1.2-2.2l-2.8-17.2l-5.9,1l-0.5-3.3L295,272L295.6,275.3z M288.1,296.7c0.2,0.2,0.5,0.2,0.7,0.2c0.3,0,0.5-0.2,0.6-0.4
			c0.2-0.2,0.2-0.5,0.2-0.7c0-0.3-0.2-0.5-0.4-0.6c-0.2-0.2-0.5-0.2-0.7-0.2c-0.3,0-0.5,0.2-0.6,0.4c-0.2,0.2-0.2,0.5-0.2,0.7
			C287.8,296.3,287.9,296.6,288.1,296.7z"/>
		<path class="st1" d="M348.7,263.3l0.5,3.3l-2.7,0.4l6.3,38.6l2.7-0.4l0.5,3.3l-9.2,1.5L335,292.2l-2.6-0.9l0.3-2.7l-7.1-10.7
			l5.1,31.2l2.7-0.4l0.5,3.3l-9,1.5l-0.5-3.3l2.6-0.4l-6.2-38.6l-2.6,0.4l-0.5-3.3l10.2-1.7l11.7,17.6l2.5,0.8l-0.2,2.5l5.9,8.9
			l-4.7-28.9l-2.6,0.4l-0.5-3.3L348.7,263.3z M336.6,288.9c0.2,0.2,0.5,0.2,0.7,0.2c0.3,0,0.5-0.2,0.6-0.4c0.2-0.2,0.2-0.5,0.2-0.7
			c0-0.3-0.2-0.5-0.4-0.6c-0.2-0.2-0.5-0.2-0.7-0.2s-0.5,0.2-0.6,0.4c-0.2,0.2-0.2,0.5-0.2,0.7C336.2,288.5,336.3,288.7,336.6,288.9
			z"/>
		<path class="st1" d="M385.7,300l2.9-0.5l0.5,3.3l-9.1,1.5l-0.5-3.3l2.8-0.5l-6.5-16.9l-6.4,1l-0.9,18l2.8-0.5l0.5,3.3l-13.8,2.2
			l-0.5-3.3l2.8-0.5l1-18.3l-1.4-1.3l1.7-3l0.9-17.1l-2.6,0.4l-0.5-3.3l13.8-2.2l0.5,3.3l-2.2,0.4L385.7,300z M364.6,284.3
			c0.2,0.2,0.5,0.2,0.7,0.2c0.3,0,0.5-0.2,0.6-0.4c0.2-0.2,0.2-0.5,0.2-0.7c0-0.3-0.2-0.5-0.4-0.6c-0.2-0.2-0.5-0.2-0.7-0.2
			c-0.3,0-0.5,0.2-0.6,0.4c-0.2,0.2-0.2,0.5-0.2,0.7C364.3,283.9,364.4,284.2,364.6,284.3z M369.6,281.3l5-0.8l-4.3-11.2
			L369.6,281.3z"/>
		<path class="st1" d="M402.3,263.5l-0.2-1l-0.7-4.3l-3.7,0.6l2.8,17.1l2,1.8l-1.3,2.4l2.8,17.2l2.6-0.4l0.5,3.3l-13,2.1l-0.5-3.3
			l2.4-0.4l-2.8-17.4l-1.9-1.7l1.2-2.2l-2.8-17.2l-3.6,0.6l0.9,5.3l-8,1.3l-0.2-1l-1-6.3l-0.2-1.3l31.2-5l1.4,8.6L402.3,263.5z
			 M396.2,279.2c0.2,0.2,0.5,0.2,0.7,0.2c0.3,0,0.5-0.2,0.6-0.4c0.2-0.2,0.2-0.5,0.2-0.7c0-0.3-0.2-0.5-0.4-0.6
			c-0.2-0.2-0.5-0.2-0.7-0.2c-0.3,0-0.5,0.2-0.6,0.4c-0.2,0.2-0.2,0.5-0.2,0.7S396,279,396.2,279.2z"/>
		<path class="st1" d="M430.5,253.3l-2.5,0.4l2.8,17.2l1.9,1.7l-1.2,2.2l1.3,7.8c0.3,1.7,0.2,3.4-0.2,5.1c-0.4,1.7-1.1,3.2-2.1,4.7
			c-2.1,2.9-5,4.7-8.6,5.3l-0.1,0c-2.3,0.4-4.6,0.1-6.7-0.8c-2.2-0.9-4-2.2-5.5-4.1c-1.5-1.9-2.4-4-2.8-6.3l-0.5-3
			c-0.2-1.1,0.1-2.1,0.7-3c0.7-0.9,1.5-1.5,2.6-1.6c1.1-0.2,2.1,0.1,3,0.7c0.9,0.7,1.5,1.5,1.6,2.6l1.3,8c0.2,1.4,0.9,2.5,2,3.3
			c1.1,0.8,2.3,1.1,3.7,0.9c1.3-0.2,2.4-0.8,3.2-2c0.9-1.2,1.2-2.5,1-4l-2-12.1l-2-1.8l1.3-2.4l-2.8-17.1l-2.8,0.5l-0.5-3.3L430,250
			L430.5,253.3z M426.6,274.2c0.2,0.2,0.5,0.2,0.7,0.2c0.3,0,0.5-0.2,0.6-0.4c0.2-0.2,0.2-0.5,0.2-0.7c0-0.3-0.2-0.5-0.4-0.6
			c-0.2-0.2-0.5-0.2-0.7-0.2c-0.3,0-0.5,0.2-0.6,0.4c-0.2,0.2-0.2,0.5-0.2,0.7C426.3,273.8,426.4,274,426.6,274.2z"/>
		<path class="st1" d="M439.4,295l-0.5-3.3l2.6-0.4l-2.8-17.2l-2.1-1.9l1.4-2.5l-2.8-17l-2.6,0.4l-0.5-3.3l28.6-4.6l1.4,8.6l-8,1.3
			l-0.2-1c0-0.3-0.1-0.9-0.3-2c-0.2-1-0.3-1.8-0.4-2.4l-10,1.6l2.8,17.5l8.7-1.4l0.5,3.3l-8.7,1.4l2.9,17.7l10-1.6
			c-0.1-0.4-0.1-0.9-0.2-1.3c-0.1-0.5-0.1-0.9-0.2-1.2s-0.1-0.7-0.2-1c0-0.3-0.1-0.6-0.1-0.7c0-0.2,0-0.3-0.1-0.3l-0.1-0.7l1-0.2
			l7-1.1l1.4,8.6L439.4,295z M442.8,270.2c-0.2-0.2-0.5-0.2-0.7-0.2c-0.3,0-0.5,0.2-0.6,0.4c-0.2,0.2-0.2,0.5-0.2,0.7
			s0.2,0.5,0.4,0.6c0.2,0.2,0.5,0.2,0.7,0.2c0.3,0,0.5-0.2,0.6-0.4c0.2-0.2,0.2-0.5,0.2-0.7C443.2,270.6,443.1,270.4,442.8,270.2z"
			/>
		<path class="st1" d="M490.9,242.6l1.6,10.1l-3.3,0.5l-0.3-1.7c-0.3-2-1.3-3.6-3-4.8c-1.7-1.2-3.5-1.6-5.5-1.3
			c-2,0.3-3.6,1.3-4.8,3c-1.2,1.7-1.6,3.5-1.3,5.5l1.6,10l1.8,1.6l-1.2,2.1l1.7,10.2c0.3,2,1.3,3.6,3,4.8c1.7,1.2,3.5,1.6,5.5,1.3
			c2-0.3,3.6-1.3,4.8-3c1.2-1.7,1.6-3.5,1.3-5.5l-0.3-2.1l3.3-0.5l1.6,10.1l-3.3,0.5l-0.1-0.6c0,0,0,0-0.1-0.1c0,0-0.1,0-0.1,0
			c-0.4,0.5-0.7,0.9-0.9,1.1c-1.7,1.9-3.9,3-6.5,3.4l-1.6,0.3c-1.7,0.3-3.4,0.2-5.1-0.2c-1.7-0.4-3.2-1.1-4.7-2.1
			c-1.4-1-2.6-2.3-3.5-3.7c-0.9-1.5-1.5-3.1-1.8-4.8l-1.2-7.5l-2.1-1.9l1.4-2.5l-1.2-7.4c-0.4-2.3-0.2-4.6,0.7-6.8
			c0.8-2.2,2.2-4,4-5.5c1.8-1.5,3.9-2.4,6.2-2.8l1.6-0.3c3-0.5,5.8,0.1,8.3,1.8c0.1,0,0.1,0.1,0.2,0c0.1,0,0.1-0.1,0.1-0.2l-0.1-0.7
			L490.9,242.6z M471.4,267c0.2,0.2,0.5,0.2,0.7,0.2s0.5-0.2,0.6-0.4s0.2-0.5,0.2-0.7s-0.2-0.5-0.4-0.6c-0.2-0.2-0.5-0.2-0.7-0.2
			c-0.3,0-0.5,0.2-0.6,0.4c-0.2,0.2-0.2,0.5-0.2,0.7C471.1,266.6,471.2,266.8,471.4,267z"/>
		<path class="st1" d="M527.5,277.1l2.9-0.5l0.5,3.3l-9.1,1.5l-0.5-3.3l2.8-0.5l-6.5-16.9l-6.4,1l-0.9,18l2.8-0.5l0.5,3.3l-13.8,2.2
			l-0.5-3.3l2.8-0.5l1-18.3l-1.4-1.3l1.7-3l0.9-17.1l-2.6,0.4l-0.5-3.3l13.8-2.2l0.5,3.3l-2.2,0.4L527.5,277.1z M506.5,261.3
			c0.2,0.2,0.5,0.2,0.7,0.2c0.3,0,0.5-0.2,0.6-0.4c0.2-0.2,0.2-0.5,0.2-0.7c0-0.3-0.2-0.5-0.4-0.6c-0.2-0.2-0.5-0.2-0.7-0.2
			s-0.5,0.2-0.6,0.4c-0.2,0.2-0.2,0.5-0.2,0.7S506.2,261.2,506.5,261.3z M511.4,258.3l5-0.8l-4.3-11.2L511.4,258.3z"/>
		<path class="st1" d="M554.8,233.2l-2.5,0.4l2.8,17.2l1.9,1.7l-1.2,2.2l1.3,7.8c0.3,1.7,0.2,3.4-0.2,5.1c-0.4,1.7-1.1,3.2-2.1,4.7
			c-2.1,2.9-5,4.7-8.6,5.3l-0.1,0c-2.3,0.4-4.6,0.1-6.7-0.8c-2.2-0.9-4-2.2-5.5-4.1c-1.5-1.8-2.4-4-2.8-6.3l-0.5-3
			c-0.2-1.1,0.1-2.1,0.7-3c0.7-0.9,1.5-1.5,2.6-1.6c1.1-0.2,2.1,0.1,3,0.7c0.9,0.7,1.5,1.5,1.6,2.6l1.3,8c0.2,1.4,0.9,2.5,2,3.3
			c1.1,0.8,2.3,1.1,3.7,0.9c1.3-0.2,2.4-0.8,3.2-2c0.9-1.2,1.2-2.5,1-4l-2-12.1l-2-1.8l1.3-2.4l-2.8-17.1l-2.8,0.5l-0.5-3.3
			l13.3-2.2L554.8,233.2z M550.9,254c0.2,0.2,0.5,0.2,0.7,0.2c0.3,0,0.5-0.2,0.6-0.4c0.2-0.2,0.2-0.5,0.2-0.7c0-0.3-0.2-0.5-0.4-0.6
			c-0.2-0.2-0.5-0.2-0.7-0.2c-0.3,0-0.5,0.2-0.6,0.4c-0.2,0.2-0.2,0.5-0.2,0.7C550.5,253.6,550.6,253.9,550.9,254z"/>
	</g>
	<g id="Path_2337">
		<path class="st1" d="M486.7,236.7c-0.8,0.6-1.7,1-2.7,1.2c-1.5,0.4-3.1-0.2-4-1.4l-4.9-5.6l0.4-0.6l8,2.3l7-4.6l0.5,0.4
			L486.7,236.7z"/>
	</g>
</g>
</svg>
